<?xml version="1.0" encoding="utf-8"?>
<!-- Generator: Adobe Illustrator 26.0.2, SVG Export Plug-In . SVG Version: 6.00 Build 0)  -->
<svg version="1.1" id="레이어_1" xmlns="http://www.w3.org/2000/svg" xmlns:xlink="http://www.w3.org/1999/xlink" x="0px"
	 y="0px" viewBox="0 0 100.2 100.2" style="enable-background:new 0 0 100.2 100.2;" xml:space="preserve">
<style type="text/css">
	.st0{fill:#F7AF21;stroke:#040000;stroke-width:2;stroke-miterlimit:10;}
	.st1{fill:#F3E8AF;stroke:#040000;stroke-miterlimit:10;}
	.st2{opacity:0.7;fill:#F3E8AF;stroke:#040000;stroke-miterlimit:10;}
	.st3{opacity:0.5;fill:#F3E8AF;stroke:#040000;stroke-miterlimit:10;}
	.st4{fill:#A0F2E2;stroke:#040000;stroke-miterlimit:10;}
	.st5{fill:#2D2DEB;stroke:#040000;stroke-miterlimit:10;}
	.st6{fill:none;stroke:#383838;stroke-miterlimit:10;}
	.st7{fill:#FF3D47;stroke:#040000;stroke-miterlimit:10;}
	.st8{fill:#F0EA4A;}
	.st9{fill:#BAA631;}
	.st10{fill:#ECD138;}
	.st11{fill:#C3BA8D;}
	.st12{fill:#F3E8AF;}
	.st13{fill:#F0EA4A;stroke:#040000;stroke-miterlimit:10;}
	.st14{fill:#ECD138;stroke:#040000;stroke-miterlimit:10;}
	.st15{fill:#D4131D;stroke:#040000;stroke-miterlimit:10;}
	.st16{fill:#6B0F14;stroke:#040000;stroke-miterlimit:10;}
	.st17{fill:#EB212C;stroke:#040000;stroke-miterlimit:10;}
	.st18{fill:#E84819;stroke:#231815;stroke-width:2;stroke-miterlimit:10;}
	.st19{fill:#6B2F32;stroke:#040000;stroke-miterlimit:10;}
	.st20{fill:#099AEB;stroke:#040000;stroke-miterlimit:10;}
	.st21{fill:#9E0B12;stroke:#231815;stroke-linecap:round;stroke-miterlimit:10;}
	.st22{fill:#009E28;stroke:#040000;stroke-miterlimit:10;}
	.st23{fill:#21EB54;stroke:#040000;stroke-miterlimit:10;}
	.st24{fill:#DB272D;stroke:#231815;stroke-linecap:round;stroke-miterlimit:10;}
	.st25{fill:#00000D;stroke:#040000;stroke-miterlimit:10;}
	.st26{fill:#9E7506;stroke:#040000;stroke-miterlimit:10;}
	.st27{fill:#EBB115;stroke:#231815;stroke-linecap:round;stroke-miterlimit:10;}
	.st28{fill:#855948;stroke:#040000;stroke-miterlimit:10;}
	.st29{fill:#62ED5C;stroke:#040000;stroke-miterlimit:10;}
	.st30{fill:#4BB807;stroke:#040000;stroke-miterlimit:10;}
	.st31{fill:#B83807;stroke:#231815;stroke-linecap:round;stroke-miterlimit:10;}
	.st32{fill:#E84819;stroke:#231815;stroke-width:2;stroke-linecap:round;stroke-miterlimit:10;}
	.st33{fill:#FFFFFF;stroke:#231815;stroke-miterlimit:10;}
	.st34{fill:#F8F6D2;stroke:#231815;stroke-width:0.5;stroke-linecap:round;stroke-miterlimit:10;}
	.st35{fill:#FFCB57;stroke:#040000;stroke-miterlimit:10;}
	.st36{fill:#E84819;stroke:#231815;stroke-linecap:round;stroke-miterlimit:10;}
	.st37{fill:#DDBF9B;stroke:#040000;stroke-miterlimit:10;}
	.st38{fill:#FFFFFF;stroke:#231815;stroke-width:2;stroke-miterlimit:10;}
	.st39{fill:#383838;}
	.st40{fill:#EFAE2E;stroke:#040000;stroke-miterlimit:10;}
	.st41{fill:#040000;}
	.st42{fill:#F3E8AF;stroke:#040000;stroke-linecap:round;stroke-miterlimit:10;}
	.st43{fill:none;stroke:#FC2B59;stroke-miterlimit:10;}
	.st44{fill:#FFFFFF;stroke:#231815;stroke-linecap:round;stroke-linejoin:round;stroke-miterlimit:10;}
	.st45{fill:#B9ACEA;}
	.st46{fill:#FFFFFF;stroke:#231815;stroke-width:2.5;stroke-linecap:round;stroke-linejoin:round;stroke-miterlimit:10;}
	.st47{fill:#231815;}
	.st48{fill:none;stroke:#000000;stroke-width:2.5;}
	.st49{fill:#231815;stroke:#FFFAEE;stroke-linecap:round;stroke-miterlimit:10;}
	.st50{fill:#FFFFFF;stroke:#000000;}
	.st51{fill:#FFFFFF;}
	.st52{fill:#161616;}
	.st53{fill:#FFF648;}
	.st54{fill:#A0F2E2;}
	.st55{fill:#66DDC6;}
	.st56{fill:none;stroke:#1B2242;stroke-linecap:round;stroke-linejoin:round;}
	.st57{fill:#FFEE76;stroke:#1B2242;stroke-linecap:round;stroke-linejoin:round;}
	.st58{fill:#9FE8F4;}
	.st59{fill:#CFF6FF;}
	.st60{fill:#FFFFFF;stroke:#1B2242;stroke-linecap:round;stroke-linejoin:round;}
	.st61{fill:#FFE197;stroke:#1B2242;stroke-linecap:round;stroke-linejoin:round;}
	.st62{fill:#EFAE2E;}
	.st63{fill:#FFCB57;}
	.st64{fill:none;stroke:#CCCCCC;stroke-miterlimit:10;}
	.st65{fill:#DDBF9B;}
	.st66{fill:none;stroke:#2B3647;stroke-miterlimit:10;}
	.st67{fill:#2B3647;}
	.st68{fill:#FFFFFF;stroke:#2B3647;stroke-miterlimit:10;}
	.st69{fill:#FFF533;}
	.st70{fill:#1A3B49;}
	.st71{fill:#5FFF76;}
	.st72{fill:#E5E5E5;}
	.st73{fill:#2C3247;}
	.st74{fill:#BA5CF2;}
	.st75{fill:#D7AAF2;}
	.st76{opacity:0.5;}
	.st77{fill:#E3E3E3;}
	.st78{fill:#333333;}
	.st79{fill:#898989;}
	.st80{opacity:0.2;fill:#2D2DEB;}
	.st81{fill:#F7AF21;}
</style>
<path class="st0" d="M-119.283-401.47c-3.169,0-6.263,0.32-9.252,0.927c-21.114,4.286-37.006,22.952-37.006,45.331
	c0,0,56.048,0.24,80.893,0.16c7.074-0.023,11.623-0.072,11.623-0.16C-73.025-380.76-93.735-401.47-119.283-401.47z"/>
<polygon class="st1" points="-112.943,-399.06 -126.556,-399.06 -127.569,-412.144 -111.929,-412.144 "/>
<circle class="st1" cx="-683.262" cy="-285.263" r="13.588"/>
<circle class="st2" cx="-693.587" cy="-269.045" r="13.588"/>
<circle class="st3" cx="-672.937" cy="-269.045" r="13.588"/>
<g>
	<circle class="st1" cx="231.431" cy="-777.18" r="13.588"/>
	<circle class="st4" cx="221.106" cy="-760.962" r="13.588"/>
	<circle class="st5" cx="241.756" cy="-760.962" r="13.588"/>
	<path class="st6" d="M251.239-766.1c0.831,1.528,1.304,3.279,1.304,5.138c0,2.509-0.861,4.821-2.303,6.656"/>
	<path class="st6" d="M212.255-766.1c-0.831,1.528-1.304,3.279-1.304,5.138c0,2.509,0.861,4.821,2.303,6.656"/>
</g>
<image style="overflow:visible;opacity:0.5;" width="621" height="517" xlink:href="37291E3D.jpg"  transform="matrix(1.0975 0 0 1.0975 -901.3385 301.4844)">
</image>
<g>
	<path class="st7" d="M215.317-835.574l-1.917-4.844l-4.844-1.917c-1.23-0.487-1.559-2.075-0.623-3.01l11.207-11.207l10.394,10.394
		l-11.207,11.207C217.392-834.015,215.804-834.344,215.317-835.574z"/>
	<path class="st7" d="M247.544-835.574l1.917-4.844l4.844-1.917c1.23-0.487,1.559-2.075,0.623-3.01l-11.207-11.207l-10.394,10.394
		l11.207,11.207C245.47-834.015,247.057-834.344,247.544-835.574z"/>
	<g>
		<path class="st8" d="M229.015-852.863c-0.648-1.641-2.448-2.508-4.135-1.991h0c-2.932,0.898-5.449-2.258-3.921-4.917
			c0.879-1.529,0.434-3.478-1.021-4.474c-2.53-1.733-1.632-5.669,1.4-6.132c1.744-0.266,2.99-1.829,2.861-3.588l0,0
			c-0.223-3.059,3.414-4.81,5.667-2.729l0,0c0.648,0.599,1.471,0.898,2.295,0.898v-6.446c-1.483,0-2.966-0.534-4.121-1.602
			c-1.768-1.633-3.917-1.484-5.34-0.799c-1.422,0.685-2.879,2.272-2.704,4.672c0.229,3.139-2.028,5.97-5.139,6.444
			c-2.38,0.364-3.603,2.138-3.954,3.677s-0.019,3.668,1.968,5.028c2.596,1.778,3.402,5.308,1.834,8.035
			c-1.2,2.087-0.575,4.15,0.409,5.384c0.984,1.234,2.858,2.302,5.158,1.597c0.582-0.178,1.173-0.263,1.757-0.263
			c2.434,0,4.737,1.479,5.669,3.839c0.884,2.239,2.886,3.037,4.464,3.037v-7.532C230.869-850.724,229.578-851.437,229.015-852.863z"
			/>
		<path class="st8" d="M236.624-846.23c1.156-2.927,4.418-4.497,7.426-3.576c2.302,0.706,4.174-0.363,5.158-1.597
			c0.984-1.234,1.608-3.297,0.409-5.384c-1.568-2.727-0.762-6.257,1.834-8.035c1.986-1.36,2.319-3.489,1.968-5.028
			c-0.351-1.539-1.574-3.313-3.954-3.677c-3.11-0.475-5.367-3.305-5.139-6.444c0.175-2.401-1.282-3.988-2.704-4.673
			c-1.422-0.685-3.572-0.834-5.34,0.799c-1.155,1.068-2.638,1.602-4.121,1.602v6.446c0.823,0,1.647-0.299,2.295-0.898h0
			c2.252-2.081,5.89-0.33,5.667,2.729l0,0c-0.128,1.759,1.118,3.322,2.861,3.588c3.032,0.463,3.93,4.399,1.4,6.132h0
			c-1.455,0.997-1.9,2.945-1.021,4.474c1.528,2.659-0.989,5.815-3.921,4.917c-1.687-0.517-3.487,0.35-4.135,1.991
			c-0.563,1.426-1.854,2.139-3.145,2.139v7.532c0,0,0,0,0,0C233.738-843.192,235.74-843.991,236.624-846.23z"/>
		<path d="M227.104-845.996L227.104-845.996c-1.041-2.638-3.936-4.032-6.648-3.201h0c-4.715,1.444-8.761-3.631-6.305-7.906h0
			c1.413-2.459,0.698-5.591-1.642-7.193l0,0c-4.068-2.786-2.624-9.114,2.25-9.858h0c2.804-0.428,4.807-2.94,4.6-5.769
			c-0.359-4.918,5.489-7.734,9.111-4.387c1.041,0.962,2.365,1.444,3.689,1.444v-0.644c-1.172,0-2.344-0.422-3.257-1.267
			c-1.871-1.729-4.461-2.117-6.756-1.011c-2.296,1.105-3.606,3.371-3.421,5.911c0.181,2.481-1.603,4.719-4.062,5.094
			c-2.519,0.385-4.436,2.167-5.003,4.651c-0.567,2.484,0.387,4.921,2.489,6.36c2.052,1.405,2.689,4.195,1.45,6.352
			c-1.27,2.209-1.071,4.819,0.518,6.812c1.589,1.992,4.089,2.766,6.525,2.02c2.379-0.729,4.956,0.514,5.87,2.827
			c0.936,2.37,3.1,3.842,5.648,3.842v-0.637C230.084-842.556,228.009-843.703,227.104-845.996z"/>
		<path d="M254.659-870.133c-0.567-2.484-2.484-4.266-5.003-4.651c-2.458-0.375-4.243-2.613-4.061-5.094
			c0.185-2.541-1.126-4.806-3.421-5.911c-2.295-1.105-4.885-0.719-6.756,1.011c-0.913,0.845-2.085,1.267-3.257,1.267v0.644
			c1.324,0,2.648-0.481,3.689-1.444c3.621-3.346,9.469-0.53,9.111,4.387c-0.206,2.829,1.797,5.34,4.6,5.769
			c4.874,0.745,6.318,7.073,2.25,9.858v0c-2.34,1.602-3.055,4.734-1.642,7.193c2.457,4.275-1.59,9.35-6.305,7.906
			c-2.712-0.831-5.606,0.563-6.648,3.201h0c-0.905,2.293-2.981,3.44-5.056,3.44v0.637c0,0,0,0,0,0c2.548,0,4.712-1.472,5.648-3.842
			c0.914-2.314,3.492-3.555,5.87-2.827c2.437,0.745,4.937-0.029,6.525-2.02c1.589-1.992,1.787-4.602,0.518-6.812
			c-1.239-2.156-0.603-4.946,1.449-6.352C254.272-865.211,255.226-867.649,254.659-870.133z"/>
		<path d="M236.281-883.844c1.768-1.633,3.918-1.484,5.34-0.799c1.422,0.685,2.88,2.272,2.704,4.673
			c-0.229,3.139,2.028,5.969,5.139,6.444c2.38,0.364,3.603,2.138,3.954,3.677c0.351,1.539,0.019,3.668-1.968,5.028
			c-2.596,1.779-3.402,5.308-1.834,8.035c1.2,2.087,0.575,4.15-0.409,5.384c-0.984,1.233-2.856,2.302-5.158,1.597
			c-3.008-0.921-6.27,0.649-7.426,3.576c-0.884,2.239-2.886,3.037-4.464,3.037c0,0,0,0,0,0v0.636c2.075,0,4.151-1.146,5.056-3.44h0
			c1.041-2.638,3.936-4.032,6.648-3.201c4.715,1.444,8.761-3.631,6.305-7.906c-1.413-2.459-0.698-5.591,1.642-7.193v0
			c4.068-2.786,2.624-9.114-2.25-9.858c-2.804-0.428-4.807-2.94-4.6-5.769c0.359-4.918-5.489-7.734-9.111-4.387
			c-1.041,0.962-2.365,1.444-3.689,1.444v0.625C233.643-882.242,235.126-882.776,236.281-883.844z"/>
		<path d="M219.36-879.924c0.206,2.829-1.797,5.34-4.6,5.769h0c-4.874,0.745-6.318,7.073-2.25,9.858l0,0
			c2.34,1.602,3.055,4.734,1.642,7.193h0c-2.457,4.275,1.59,9.35,6.305,7.906h0c2.712-0.831,5.606,0.563,6.648,3.201l0,0
			c0.905,2.293,2.981,3.44,5.056,3.44v-0.636c-1.579,0-3.58-0.798-4.464-3.037c-0.932-2.361-3.235-3.839-5.669-3.839
			c-0.584,0-1.175,0.085-1.757,0.263c-2.299,0.706-4.174-0.363-5.158-1.597c-0.984-1.234-1.608-3.297-0.409-5.384
			c1.567-2.727,0.762-6.257-1.834-8.035c-1.986-1.36-2.319-3.489-1.968-5.028s1.575-3.313,3.954-3.677
			c3.111-0.475,5.368-3.305,5.139-6.444c-0.175-2.401,1.282-3.988,2.704-4.672c1.423-0.685,3.573-0.834,5.34,0.799
			c1.155,1.068,2.638,1.602,4.121,1.602v-0.625c-1.324,0-2.648-0.481-3.689-1.444C224.849-887.658,219.001-884.841,219.36-879.924z"
			/>
		<path class="st9" d="M232.28-872.284l2.261,5.022l5.419,0.985l-4.078,3.702l0.738,5.458l-4.46-2.55v8.944
			c1.291,0,2.582-0.713,3.145-2.139c0.648-1.641,2.448-2.508,4.135-1.991c2.932,0.898,5.449-2.258,3.921-4.917
			c-0.879-1.529-0.434-3.478,1.021-4.474h0c2.53-1.733,1.632-5.669-1.4-6.132c-1.744-0.266-2.99-1.829-2.861-3.588l0,0
			c0.223-3.059-3.414-4.81-5.667-2.729h0c-0.648,0.599-1.471,0.898-2.295,0.898v3.735L232.28-872.284z"/>
		<path class="st10" d="M229.865-876.695c-2.252-2.081-5.89-0.33-5.667,2.729l0,0c0.128,1.759-1.118,3.322-2.861,3.588
			c-3.032,0.463-3.93,4.399-1.4,6.132c1.455,0.997,1.9,2.945,1.021,4.474c-1.528,2.659,0.989,5.815,3.921,4.917h0
			c1.687-0.517,3.487,0.35,4.135,1.991c0.563,1.426,1.854,2.139,3.145,2.139v-8.944l-0.321-0.184l-4.963,2.388l1.123-5.392
			l-3.805-3.982l5.475-0.598l2.491-4.627v-3.735C231.336-875.797,230.513-876.096,229.865-876.695L229.865-876.695z"/>
		<polygon class="st11" points="235.881,-862.575 239.959,-866.277 234.54,-867.262 232.28,-872.284 232.16,-872.061 
			232.16,-859.668 236.619,-857.117 		"/>
		<polygon class="st12" points="229.669,-867.435 224.194,-866.836 227.999,-862.855 226.876,-857.463 231.839,-859.851 
			232.16,-859.668 232.16,-872.061 		"/>
	</g>
</g>
<circle class="st8" cx="-627.765" cy="-675.443" r="9.034"/>
<circle class="st10" cx="-603.765" cy="-675.443" r="9.034"/>
<circle class="st12" cx="-581.113" cy="-675.443" r="9.034"/>
<circle class="st13" cx="-627.765" cy="-703.617" r="9.034"/>
<circle class="st14" cx="-603.765" cy="-703.617" r="9.034"/>
<circle class="st1" cx="-581.113" cy="-703.617" r="9.034"/>
<circle class="st15" cx="-1267.957" cy="-262.519" r="9.034"/>
<circle class="st16" cx="-1243.957" cy="-262.519" r="9.034"/>
<circle class="st1" cx="-1221.306" cy="-262.519" r="9.034"/>
<circle class="st17" cx="-1200.175" cy="-262.519" r="9.034"/>
<circle class="st18" cx="-559.039" cy="-675.443" r="9.034"/>
<circle class="st19" cx="-1267.957" cy="-238.838" r="9.034"/>
<circle class="st7" cx="-1243.957" cy="-238.838" r="9.034"/>
<circle class="st20" cx="-1221.306" cy="-238.838" r="9.034"/>
<circle class="st21" cx="-1199.231" cy="-238.838" r="9.034"/>
<circle class="st22" cx="-1267.957" cy="-216.925" r="9.034"/>
<circle class="st23" cx="-1243.957" cy="-216.925" r="9.034"/>
<circle class="st20" cx="-1221.306" cy="-216.925" r="9.034"/>
<circle class="st24" cx="-1199.231" cy="-216.925" r="9.034"/>
<circle class="st25" cx="-1267.957" cy="-195.598" r="9.034"/>
<circle class="st5" cx="-1243.957" cy="-195.598" r="9.034"/>
<circle class="st26" cx="-1221.306" cy="-195.598" r="9.034"/>
<circle class="st27" cx="-1199.231" cy="-195.598" r="9.034"/>
<circle class="st28" cx="-1267.957" cy="-173.425" r="9.034"/>
<circle class="st29" cx="-1243.957" cy="-173.425" r="9.034"/>
<circle class="st30" cx="-1221.306" cy="-173.425" r="9.034"/>
<circle class="st31" cx="-1199.231" cy="-173.425" r="9.034"/>
<g>
	<rect x="301.358" y="-860.388" class="st27" width="40.766" height="25.976"/>
	<path class="st32" d="M298.146-862.095h46.431c0.606,0,1.03-0.6,0.826-1.171l-5.365-15.04h-37.353l-5.365,15.04
		C297.117-862.695,297.54-862.095,298.146-862.095z"/>
	<path class="st17" d="M306.904-878.306l-3.484,16.211v3.795c0,0.651-0.374,1.244-0.966,1.518c-0.923,0.427-2.463,0.763-4.432-0.199
		c-0.464-0.227-0.754-0.708-0.754-1.224v-4.672l5.417-15.429H306.904z"/>
	<path class="st17" d="M306.904-878.306h4.551l-2.275,15.643v4.906c0,0-2.611,3.569-5.82-0.1v-4.522L306.904-878.306z"/>
	<path class="st17" d="M311.455-878.306h5.262l-1.517,16.211v4.171c0,0-2.512,3.697-6.02,0.166v-4.716L311.455-878.306z"/>
	<path class="st17" d="M316.716-878.306h5.404l-0.379,17.349v2.844c0,0-2.797,4.314-6.541,0L316.716-878.306z"/>
	<path class="st17" d="M322.12-878.306h6.162v16.211v4.029c0,0-2.939,4.314-6.542-0.047L322.12-878.306z"/>
	<path class="st17" d="M328.283-878.306h4.314l2.086,16.449v3.414c0,0.095-0.024,0.185-0.075,0.266
		c-0.451,0.718-2.906,4.148-6.325-0.125V-878.306z"/>
	<path class="st17" d="M332.596-878.306h3.792l3.697,16.211v3.555c0,0-2.275,4.693-5.404,0v-3.555L332.596-878.306z"/>
	<path class="st17" d="M336.388-878.306h3.65l5.408,15.43v4.266c0,0-1.995,5.001-5.361,0.071v-3.555L336.388-878.306z"/>
	<circle class="st33" cx="322.12" cy="-876.351" r="10.061"/>
	<path class="st1" d="M328.283-834.412h-14.055v-11.4c0-2.643,2.143-4.786,4.787-4.786h4.482c2.644,0,4.787,2.143,4.787,4.786
		V-834.412z"/>
	<g>
		<path class="st34" d="M320.312-863.895h-0.144c-0.412,0-0.744-0.337-0.738-0.749l0.134-8.864h1.181l0.305,8.85
			C321.065-864.241,320.73-863.895,320.312-863.895z"/>
		<path class="st34" d="M317.188-875.868c0-2.005,1.495-4.487,2.845-4.487c1.247,0,2.845,2.483,2.845,4.487s-1.063,3.63-2.845,3.63
			C318.251-872.239,317.188-873.864,317.188-875.868z"/>
	</g>
	<path class="st34" d="M324.496-862.948L324.496-862.948c-0.335,0-0.606-0.275-0.6-0.61l0.296-18.805h0.51l0.395,18.802
		C325.103-863.224,324.833-862.948,324.496-862.948z"/>
	<path class="st34" d="M325.697-862.948L325.697-862.948c-0.335,0-0.606-0.275-0.6-0.61l0.296-18.805h0.51l0.395,18.802
		C326.304-863.224,326.033-862.948,325.697-862.948z"/>
</g>
<g>
	<rect x="387.755" y="-873.13" class="st35" width="46.848" height="33.647"/>
	<path class="st35" d="M434.717-873.13h-46.848l1.524-5.3c1.29-4.488,5.396-7.58,10.066-7.58h23.923
		c4.852,0,9.069,3.333,10.19,8.053L434.717-873.13z"/>
	<path class="st33" d="M434.039-834.814h-45.721c-1.289,0-2.334-1.045-2.334-2.334v0c0-1.289,1.045-2.334,2.334-2.334h45.721
		c1.289,0,2.334,1.045,2.334,2.334v0C436.374-835.859,435.329-834.814,434.039-834.814z"/>
	<path class="st24" d="M417.778-839.483H404.58c-0.474,0-0.858-0.384-0.858-0.858v-14.978c0-1.62,1.313-2.933,2.933-2.933h9.05
		c1.62,0,2.933,1.313,2.933,2.933v14.978C418.636-839.867,418.252-839.483,417.778-839.483z"/>
	<path class="st36" d="M428.195-854.252h-2.636c-1.125,0-2.038-0.912-2.038-2.037v-2.878c0-1.125,0.912-2.038,2.038-2.038h2.636
		c1.125,0,2.038,0.912,2.038,2.038v2.878C430.233-855.164,429.32-854.252,428.195-854.252z"/>
	<path class="st33" d="M434.158-865.724h-45.73c-1.731,0-3.135-1.404-3.135-3.135v-7.576c0-1.731,1.404-3.135,3.135-3.135h45.73
		c1.731,0,3.135,1.404,3.135,3.135v7.576C437.293-867.128,435.889-865.724,434.158-865.724z"/>
	
		<text transform="matrix(1 0 0 1 392.4614 -868.6529)" class="st47" style="font-family:'NotoSansKR-Medium-KSCpc-EUC-H'; font-size:9.5521px; letter-spacing:1;">SALON</text>
</g>
<image style="overflow:visible;opacity:0.7;" width="666" height="1440" xlink:href="../../../../../Desktop/KakaoTalk_20220119_121728155.jpg"  transform="matrix(1 0 0 1 -2163.6528 -869.98)">
</image>
<g>
	<rect x="512.117" y="-885.29" class="st27" width="8.805" height="19.604"/>
	<rect x="510.954" y="-886.536" class="st27" width="11.131" height="3.433"/>
	<rect x="476.876" y="-865.188" class="st37" width="46.85" height="30.901"/>
	<path class="st38" d="M476.963-865.188H523.5c0.877,0,1.269-1.1,0.59-1.655l-22.564-18.448l-25.115,18.418
		C475.684-866.34,476.061-865.188,476.963-865.188z"/>
	<polygon class="st39" points="487.083,-869.434 501.384,-879.922 514.213,-869.434 	"/>
	<rect x="481.714" y="-860.204" class="st35" width="4.652" height="4.818"/>
	<rect x="489.375" y="-860.038" class="st35" width="4.652" height="4.818"/>
	<rect x="481.714" y="-852.451" class="st35" width="4.652" height="4.818"/>
	<rect x="489.375" y="-852.285" class="st35" width="4.652" height="4.818"/>
	<rect x="507.41" y="-860.204" class="st35" width="4.652" height="4.818"/>
	<rect x="515.07" y="-860.038" class="st35" width="4.652" height="4.818"/>
	<rect x="507.41" y="-852.451" class="st35" width="4.652" height="4.818"/>
	<rect x="515.07" y="-852.285" class="st35" width="4.652" height="4.818"/>
	<path class="st40" d="M508.739-834.287h-16.433v-8.783c0-4.655,3.679-8.429,8.217-8.429h0c4.538,0,8.217,3.774,8.217,8.429
		V-834.287z"/>
</g>
<g>
	<ellipse class="st23" cx="-681.899" cy="-357.499" rx="4.913" ry="9.176"/>
	
		<ellipse transform="matrix(0.9397 -0.342 0.342 0.9397 80.4412 -256.6851)" class="st27" cx="-687.646" cy="-356.445" rx="4.913" ry="9.176"/>
	
		<ellipse transform="matrix(0.766 -0.6428 0.6428 0.766 65.1604 -527.9507)" class="st17" cx="-692.686" cy="-353.489" rx="4.913" ry="9.176"/>
	
		<ellipse transform="matrix(0.5 -0.866 0.866 0.5 -45.9738 -777.603)" class="st30" cx="-696.411" cy="-348.987" rx="4.913" ry="9.176"/>
	
		<ellipse transform="matrix(0.1736 -0.9848 0.9848 0.1736 -238.8359 -971.5993)" class="st1" cx="-698.371" cy="-343.483" rx="4.913" ry="9.176"/>
	
		<ellipse transform="matrix(0.9848 -0.1736 0.1736 0.9848 48.0214 -126.3934)" class="st17" cx="-698.331" cy="-337.64" rx="9.176" ry="4.913"/>
	
		<ellipse transform="matrix(0.866 -0.5 0.5 0.866 72.7959 -392.649)" class="st30" cx="-696.295" cy="-332.164" rx="9.176" ry="4.913"/>
	
		<ellipse transform="matrix(0.6428 -0.766 0.766 0.6428 3.6705 -647.5557)" class="st27" cx="-692.509" cy="-327.714" rx="9.176" ry="4.913"/>
	
		<ellipse transform="matrix(0.342 -0.9397 0.9397 0.342 -147.0765 -859.7011)" class="st17" cx="-687.428" cy="-324.827" rx="9.176" ry="4.913"/>
	<ellipse class="st1" cx="-681.667" cy="-323.852" rx="4.913" ry="9.176"/>
	
		<ellipse transform="matrix(0.9397 -0.342 0.342 0.9397 70.3615 -250.7727)" class="st27" cx="-675.92" cy="-324.906" rx="4.913" ry="9.176"/>
	
		<ellipse transform="matrix(0.766 -0.6428 0.6428 0.766 53.7897 -507.939)" class="st30" cx="-670.881" cy="-327.863" rx="4.913" ry="9.176"/>
	
		<ellipse transform="matrix(0.5 -0.866 0.866 0.5 -45.7421 -743.956)" class="st1" cx="-667.156" cy="-332.364" rx="4.913" ry="9.176"/>
	
		<ellipse transform="matrix(0.1736 -0.9848 0.9848 0.1736 -216.95 -934.2876)" class="st17" cx="-665.195" cy="-337.868" rx="4.913" ry="9.176"/>
	
		<ellipse transform="matrix(0.9848 -0.1736 0.1736 0.9848 49.5784 -120.7387)" class="st1" cx="-665.236" cy="-343.711" rx="9.176" ry="4.913"/>
	
		<ellipse transform="matrix(0.866 -0.5 0.5 0.866 85.1964 -380.4181)" class="st17" cx="-667.272" cy="-349.188" rx="9.176" ry="4.913"/>
	
		<ellipse transform="matrix(0.6428 -0.766 0.766 0.6428 31.1919 -640.3842)" class="st27" cx="-671.058" cy="-353.638" rx="9.176" ry="4.913"/>
	
		<ellipse transform="matrix(0.342 -0.9397 0.9397 0.342 -109.8622 -869.9479)" class="st30" cx="-676.138" cy="-356.524" rx="9.176" ry="4.913"/>
	<g>
		<path class="st12" d="M-679.984-342.261c0.554-2.818-1.138-6.544-2.569-9.059c-5.069,0.4-9.059,4.638-9.059,9.81
			c0,5.437,4.407,9.844,9.844,9.844c0.294,0,0.585-0.015,0.873-0.041C-682.279-334.848-680.752-338.35-679.984-342.261z"/>
		<path class="st12" d="M-671.924-341.51c0-5.437-4.407-9.844-9.844-9.844c-0.264,0-0.525,0.013-0.784,0.034
			c1.43,2.515,3.122,6.241,2.569,9.059c-0.768,3.911-2.295,7.413-0.912,10.554C-675.868-332.149-671.924-336.368-671.924-341.51z"/>
	</g>
	<g>
		<circle class="st41" cx="-685.225" cy="-342.372" r="0.665"/>
		<circle class="st41" cx="-677.755" cy="-342.372" r="0.665"/>
	</g>
	<path class="st42" d="M-684.411-337.589c0,0,3.087,1.919,6.09,0"/>
</g>
<path class="st6" d="M-689.601-293.986c1.781-1.298,3.973-2.064,6.34-2.064c2.175,0,4.201,0.647,5.897,1.758"/>
<path class="st6" d="M-663.453-274.183c0.831,1.528,1.304,3.279,1.304,5.138c0,2.509-0.861,4.821-2.303,6.656"/>
<path class="st6" d="M-702.437-274.183c-0.831,1.528-1.304,3.279-1.304,5.138c0,2.509,0.861,4.821,2.303,6.656"/>
<rect x="-708.479" y="-630.719" class="st43" width="52" height="52"/>
<rect x="-708.479" y="-564.556" class="st43" width="52" height="52"/>
<rect x="-708.479" y="-498.393" class="st43" width="52" height="52"/>
<rect x="-708.479" y="-432.23" class="st43" width="52" height="52"/>
<rect x="-708.479" y="-366.067" class="st43" width="52" height="52"/>
<rect x="-709.436" y="-303.502" class="st43" width="52" height="52"/>
<rect x="-709.436" y="-236.589" class="st43" width="52" height="52"/>
<rect x="-709.436" y="-179.654" class="st43" width="52" height="52"/>
<rect x="-709.436" y="-116.263" class="st43" width="52" height="52"/>
<rect x="-709.436" y="-56.523" class="st43" width="52" height="52"/>
<rect x="-709.436" y="7.39" class="st43" width="52" height="52"/>
<rect x="-709.436" y="68.694" class="st43" width="52" height="52"/>
<g>
	<path class="st27" d="M338.765-762.824L338.765-762.824c-0.68,0-1.276-0.453-1.458-1.108l-5.946-21.352h3.503
		c2.991,0,5.415,2.425,5.415,5.415v15.53C340.279-763.502,339.601-762.824,338.765-762.824z"/>
	<path class="st27" d="M303.297-762.824L303.297-762.824c0.68,0,1.276-0.453,1.458-1.108l5.946-21.352h-3.503
		c-2.991,0-5.415,2.425-5.415,5.415v15.53C301.783-763.502,302.46-762.824,303.297-762.824z"/>
	<path class="st27" d="M308.054-780.061v7.584c0,6.123,4.964,11.087,11.087,11.087h1.89h1.89c6.123,0,11.087-4.964,11.087-11.087
		v-7.584"/>
	<rect x="317.355" y="-760.653" class="st44" width="7.352" height="5.656"/>
	<path class="st44" d="M321.031-759.517L321.031-759.517c-5.788,0-10.481-4.692-10.481-10.481v-6.056
		c0-5.788,4.692-10.481,10.481-10.481h0c5.788,0,10.481,4.692,10.481,10.481v6.056C331.512-764.209,326.819-759.517,321.031-759.517
		z"/>
	<path class="st44" d="M309.371-769.365h1.179v-6.141h-1.179c-1.644,0-2.977,1.333-2.977,2.977v0.188
		C306.395-770.698,307.727-769.365,309.371-769.365z"/>
	<rect x="308.501" y="-775.506" class="st45" width="2.05" height="6.141"/>
	<path class="st44" d="M332.691-769.365h-1.179v-6.141h1.179c1.644,0,2.977,1.333,2.977,2.977v0.188
		C335.667-770.698,334.334-769.365,332.691-769.365z"/>
	
		<rect x="331.512" y="-775.506" transform="matrix(-1 -4.526036e-11 4.526036e-11 -1 665.0727 -1544.871)" class="st45" width="2.05" height="6.141"/>
	<path class="st45" d="M327.624-784.761c1.111,1.538,1.773,3.421,1.773,5.464v8.316c0,5.164-4.187,9.351-9.351,9.351h-2.259
		c-2.042,0-3.926-0.662-5.464-1.773c1.698,2.351,4.456,3.887,7.578,3.887h2.259c5.164,0,9.351-4.187,9.351-9.351v-8.316
		C331.511-780.305,329.976-783.063,327.624-784.761z"/>
	<line class="st46" x1="317.97" y1="-774.955" x2="317.97" y2="-773.762"/>
	<line class="st46" x1="324.091" y1="-774.955" x2="324.091" y2="-773.762"/>
	<ellipse class="st47" cx="321.031" cy="-771.156" rx="1.571" ry="0.843"/>
	<path class="st44" d="M323.951-767.21c0,0.465-1.307,0.843-2.92,0.843s-2.92-0.377-2.92-0.843"/>
	<path class="st44" d="M335.82-746.709h-29.578v-0.466c0-4.32,3.502-7.822,7.822-7.822h13.934c4.32,0,7.822,3.502,7.822,7.822
		V-746.709z"/>
	<rect x="322.409" y="-759.517" class="st45" width="2.298" height="4.519"/>
	<path class="st27" d="M330.286-754.997h-2.499c3.056,0,5.534,2.478,5.534,5.534v2.754h2.499v-2.754
		C335.82-752.52,333.342-754.997,330.286-754.997z"/>
	<path class="st27" d="M334.008-780.061c0-6.281-5.092-11.372-11.372-11.372h-3.209c-6.281,0-11.372,5.091-11.372,11.372"/>
	<polyline class="st44" points="310.55,-780.061 323.47,-780.061 324.994,-783.572 326.519,-780.061 331.512,-780.061 	"/>
</g>
<g>
	<g>
		<g>
			<g>
				<path class="st5" d="M433.711-789.533c0-1.774-1.438-3.212-3.213-3.212h-29.554c-1.774,0-3.213,1.438-3.213,3.212v3.534h35.98
					V-789.533z"/>
				<path class="st5" d="M397.731-785.999v27.948c0,1.774,1.439,3.212,3.213,3.212h29.554c1.775,0,3.213-1.438,3.213-3.212v-27.948
					H397.731z"/>
			</g>
			<g>
				<line class="st48" x1="404.118" y1="-779.21" x2="427.326" y2="-779.21"/>
				<path class="st20" d="M411.567-779.21c0,1.266-1.027,2.292-2.293,2.292c-1.265,0-2.292-1.026-2.292-2.292
					s1.026-2.292,2.292-2.292C410.541-781.502,411.567-780.475,411.567-779.21z"/>
				<line class="st48" x1="404.118" y1="-770.901" x2="427.326" y2="-770.901"/>
				<path class="st20" d="M421.881-770.901c0,1.266-1.026,2.292-2.292,2.292c-1.265,0-2.292-1.026-2.292-2.292
					s1.027-2.291,2.292-2.291C420.856-773.192,421.881-772.167,421.881-770.901z"/>
				<line class="st48" x1="404.118" y1="-762.591" x2="427.326" y2="-762.591"/>
				<path class="st20" d="M416.438-762.591c0,1.266-1.027,2.292-2.293,2.292c-1.266,0-2.292-1.026-2.292-2.292
					c0-1.266,1.026-2.292,2.292-2.292C415.412-764.883,416.438-763.857,416.438-762.591z"/>
			</g>
		</g>
		<g>
			<line class="st49" x1="430.258" y1="-790.497" x2="430.258" y2="-788.569"/>
			<line class="st49" x1="427.688" y1="-790.497" x2="427.688" y2="-788.569"/>
			<line class="st49" x1="425.118" y1="-790.497" x2="425.118" y2="-788.569"/>
			<line class="st49" x1="422.547" y1="-790.497" x2="422.547" y2="-788.569"/>
		</g>
	</g>
	<g>
		<rect x="387.551" y="-759.557" class="st50" width="23.6" height="14.16"/>
		<g>
			<g>
				<line class="st48" x1="391.92" y1="-755.903" x2="391.92" y2="-751.358"/>
				<line class="st48" x1="394.893" y1="-755.903" x2="394.893" y2="-751.358"/>
				<line class="st48" x1="397.864" y1="-755.903" x2="397.864" y2="-751.358"/>
				<line class="st48" x1="400.836" y1="-755.903" x2="400.836" y2="-751.358"/>
				<line class="st48" x1="403.808" y1="-755.903" x2="403.808" y2="-751.358"/>
				<line class="st48" x1="406.78" y1="-755.903" x2="406.78" y2="-751.358"/>
			</g>
			<g>
				<line class="st48" x1="391.92" y1="-750.1" x2="391.92" y2="-749.052"/>
				<line class="st48" x1="394.893" y1="-750.1" x2="394.893" y2="-749.052"/>
				<line class="st48" x1="397.864" y1="-750.1" x2="397.864" y2="-749.052"/>
				<line class="st48" x1="400.836" y1="-750.1" x2="400.836" y2="-749.052"/>
				<line class="st48" x1="403.808" y1="-750.1" x2="403.808" y2="-749.052"/>
				<line class="st48" x1="406.78" y1="-750.1" x2="406.78" y2="-749.052"/>
			</g>
		</g>
	</g>
</g>
<g>
	<g>
		<path class="st51" d="M503.481-759.114l0.735,8.534c0.003,0.017,0.005,0.034,0.005,0.05c0.009,0.916-0.413,1.77-1.186,2.408
			c-0.735,0.604-1.705,0.94-2.735,0.951c-1.154,0.014-2.249-0.395-3.006-1.118l0,0c-0.625-0.595-0.974-1.364-0.98-2.162
			c-0.001-0.017,0-0.032,0-0.049l0.535-8.625"/>
		<path class="st52" d="M500.241-746.584c-1.279,0-2.498-0.465-3.352-1.28c-0.741-0.706-1.154-1.623-1.162-2.581
			c0-0.014,0-0.076,0.001-0.09l0.535-8.624c0.021-0.324,0.274-0.566,0.623-0.55c0.323,0.02,0.569,0.299,0.55,0.622l-0.535,8.625
			c0.005,0.646,0.289,1.264,0.798,1.749c0.65,0.62,1.565,0.966,2.594,0.956c0.897-0.009,1.738-0.3,2.369-0.818
			c0.634-0.523,0.98-1.214,0.972-1.948l-0.738-8.54c-0.028-0.323,0.211-0.608,0.534-0.635c0.326-0.026,0.609,0.212,0.635,0.534
			l0.735,8.534c0.002,0.017,0.007,0.084,0.007,0.101c0.011,1.09-0.486,2.107-1.4,2.86c-0.837,0.689-1.938,1.074-3.103,1.085
			C500.283-746.584,500.262-746.584,500.241-746.584z"/>
	</g>
	<g>
		<path class="st17" d="M489.801-763.219c-3.14-2.84-4.953-6.734-5.103-10.964c-0.309-8.566,6.409-15.785,14.975-16.094
			c4.068-0.146,7.97,1.276,10.99,4.008c3.137,2.844,4.949,6.737,5.102,10.968c0.15,4.15-1.327,8.109-4.154,11.147
			c-2.83,3.039-6.672,4.796-10.822,4.946C496.719-759.062,492.819-760.485,489.801-763.219z"/>
		<path class="st17" d="M500.22-758.61c-4.002,0-7.842-1.482-10.813-4.173c-3.259-2.948-5.14-6.99-5.296-11.379
			c-0.154-4.299,1.378-8.406,4.316-11.564c2.938-3.158,6.925-4.982,11.224-5.137c4.228-0.152,8.286,1.338,11.406,4.158
			c3.256,2.951,5.136,6.994,5.294,11.383c0.156,4.304-1.375,8.413-4.31,11.568c-2.937,3.154-6.925,4.976-11.23,5.131
			C500.613-758.614,500.416-758.61,500.22-758.61z"/>
	</g>
	<g>
		<path class="st51" d="M511.963-775.175c0.232,6.467-4.822,11.896-11.285,12.129c-6.465,0.231-11.897-4.82-12.126-11.287
			c-0.234-6.464,4.819-11.894,11.284-12.125C506.301-786.692,511.73-781.639,511.963-775.175z"/>
		<path class="st52" d="M500.25-762.451c-6.654,0-12.051-5.21-12.287-11.86c-0.119-3.282,1.049-6.416,3.287-8.821
			c2.239-2.406,5.28-3.794,8.564-3.912c0.15-0.005,0.301-0.008,0.451-0.008c6.649,0,12.045,5.207,12.285,11.856
			c0.243,6.779-5.073,12.492-11.851,12.738C500.549-762.454,500.399-762.451,500.25-762.451z M500.265-785.879
			c-0.135,0-0.273,0.002-0.409,0.007c-2.97,0.106-5.721,1.363-7.746,3.538c-2.025,2.176-3.08,5.01-2.973,7.979
			c0.219,6.151,5.288,10.945,11.519,10.721c6.13-0.222,10.94-5.391,10.719-11.521C511.16-781.168,506.279-785.879,500.265-785.879z"
			/>
	</g>
	<g>
		<path class="st51" d="M501.165-750.446c-0.459,0.482-1.217,0.499-1.698,0.04c-0.478-0.456-0.495-1.215-0.04-1.694
			c0.459-0.479,1.215-0.498,1.697-0.04C501.602-751.684,501.619-750.924,501.165-750.446z"/>
		<path class="st52" d="M500.296-749.486c-0.462,0-0.9-0.176-1.235-0.495c-0.711-0.679-0.738-1.81-0.06-2.523
			c0.657-0.687,1.839-0.715,2.526-0.062c0.712,0.68,0.739,1.812,0.063,2.525C501.249-749.683,500.789-749.486,500.296-749.486z
			 M500.296-751.884c-0.17,0-0.328,0.067-0.446,0.191c-0.231,0.243-0.222,0.63,0.021,0.862c0.238,0.228,0.641,0.219,0.868-0.02
			c0.232-0.243,0.222-0.632-0.021-0.865C500.604-751.825,500.454-751.884,500.296-751.884z"/>
	</g>
	<path class="st52" d="M491.927-773.472c-0.27,0-0.512-0.187-0.572-0.461c-0.123-0.56-0.185-1.14-0.185-1.724
		c0-4.565,3.807-8.278,8.486-8.278c0.324,0,0.587,0.263,0.587,0.587c0,0.324-0.263,0.587-0.587,0.587
		c-4.032,0-7.312,3.187-7.312,7.104c0,0.5,0.053,0.995,0.157,1.472c0.07,0.317-0.131,0.63-0.448,0.699
		C492.011-773.475,491.969-773.472,491.927-773.472z"/>
	<g>
		<path class="st53" d="M514.621-784.102c0,0-4.326-0.255-6.109-6.87c0,0-0.379,5.089-5.595,6.87c0,0,4.832,1.145,5.595,8.141
			C508.512-775.961,509.532-782.957,514.621-784.102z"/>
		<path class="st52" d="M508.512-775.374c-0.004,0-0.007,0-0.011,0c-0.295-0.006-0.541-0.23-0.573-0.524
			c-0.71-6.507-5.103-7.622-5.147-7.633c-0.255-0.06-0.439-0.281-0.451-0.543c-0.013-0.261,0.149-0.5,0.397-0.584
			c4.793-1.637,5.196-6.312,5.199-6.358c0.021-0.286,0.245-0.514,0.53-0.541c0.271-0.024,0.548,0.154,0.622,0.431
			c1.639,6.085,5.42,6.426,5.58,6.438c0.29,0.021,0.524,0.252,0.545,0.542c0.022,0.29-0.17,0.553-0.454,0.617
			c-4.642,1.044-5.647,7.586-5.657,7.652C509.051-775.588,508.803-775.374,508.512-775.374z M504.42-784.102
			c1.306,0.726,3.208,2.296,4.172,5.527c0.66-1.851,1.915-4.242,4.206-5.471c-1.286-0.616-2.995-1.949-4.193-4.823
			C508.05-787.358,506.877-785.363,504.42-784.102z"/>
	</g>
</g>
<g>
	<path class="st35" d="M234.236-709.244v7.305c-3.685-0.535-6.156,1.986-6.669,2.563c-0.512-0.578-2.983-3.099-6.669-2.563v-7.305
		c0,0-8.512-0.536-10.924,11.126l2.212,3.619c0,0,3.82-3.955,6.233-3.955s2.011,8.579,2.011,8.579s-6.635,4.357-1.542,26.072
		c0,0,5.034,0.581,8.579,0.602v0.001c0.033,0,0.067,0,0.1,0c0.033,0,0.067,0,0.1,0v-0.001c3.545-0.022,8.579-0.602,8.579-0.602
		c5.094-21.715-1.542-26.072-1.542-26.072s-0.402-8.579,2.011-8.579c2.413,0,6.233,3.955,6.233,3.955l2.212-3.619
		C242.748-709.78,234.236-709.244,234.236-709.244z"/>
	<g>
		<g>
			<path class="st1" d="M239.297-683.697c0.684-0.05,1.639,0.305,2.124,0.79l11.103,11.103c0.485,0.485,0.485,1.278,0,1.762
				l-3.657,3.657c-0.485,0.484-1.278,1.278-1.762,1.762l-3.657,3.657c-0.484,0.485-1.278,0.485-1.762,0l-11.103-11.103
				c-0.485-0.484-0.84-1.44-0.79-2.124l0.565-7.604c0.051-0.684,0.651-1.284,1.335-1.335L239.297-683.697z"/>
			<path class="st1" d="M232.3-681.189c0.414-0.414,1.084-0.414,1.498,0c0.414,0.414,0.414,1.084,0,1.498
				c-0.414,0.414-1.084,0.414-1.498,0C231.887-680.105,231.887-680.775,232.3-681.189z"/>
			<line class="st1" x1="232.477" y1="-681.013" x2="224.691" y2="-688.798"/>
			<path class="st7" d="M237.015-679.383c0.195-0.195,0.51-0.195,0.705,0l9.34,9.34c0.195,0.195,0.195,0.51,0,0.705l-2.908,2.908
				c-0.194,0.194-0.51,0.194-0.705,0l-9.34-9.34c-0.194-0.194-0.195-0.51,0-0.705L237.015-679.383z"/>
		</g>
		<line class="st1" x1="229.761" y1="-680.42" x2="221.643" y2="-681.079"/>
	</g>
</g>
<g>
	<g>
		<g>
			<g>
				<path class="st54" d="M301.777-700.26c-0.081,0-0.161,0.007-0.241,0.012v28.675c0.08-0.005,0.159-0.012,0.241-0.012h27.689
					v-28.675H301.777z"/>
				<path class="st55" d="M297.669-696.152v28.675c0-2.187,1.711-3.971,3.868-4.096v-28.675
					C299.38-700.123,297.669-698.34,297.669-696.152z"/>
			</g>
			<path class="st56" d="M301.777-700.26c-2.269,0-4.108,1.839-4.108,4.108v28.675c0-2.269,1.84-4.108,4.108-4.108h27.689v-28.675
				H301.777z"/>
			<path class="st56" d="M297.669-667.477v0.518c0,2.269,1.84,4.108,4.108,4.108h27.689v-8.734h-27.689
				C299.508-671.585,297.669-669.746,297.669-667.477z"/>
			<line class="st56" x1="329.477" y1="-668.651" x2="302.517" y2="-668.651"/>
			<line class="st56" x1="329.477" y1="-665.955" x2="302.517" y2="-665.955"/>
		</g>
		<rect x="306.893" y="-695.944" class="st57" width="17.266" height="6.309"/>
	</g>
	<g>
		<g>
			<g>
				<path class="st58" d="M341.261-706.713c0.573,0.783,0.915,1.746,0.915,2.791v20.314c0,2.617-2.122,4.739-4.739,4.739h-13.662
					c-0.565,0-1.104-0.104-1.607-0.286c0.862,1.179,2.252,1.949,3.824,1.949h13.662c2.617,0,4.739-2.122,4.739-4.739v-20.313
					C344.393-704.312,343.086-706.054,341.261-706.713z"/>
				<path class="st59" d="M341.261-706.713c-0.503-0.182-1.042-0.286-1.607-0.286h-13.662c-2.617,0-4.739,2.122-4.739,4.739v11.888
					l-4.988,4.988l-1.663,1.663h6.651v1.773c0,1.045,0.342,2.008,0.915,2.791c0.503,0.182,1.042,0.286,1.607,0.286h13.662
					c2.617,0,4.739-2.122,4.739-4.739v-20.314C342.176-704.967,341.834-705.93,341.261-706.713z"/>
			</g>
			<path class="st56" d="M339.654-706.998h-13.662c-2.617,0-4.739,2.122-4.739,4.739v11.888l-6.651,6.652h6.651v1.773
				c0,2.617,2.122,4.739,4.739,4.739h13.662c2.617,0,4.739-2.122,4.739-4.739v-20.313
				C344.393-704.876,342.271-706.998,339.654-706.998z"/>
		</g>
		<g>
			<line class="st56" x1="327.13" y1="-700.11" x2="338.85" y2="-700.11"/>
			<line class="st56" x1="327.13" y1="-696.23" x2="338.85" y2="-696.23"/>
			<line class="st56" x1="327.13" y1="-692.351" x2="338.85" y2="-692.351"/>
			<line class="st56" x1="327.13" y1="-688.471" x2="338.85" y2="-688.471"/>
			<line class="st56" x1="327.13" y1="-684.591" x2="338.85" y2="-684.591"/>
		</g>
	</g>
</g>
<g>
	<g>
		<rect x="391.994" y="-708.534" class="st56" width="16.67" height="4.972"/>
		<polygon class="st56" points="408.665,-703.562 391.994,-703.562 389.362,-699.023 411.299,-699.023 		"/>
		<rect x="389.362" y="-699.023" class="st56" width="21.938" height="23.615"/>
	</g>
	<g>
		<path class="st60" d="M431.897-671.744c-0.003,0.445-0.094,0.88-0.257,1.303c-1.35,3.492-7.949,6.141-15.891,6.141
			c-7.944,0-14.544-2.652-15.893-6.146c-0.162-0.421-0.253-0.855-0.254-1.299h-0.001v3.979c1.084,3.641,7.898,6.448,16.147,6.449
			c8.256,0.003,15.075-2.806,16.152-6.449v-3.979H431.897z"/>
		<path class="st61" d="M431.899-671.55c0,4.122-7.23,7.463-16.149,7.463c-8.918,0-16.148-3.342-16.148-7.463
			c0-4.123,7.23-7.463,16.148-7.463C424.669-679.013,431.899-675.673,431.899-671.55z"/>
	</g>
	<g>
		<path class="st60" d="M431.897-676.557c-0.003,0.445-0.094,0.88-0.257,1.303c-1.35,3.492-7.949,6.142-15.891,6.142
			c-7.944,0-14.544-2.652-15.893-6.145c-0.162-0.421-0.253-0.856-0.254-1.299h-0.001v3.98c1.084,3.641,7.898,6.447,16.147,6.449
			c8.256,0.002,15.075-2.807,16.152-6.45v-3.979H431.897z"/>
		<path class="st61" d="M431.899-676.362c0,4.122-7.23,7.463-16.149,7.463c-8.918,0-16.148-3.341-16.148-7.463
			c0-4.122,7.23-7.464,16.148-7.464C424.669-683.826,431.899-680.484,431.899-676.362z"/>
	</g>
	<g>
		<path class="st60" d="M431.897-681.369c-0.003,0.445-0.094,0.881-0.257,1.303c-1.35,3.491-7.949,6.141-15.891,6.141
			c-7.944,0-14.544-2.652-15.893-6.145c-0.162-0.422-0.253-0.856-0.254-1.3h-0.001v3.98c1.084,3.641,7.898,6.447,16.147,6.449
			c8.256,0.003,15.075-2.806,16.152-6.45v-3.979H431.897z"/>
		<path class="st61" d="M431.899-681.174c0,4.121-7.23,7.463-16.149,7.463c-8.918,0-16.148-3.341-16.148-7.463
			c0-4.123,7.23-7.464,16.148-7.464C424.669-688.638,431.899-685.297,431.899-681.174z"/>
	</g>
	<g>
		<path class="st60" d="M431.897-686.181c-0.003,0.445-0.094,0.88-0.257,1.303c-1.35,3.492-7.949,6.141-15.891,6.141
			c-7.944,0-14.544-2.652-15.893-6.144c-0.162-0.422-0.253-0.857-0.254-1.3h-0.001v3.98c1.084,3.64,7.898,6.447,16.147,6.448
			c8.256,0.003,15.075-2.806,16.152-6.45v-3.978H431.897z"/>
		<g>
			<path class="st62" d="M428.643-690.481c0.047,0.231,0.073,0.465,0.073,0.702c0,4.121-7.231,7.463-16.149,7.463
				c-5.268,0-9.945-1.166-12.892-2.97c0.765,3.792,7.668,6.762,16.075,6.762c8.918,0,16.149-3.342,16.149-7.463
				C431.899-687.674,430.686-689.231,428.643-690.481z"/>
			<path class="st63" d="M428.716-689.778c0-0.237-0.027-0.471-0.073-0.702c-2.948-1.803-7.625-2.969-12.893-2.969
				c-8.918,0-16.148,3.341-16.148,7.464c0,0.236,0.027,0.47,0.073,0.701c2.948,1.804,7.625,2.97,12.892,2.97
				C421.486-682.315,428.716-685.657,428.716-689.778z"/>
		</g>
		<path class="st56" d="M431.899-685.986c0,4.121-7.23,7.463-16.149,7.463c-8.918,0-16.148-3.342-16.148-7.463
			c0-4.123,7.23-7.464,16.148-7.464C424.669-693.45,431.899-690.109,431.899-685.986z"/>
	</g>
	<g>
		<rect x="411.913" y="-695.247" class="st61" width="7.675" height="9.948"/>
		<rect x="411.913" y="-689.503" class="st61" width="7.675" height="4.203"/>
	</g>
</g>
<g>
	<g>
		<g>
			<line class="st64" x1="518.657" y1="-707.543" x2="521.942" y2="-707.543"/>
			<line class="st64" x1="520.3" y1="-705.9" x2="520.3" y2="-709.186"/>
		</g>
		<g>
			<line class="st64" x1="486.658" y1="-683.695" x2="489.944" y2="-683.695"/>
			<line class="st64" x1="488.301" y1="-682.052" x2="488.301" y2="-685.338"/>
		</g>
		<g>
			<g>
				<path class="st65" d="M512.016-660.851c-1.796-10.512,0-14.979,0-14.979c2.155-2.605,2.783-4.558,2.783-4.558v-8.745
					c0.18-2.512,3.502-4.093,3.502-4.093h1.616c3.681-1.581,2.873-4.838,2.873-4.838h-3.681c-1.796-3.349-4.669-3.535-4.669-3.535
					c-0.539-2.698-2.334-3.21-2.334-3.21s-0.269,2.651-0.943,3.907c0,0-3.232,3.907-3.636,7.954l-10.504,13.675
					c0,0-2.963,2.651-2.963,8.931c0,0,0.539,6.488-7.407,4.116c0,0-3.906-1.256-2.155-6.279c0,0,0.673-2.791,2.02-3.628
					c-0.171,0.025-6.507,1.851-4.882,10.187c0,0,0.393,4.279,5.78,4.465c0,0,8.786,0.645,10.953-2.348v2.783L512.016-660.851z"/>
			</g>
		</g>
		<g>
			<g>
				<path class="st66" d="M509.581-660.851c-1.874-10.588,0-15.087,0-15.087c2.249-2.624,2.905-4.591,2.905-4.591v-8.808
					c0.187-2.53,3.654-4.123,3.654-4.123h1.687c3.842-1.593,2.998-4.872,2.998-4.872h-3.842c-1.874-3.373-4.872-3.561-4.872-3.561
					c-0.562-2.717-2.436-3.233-2.436-3.233s-0.281,2.67-0.984,3.935c0,0-3.373,3.935-3.795,8.011l-10.963,13.774
					c0,0-3.092,2.671-3.092,8.995c0,0,0.562,6.535-7.73,4.146c0,0-4.076-1.265-2.249-6.325c0,0,0.703-2.811,2.108-3.654
					c-0.178,0.025-6.791,1.865-5.095,10.26c0,0,0.41,4.31,6.032,4.498c0,0,9.169,0.65,11.432-2.365"/>
				<path class="st66" d="M498.149-675.048c0,0,6.887,1.031,6.606,14.384h-8.539c0,0-0.196-3.9-2.257-3.9"/>
				<line class="st66" x1="514.453" y1="-660.664" x2="504.052" y2="-660.664"/>
				<polyline class="st66" points="512.485,-689.337 505.27,-693.273 482.867,-700.13 				"/>
				<line class="st66" x1="517.47" y1="-660.664" x2="515.593" y2="-660.664"/>
			</g>
			<circle class="st67" cx="513.63" cy="-698.513" r="0.612"/>
			<circle class="st67" cx="505.631" cy="-691.411" r="0.394"/>
			<circle class="st67" cx="507.385" cy="-690.469" r="0.394"/>
			<circle class="st67" cx="509.14" cy="-689.527" r="0.394"/>
			<circle class="st67" cx="510.894" cy="-688.585" r="0.394"/>
			<circle class="st68" cx="520.513" cy="-698.059" r="1.322"/>
		</g>
	</g>
	<line class="st66" x1="503.143" y1="-691.073" x2="512.149" y2="-686.193"/>
</g>
<g>
	<ellipse class="st23" cx="591.039" cy="-877.235" rx="4.913" ry="9.176"/>
	
		<ellipse transform="matrix(0.9397 -0.342 0.342 0.9397 334.969 147.3416)" class="st27" cx="585.292" cy="-876.181" rx="4.913" ry="9.176"/>
	
		<ellipse transform="matrix(0.766 -0.6428 0.6428 0.766 697.0514 168.6833)" class="st17" cx="580.252" cy="-873.225" rx="4.913" ry="9.176"/>
	
		<ellipse transform="matrix(0.5 -0.866 0.866 0.5 1040.6001 64.926)" class="st30" cx="576.528" cy="-868.723" rx="4.913" ry="9.176"/>
	
		<ellipse transform="matrix(0.1736 -0.9848 0.9848 0.1736 1324.8993 -147.4845)" class="st1" cx="574.567" cy="-863.219" rx="4.913" ry="9.176"/>
	
		<ellipse transform="matrix(0.9848 -0.1736 0.1736 0.9848 157.6114 86.754)" class="st17" cx="574.607" cy="-857.376" rx="9.176" ry="4.913"/>
	
		<ellipse transform="matrix(0.866 -0.5 0.5 0.866 503.2054 174.1888)" class="st30" cx="576.643" cy="-851.9" rx="9.176" ry="4.913"/>
	
		<ellipse transform="matrix(0.6428 -0.766 0.766 0.6428 856.5209 141.9156)" class="st27" cx="580.43" cy="-847.45" rx="9.176" ry="4.913"/>
	
		<ellipse transform="matrix(0.342 -0.9397 0.9397 0.342 1178.8835 -5.5061)" class="st17" cx="585.51" cy="-844.563" rx="9.176" ry="4.913"/>
	<ellipse class="st1" cx="591.271" cy="-843.588" rx="4.913" ry="9.176"/>
	
		<ellipse transform="matrix(0.9397 -0.342 0.342 0.9397 324.8893 153.254)" class="st27" cx="597.018" cy="-844.642" rx="4.913" ry="9.176"/>
	
		<ellipse transform="matrix(0.766 -0.6428 0.6428 0.766 685.6807 188.6949)" class="st30" cx="602.058" cy="-847.599" rx="4.913" ry="9.176"/>
	<ellipse transform="matrix(0.5 -0.866 0.866 0.5 1040.8319 98.573)" class="st1" cx="605.783" cy="-852.1" rx="4.913" ry="9.176"/>
	
		<ellipse transform="matrix(0.1736 -0.9848 0.9848 0.1736 1346.7853 -110.1728)" class="st17" cx="607.743" cy="-857.604" rx="4.913" ry="9.176"/>
	
		<ellipse transform="matrix(0.9848 -0.1736 0.1736 0.9848 159.1684 92.4088)" class="st1" cx="607.703" cy="-863.447" rx="9.176" ry="4.913"/>
	
		<ellipse transform="matrix(0.866 -0.5 0.5 0.866 515.6059 186.4197)" class="st17" cx="605.667" cy="-868.924" rx="9.176" ry="4.913"/>
	
		<ellipse transform="matrix(0.6428 -0.766 0.766 0.6428 884.0422 149.0872)" class="st27" cx="601.88" cy="-873.374" rx="9.176" ry="4.913"/>
	
		<ellipse transform="matrix(0.342 -0.9397 0.9397 0.342 1216.0979 -15.7528)" class="st30" cx="596.8" cy="-876.26" rx="9.176" ry="4.913"/>
	<g>
		<path class="st12" d="M592.955-861.997c0.553-2.818-1.138-6.544-2.569-9.059c-5.07,0.4-9.06,4.638-9.06,9.81
			c0,5.437,4.407,9.844,9.844,9.844c0.294,0,0.585-0.015,0.872-0.041C590.66-854.584,592.186-858.086,592.955-861.997z"/>
		<path class="st12" d="M601.014-861.246c0-5.437-4.407-9.844-9.844-9.844c-0.264,0-0.525,0.013-0.784,0.034
			c1.43,2.515,3.122,6.241,2.569,9.059c-0.768,3.911-2.295,7.413-0.912,10.554C597.07-851.885,601.014-856.104,601.014-861.246z"/>
	</g>
	<g>
		<circle class="st41" cx="587.714" cy="-862.108" r="0.665"/>
		<circle class="st41" cx="595.183" cy="-862.108" r="0.665"/>
	</g>
	<path class="st42" d="M588.527-857.325c0,0,3.087,1.919,6.09,0"/>
</g>
<g>
	<g>
		<path class="st69" d="M119.453-839.266c-0.002-7.735-3.875-14.01-8.656-14.009c-4.777-0.002-8.656,6.272-8.654,14.008
			c0,6.562,2.787,12.055,6.549,13.578l-1.84,31.922c0,0,0.137,3.451,3.443,3.29c0,0,2.576,0.081,2.721-3.085l-0.764-30.055
			c0,0-0.023-1.21-0.012-1.848C116.33-826.576,119.453-832.325,119.453-839.266z"/>
		<path class="st70" d="M110.795-853.275c0,0,0.001,0,0.002,0s0,0,0.001,0c4.78,0,8.653,6.274,8.655,14.009
			c0,6.941-3.123,12.69-7.213,13.802c-0.012,0.638,0.012,1.848,0.012,1.848l0.764,30.055c-0.138,3.012-2.476,3.085-2.703,3.085
			c-0.012,0-0.018,0-0.018,0c-0.075,0.004-0.149,0.005-0.222,0.005c-3.091,0-3.222-3.295-3.222-3.295l1.84-31.922
			c-3.762-1.523-6.549-7.016-6.549-13.578C102.141-847.002,106.018-853.276,110.795-853.275 M110.798-855.775L110.798-855.775
			c-3.213,0-6.141,1.878-8.248,5.289c-1.876,3.036-2.908,7.021-2.907,11.219c0,6.652,2.535,12.406,6.462,15.02l-1.749,30.336
			c-0.004,0.081-0.005,0.162-0.002,0.243c0.091,2.29,1.689,5.696,5.72,5.696c0.09,0,0.182-0.002,0.274-0.005
			c2.375-0.017,4.994-1.73,5.165-5.471c0.003-0.06,0.004-0.119,0.002-0.178l-0.764-30.055l0,0c0,0-0.001-0.043-0.002-0.116
			c4.323-2.332,7.204-8.348,7.204-15.47C121.951-848.524,117.051-855.775,110.798-855.775L110.798-855.775z"/>
	</g>
</g>
<g>
	<g>
		<path class="st71" d="M78.387-851.877l-1.404,14.595c0,0-0.621,5.036-0.025,6.55c0,0,0.91,2.718,2.953,4.066
			c0,0,2.238,1.797,2.15,3.072l-2.004,30.018c0,0,0.141,3.394,3.48,3.236c0,0,2.596,0.079,2.738-3.029l-1.09-29.598
			c0,0-0.037-1.918,1.654-3.223c0,0,3.105-2.322,3.543-4.578c0,0,0.494-1.223,0.189-3.238l-0.842-17.727l-1.248,0.025l-0.58,14.129
			l-1.578-0.018l0.244-14.278l-1.422-0.02l-0.242,14.15l-1.957-0.019l0.244-14.122l-1.381-0.017l-0.238,14.119l-1.914-0.021
			l-0.096-14.091L78.387-851.877z"/>
		<path class="st70" d="M81.811-851.902l1.381,0.017l-0.244,14.122l1.957,0.019l0.242-14.15l1.422,0.02l-0.244,14.278l1.578,0.018
			l0.58-14.129l1.248-0.025l0.842,17.727c0.305,2.016-0.189,3.238-0.189,3.238c-0.438,2.256-3.543,4.578-3.543,4.578
			c-1.691,1.305-1.654,3.223-1.654,3.223l1.09,29.598c-0.136,2.958-2.492,3.029-2.721,3.029c-0.012,0-0.018,0-0.018,0
			c-0.076,0.004-0.15,0.005-0.224,0.005c-3.122,0-3.257-3.242-3.257-3.242l2.004-30.018c0.088-1.275-2.15-3.072-2.15-3.072
			c-2.043-1.349-2.953-4.066-2.953-4.066c-0.596-1.514,0.025-6.55,0.025-6.55l1.404-14.595l1.176-0.018l0.096,14.091l1.914,0.021
			L81.811-851.902 M81.81-854.402c-0.406,0-0.79,0.097-1.131,0.27c-0.344-0.171-0.726-0.263-1.116-0.263c-0.013,0-0.026,0-0.039,0
			l-1.176,0.019c-1.274,0.02-2.327,0.993-2.449,2.26l-1.401,14.562c-0.257,2.097-0.575,5.823,0.107,7.669
			c0.189,0.544,1.311,3.506,3.809,5.225c0.446,0.374,0.935,0.899,1.133,1.209l-1.983,29.709c-0.006,0.09-0.008,0.18-0.004,0.271
			c0.095,2.266,1.705,5.638,5.755,5.638c0.091,0,0.182-0.002,0.274-0.005c2.385-0.016,5.015-1.712,5.185-5.415
			c0.003-0.068,0.004-0.138,0.001-0.206l-1.087-29.516c0.013-0.155,0.098-0.784,0.681-1.233c0.604-0.451,3.734-2.919,4.427-5.879
			c0.198-0.608,0.559-2.082,0.27-4.156l-0.836-17.606c-0.063-1.336-1.165-2.381-2.496-2.381c-0.018,0-0.034,0-0.052,0l-1.248,0.025
			c-0.245,0.005-0.483,0.045-0.705,0.116c-0.344-0.18-0.729-0.278-1.124-0.284l-1.422-0.02c-0.012,0-0.023,0-0.035,0
			c-0.351,0-0.685,0.072-0.987,0.203c-0.294-0.123-0.611-0.19-0.936-0.194l-1.381-0.017C81.83-854.402,81.82-854.402,81.81-854.402
			L81.81-854.402z"/>
	</g>
</g>
<g>
	<path class="st69" d="M115.916-835.844c-0.793,3.606-2.76,6.156-5.061,6.156c-1.396,0-2.67-0.94-3.633-2.482"/>
	<path class="st70" d="M110.856-828.937c-1.612,0-3.128-1.007-4.27-2.836c-0.219-0.351-0.111-0.814,0.239-1.033
		c0.353-0.22,0.815-0.112,1.034,0.239c0.856,1.373,1.921,2.129,2.996,2.129c1.856,0,3.596-2.237,4.328-5.567
		c0.089-0.405,0.488-0.664,0.894-0.571c0.404,0.089,0.66,0.489,0.571,0.893C115.747-831.585,113.474-828.937,110.856-828.937z"/>
</g>
<g>
	<path class="st69" d="M105.449-840.445c0.293-4.868,2.602-8.658,5.406-8.658c2.412,0,4.457,2.804,5.168,6.686"/>
	<path class="st70" d="M105.45-839.695c-0.016,0-0.03,0-0.046-0.001c-0.414-0.025-0.729-0.38-0.704-0.794
		c0.321-5.338,2.968-9.363,6.155-9.363c2.732,0,5.106,2.934,5.905,7.3c0.075,0.408-0.194,0.798-0.603,0.873
		c-0.4,0.075-0.799-0.195-0.872-0.603c-0.655-3.574-2.477-6.071-4.431-6.071c-2.344,0-4.39,3.494-4.657,7.953
		C106.174-840.002,105.844-839.695,105.45-839.695z"/>
</g>
<g>
	<g>
		<path class="st72" d="M2.899-933.406c0,23.832-19.319,43.152-43.153,43.152c-23.832,0-43.152-19.32-43.152-43.152
			c0-23.832,19.32-43.153,43.152-43.153C-16.421-976.559,2.899-957.238,2.899-933.406z"/>
		<path class="st73" d="M-40.254-888.665c-24.67,0-44.741-20.071-44.741-44.741c0-24.671,20.071-44.742,44.741-44.742
			c24.671,0,44.742,20.071,44.742,44.742C4.488-908.736-15.583-888.665-40.254-888.665z M-40.254-974.97
			c-22.917,0-41.563,18.646-41.563,41.564c0,22.918,18.646,41.564,41.563,41.564c22.919,0,41.564-18.645,41.564-41.564
			C1.31-956.324-17.335-974.97-40.254-974.97z"/>
	</g>
	<path class="st51" d="M-7.848-933.406c0,17.897-14.508,32.405-32.407,32.405c-17.897,0-32.405-14.508-32.405-32.405
		s14.508-32.405,32.405-32.405C-22.356-965.811-7.848-951.303-7.848-933.406z"/>
	<g>
		<path class="st74" d="M27.751-974.353v93.194c0,0,0.298,9.798-4.141,9.242c-4.439-0.552-3.624-15.343-3.624-26.436
			c0-11.097,0.983-25.746,0.983-25.746s-13.62-1.548-5.422-36.384C17.767-969.914,23.869-982.674,27.751-974.353z"/>
		<path class="st73" d="M23.968-870.306c-0.18,0-0.364-0.011-0.555-0.035c-5.257-0.654-5.158-11.232-5.044-23.48
			c0.014-1.548,0.029-3.072,0.029-4.533c0-9.132,0.67-20.777,0.906-24.586c-1.187-0.485-2.887-1.52-4.43-3.71
			c-4.436-6.304-4.729-17.81-0.873-34.198c0.042-0.178,4.262-17.787,10.831-17.787c1.775,0,3.242,1.215,4.359,3.61
			c0.098,0.21,0.149,0.44,0.149,0.672v93.194c0.021,0.658,0.135,6.932-2.434,9.58C26.098-870.746,25.082-870.306,23.968-870.306z
			 M24.832-975.458c-1.869,0-5.738,6.842-7.738,15.338c-4.486,19.061-2.328,27.643,0.271,31.486
			c1.776,2.625,3.729,2.947,3.812,2.959c0.817,0.123,1.432,0.857,1.378,1.682c-0.01,0.146-0.979,14.725-0.979,25.64
			c0,1.47-0.015,3.004-0.029,4.562c-0.048,5.095-0.097,10.362,0.338,14.407c0.607,5.662,1.869,5.884,1.923,5.89
			c0.258,0.033,0.482,0.049,0.818-0.297c1.173-1.207,1.606-5.008,1.539-7.321l-0.001-92.874
			C25.609-975.065,25.108-975.458,24.832-975.458z"/>
	</g>
	<g>
		<g>
			<path class="st75" d="M-115.614-946.177v7.472c0,4.963,3.352,9.134,7.912,10.4c-0.135,2.227-0.964,16.377-0.964,27.319
				c0,11.906-0.813,27.778,3.625,28.371c4.439,0.597,4.141-9.918,4.141-9.918l0.004-46.082h-0.079
				c4.071-1.549,6.968-5.476,6.968-10.09v-7.472H-115.614z"/>
			<path class="st73" d="M-104.684-871.001L-104.684-871.001c-0.184,0-0.374-0.012-0.569-0.039
				c-4.888-0.654-5.161-9.911-5.03-25.079c0.014-1.662,0.029-3.299,0.029-4.867c0-9.744,0.643-21.836,0.895-26.201
				c-4.676-1.848-7.843-6.413-7.843-11.518v-7.472c0-0.878,0.711-1.589,1.589-1.589h21.607c0.878,0,1.589,0.711,1.589,1.589v7.472
				c0,4.701-2.724,9.018-6.889,11.092l-0.004,45.08c0.021,0.725,0.136,7.56-2.517,10.289
				C-102.619-871.431-103.607-871.001-104.684-871.001z M-114.025-944.589v5.883c0,4.119,2.775,7.767,6.748,8.87
				c0.722,0.2,1.206,0.878,1.161,1.627c-0.098,1.623-0.961,16.18-0.961,27.222c0,1.577-0.014,3.223-0.029,4.894
				c-0.047,5.474-0.096,11.134,0.339,15.487c0.617,6.168,1.923,6.414,1.936,6.415c0.051,0.007,0.1,0.011,0.146,0.011h0
				c0.158,0,0.338-0.034,0.577-0.28c1.237-1.273,1.691-5.461,1.619-8.029l0.003-45.633c-0.022-0.067-0.04-0.136-0.053-0.207
				c-0.138-0.754,0.281-1.5,0.998-1.772c3.556-1.353,5.944-4.811,5.944-8.605v-5.883H-114.025z"/>
		</g>
		<rect x="-117.203" y="-977.047" class="st73" width="3.177" height="30.869"/>
		<rect x="-110" y="-977.047" class="st73" width="3.177" height="30.869"/>
		<rect x="-102.798" y="-977.047" class="st73" width="3.177" height="30.869"/>
		<rect x="-95.596" y="-977.047" class="st73" width="3.177" height="30.869"/>
	</g>
</g>
<image style="overflow:visible;" width="114" height="70" xlink:href="37291E3C.jpg"  transform="matrix(1 0 0 1 -355.9573 -879.7408)">
</image>
<g class="st76">
	<g>
		<polygon class="st77" points="-29.972,-778.332 -55.597,-778.332 -60.972,-810.332 -24.597,-810.332 		"/>
		<path class="st78" d="M-29.972-775.832h-25.625c-1.221,0-2.263-0.882-2.465-2.086l-5.375-32c-0.122-0.726,0.082-1.468,0.557-2.028
			c0.475-0.562,1.173-0.886,1.909-0.886h36.375c0.735,0,1.434,0.324,1.909,0.886c0.475,0.56,0.679,1.303,0.557,2.028l-5.375,32
			C-27.709-776.713-28.751-775.832-29.972-775.832z M-53.482-780.832h21.394l4.535-27h-30.465L-53.482-780.832z"/>
	</g>
	<g>
		<path class="st51" d="M-42.785-790.662c-49.06,0-88.83,39.77-88.83,88.83h177.66C46.045-750.891,6.275-790.662-42.785-790.662z"/>
		<path class="st78" d="M46.045-699.332h-177.66c-1.381,0-2.5-1.119-2.5-2.5c0-50.359,40.971-91.33,91.33-91.33
			s91.33,40.971,91.33,91.33C48.545-700.451,47.426-699.332,46.045-699.332z M-129.079-704.332H43.51
			c-1.329-46.45-39.529-83.83-86.294-83.83S-127.751-750.782-129.079-704.332z"/>
	</g>
	<g>
		<polyline class="st51" points="-17.654,-700.661 -10.722,-701.332 19.84,-701.272 -17.085,-662.295 -80.61,-660.074 
			-107.709,-692.502 -81.943,-712.049 -58.843,-712.049 -48.626,-704.942 -20.638,-704.942 -15.101,-694.043 -57.066,-688.504 		"/>
		<path class="st78" d="M-80.61-657.574c-0.739,0-1.442-0.327-1.919-0.897l-27.099-32.429c-0.438-0.524-0.643-1.206-0.565-1.885
			c0.077-0.68,0.428-1.298,0.973-1.711l25.766-19.547c0.435-0.329,0.966-0.508,1.511-0.508h23.1c0.51,0,1.009,0.156,1.428,0.447
			l9.574,6.66h27.203c0.941,0,1.802,0.528,2.229,1.367l1.44,2.836l6.006-0.581c0.082-0.008,0.176-0.019,0.246-0.012l30.562,0.06
			c0.998,0.002,1.899,0.598,2.292,1.515c0.393,0.917,0.204,1.98-0.483,2.705l-36.925,38.977c-0.451,0.476-1.072,0.756-1.728,0.778
			l-63.525,2.222C-80.552-657.575-80.581-657.574-80.61-657.574z M-104.11-692.094l24.634,29.479l61.28-2.143l32.234-34.025
			l-24.643-0.048l-3.932,0.381l1.664,3.274c0.367,0.724,0.361,1.58-0.017,2.298c-0.378,0.718-1.081,1.207-1.885,1.314l-41.965,5.539
			l-0.654-4.957l38.463-5.077l-3.243-6.382h-26.453c-0.51,0-1.009-0.156-1.428-0.447l-9.574-6.66h-21.475L-104.11-692.094z"/>
	</g>
	<g>
		
			<rect x="-116.933" y="-700.07" transform="matrix(0.7631 -0.6463 0.6463 0.7631 405.6714 -224.4942)" class="st79" width="27.097" height="68.938"/>
		<path class="st78" d="M-91.445-628.041c-0.71,0-1.414-0.301-1.909-0.885l-44.554-52.607c-0.429-0.506-0.639-1.161-0.583-1.822
			c0.055-0.66,0.37-1.273,0.875-1.701l20.68-17.512c1.053-0.893,2.631-0.761,3.523,0.293l44.551,52.607
			c0.893,1.053,0.762,2.631-0.292,3.523l-20.677,17.512C-90.301-628.236-90.875-628.041-91.445-628.041z M-132.477-682.857
			l41.322,48.792l16.862-14.28l-41.32-48.792L-132.477-682.857z"/>
	</g>
</g>
<polygon class="st80" points="-141.262,-338.002 -110.349,-340.35 -93.653,-355.35 -91.436,-355.284 -90.653,-353.458 
	-107.544,-336.306 -138.131,-334.48 "/>
<g>
	<path class="st63" d="M-128.535-400.543c-21.114,4.286-37.006,22.952-37.006,45.331c0,0,56.048,0.24,80.893,0.16
		C-91.256-385.191-121.423-397.931-128.535-400.543z"/>
	<path class="st81" d="M-119.283-401.47c-3.169,0-6.263,0.32-9.252,0.927c7.113,2.612,37.279,15.352,43.887,45.491
		c7.074-0.023,11.623-0.072,11.623-0.16C-73.025-380.76-93.735-401.47-119.283-401.47z"/>
</g>
<g>
	<path class="st63" d="M88.965-471.173c-21.114,4.286-37.006,22.952-37.006,45.331c0,0,56.048,0.24,80.893,0.16
		C126.244-455.822,96.077-468.561,88.965-471.173z"/>
	<path class="st81" d="M98.217-472.101c-3.169,0-6.263,0.32-9.252,0.927c7.113,2.612,37.279,15.352,43.887,45.491
		c7.074-0.023,11.623-0.072,11.623-0.16C144.475-451.39,123.765-472.101,98.217-472.101z"/>
</g>
<g>
	<path class="st33" d="M-107.537-355.344h15.356c1.314,0,1.972,1.588,1.043,2.517l-16.647,16.647l-30.398,1.718l-13.878-16.917
		l12.292-9.516h11.763l5.419,3.701h14.01l1.592,2.547c0.811,1.297,0.031,3.001-1.48,3.235l-18.086,2.808"/>
	
		<rect x="-157.744" y="-353.534" transform="matrix(0.7761 -0.6306 0.6306 0.7761 178.1471 -170.6994)" class="st5" width="12.82" height="34.576"/>
</g>
<g>
	<polygon class="st1" points="57.765,17.454 44.152,17.454 43.138,4.37 58.778,4.37 	"/>
	<path class="st0" d="M51.424,15.044c-3.169,0-6.263,0.32-9.252,0.927C21.058,20.258,5.166,38.923,5.166,61.302
		c0,0,56.048,0.24,80.893,0.16c7.074-0.023,11.623-0.072,11.623-0.16C97.683,35.754,76.972,15.044,51.424,15.044z"/>
	<polygon class="st80" points="29.446,78.512 60.359,76.164 77.055,61.164 79.272,61.23 80.055,63.056 63.163,80.208 32.576,82.034 
			"/>
	<g>
		<path class="st63" d="M42.172,15.971C21.058,20.258,5.166,38.923,5.166,61.302c0,0,56.048,0.24,80.893,0.16
			C79.451,31.323,49.285,18.583,42.172,15.971z"/>
		<path class="st81" d="M51.424,15.044c-3.169,0-6.263,0.32-9.252,0.927c7.113,2.612,37.279,15.352,43.887,45.491
			c7.074-0.023,11.623-0.072,11.623-0.16C97.683,35.754,76.972,15.044,51.424,15.044z"/>
	</g>
	<g>
		<path class="st33" d="M63.171,61.17h15.356c1.314,0,1.972,1.588,1.043,2.517L62.923,80.334l-30.398,1.718L18.647,65.135
			l12.292-9.516h11.763l5.419,3.701h14.01l1.592,2.547c0.811,1.297,0.031,3.001-1.48,3.235l-18.086,2.808"/>
		
			<rect x="12.964" y="62.98" transform="matrix(0.7761 -0.6306 0.6306 0.7761 -46.2773 30.1857)" class="st5" width="12.82" height="34.576"/>
	</g>
</g>
</svg>
