<?xml version="1.0" encoding="utf-8"?>
<!-- Generator: Adobe Illustrator 26.0.2, SVG Export Plug-In . SVG Version: 6.00 Build 0)  -->
<svg version="1.1" id="레이어_1" xmlns="http://www.w3.org/2000/svg" xmlns:xlink="http://www.w3.org/1999/xlink" x="0px"
	 y="0px" viewBox="0 0 54 54" style="enable-background:new 0 0 54 54;" xml:space="preserve">
<style type="text/css">
	.st0{fill:#F3E8AF;stroke:#040000;stroke-miterlimit:10;}
	.st1{opacity:0.7;fill:#F3E8AF;stroke:#040000;stroke-miterlimit:10;}
	.st2{opacity:0.5;fill:#F3E8AF;stroke:#040000;stroke-miterlimit:10;}
	.st3{fill:#FFFFFF;stroke:#231815;stroke-width:0.2;stroke-miterlimit:10;}
	.st4{fill:#A0F2E2;stroke:#040000;stroke-miterlimit:10;}
	.st5{fill:#2D2DEB;stroke:#040000;stroke-miterlimit:10;}
	.st6{fill:none;stroke:#383838;stroke-miterlimit:10;}
	.st7{fill:#FF3D47;stroke:#040000;stroke-miterlimit:10;}
	.st8{fill:#F0EA4A;}
	.st9{fill:#BAA631;}
	.st10{fill:#ECD138;}
	.st11{fill:#C3BA8D;}
	.st12{fill:#F3E8AF;}
	.st13{fill:#F0EA4A;stroke:#040000;stroke-miterlimit:10;}
	.st14{fill:#ECD138;stroke:#040000;stroke-miterlimit:10;}
	.st15{fill:#D4131D;stroke:#040000;stroke-miterlimit:10;}
	.st16{fill:#6B0F14;stroke:#040000;stroke-miterlimit:10;}
	.st17{fill:#EB212C;stroke:#040000;stroke-miterlimit:10;}
	.st18{fill:#E84819;stroke:#231815;stroke-width:2;stroke-miterlimit:10;}
	.st19{fill:#6B2F32;stroke:#040000;stroke-miterlimit:10;}
	.st20{fill:#099AEB;stroke:#040000;stroke-miterlimit:10;}
	.st21{fill:#9E0B12;stroke:#231815;stroke-linecap:round;stroke-miterlimit:10;}
	.st22{fill:#009E28;stroke:#040000;stroke-miterlimit:10;}
	.st23{fill:#21EB54;stroke:#040000;stroke-miterlimit:10;}
	.st24{fill:#DB272D;stroke:#231815;stroke-linecap:round;stroke-miterlimit:10;}
	.st25{fill:#00000D;stroke:#040000;stroke-miterlimit:10;}
	.st26{fill:#9E7506;stroke:#040000;stroke-miterlimit:10;}
	.st27{fill:#EBB115;stroke:#231815;stroke-linecap:round;stroke-miterlimit:10;}
	.st28{fill:#855948;stroke:#040000;stroke-miterlimit:10;}
	.st29{fill:#62ED5C;stroke:#040000;stroke-miterlimit:10;}
	.st30{fill:#4BB807;stroke:#040000;stroke-miterlimit:10;}
	.st31{fill:#B83807;stroke:#231815;stroke-linecap:round;stroke-miterlimit:10;}
	.st32{fill:#E84819;stroke:#231815;stroke-width:2;stroke-linecap:round;stroke-miterlimit:10;}
	.st33{fill:#FFFFFF;stroke:#231815;stroke-miterlimit:10;}
	.st34{fill:#F8F6D2;stroke:#231815;stroke-width:0.5;stroke-linecap:round;stroke-miterlimit:10;}
	.st35{fill:#FFCB57;stroke:#040000;stroke-miterlimit:10;}
	.st36{fill:#E84819;stroke:#231815;stroke-linecap:round;stroke-miterlimit:10;}
	.st37{fill:#DDBF9B;stroke:#040000;stroke-miterlimit:10;}
	.st38{fill:#FFFFFF;stroke:#231815;stroke-width:2;stroke-miterlimit:10;}
	.st39{fill:#383838;}
	.st40{fill:#EFAE2E;stroke:#040000;stroke-miterlimit:10;}
	.st41{fill:#040000;}
	.st42{fill:#F3E8AF;stroke:#040000;stroke-linecap:round;stroke-miterlimit:10;}
	.st43{fill:none;stroke:#FC2B59;stroke-miterlimit:10;}
	.st44{fill:#FFFFFF;stroke:#231815;stroke-linecap:round;stroke-linejoin:round;stroke-miterlimit:10;}
	.st45{fill:#B9ACEA;}
	.st46{fill:#FFFFFF;stroke:#231815;stroke-width:2.5;stroke-linecap:round;stroke-linejoin:round;stroke-miterlimit:10;}
	.st47{fill:#231815;}
	.st48{fill:none;stroke:#000000;stroke-width:2.5;}
	.st49{fill:#231815;stroke:#FFFAEE;stroke-linecap:round;stroke-miterlimit:10;}
	.st50{fill:#FFFFFF;stroke:#000000;}
	.st51{fill:#FFFFFF;}
	.st52{fill:#161616;}
	.st53{fill:#FFF648;}
	.st54{fill:#A0F2E2;}
	.st55{fill:#66DDC6;}
	.st56{fill:none;stroke:#1B2242;stroke-linecap:round;stroke-linejoin:round;}
	.st57{fill:#FFEE76;stroke:#1B2242;stroke-linecap:round;stroke-linejoin:round;}
	.st58{fill:#9FE8F4;}
	.st59{fill:#CFF6FF;}
	.st60{fill:#FFFFFF;stroke:#1B2242;stroke-linecap:round;stroke-linejoin:round;}
	.st61{fill:#FFE197;stroke:#1B2242;stroke-linecap:round;stroke-linejoin:round;}
	.st62{fill:#EFAE2E;}
	.st63{fill:#FFCB57;}
	.st64{fill:none;stroke:#CCCCCC;stroke-miterlimit:10;}
	.st65{fill:#DDBF9B;}
	.st66{fill:none;stroke:#2B3647;stroke-miterlimit:10;}
	.st67{fill:#2B3647;}
	.st68{fill:#FFFFFF;stroke:#2B3647;stroke-miterlimit:10;}
</style>
<circle class="st0" cx="-762.043" cy="588.369" r="13.588"/>
<circle class="st1" cx="-772.368" cy="604.587" r="13.588"/>
<circle class="st2" cx="-751.719" cy="604.587" r="13.588"/>
<rect x="-78.532" y="873.742" class="st3" width="100" height="100"/>
<g>
	<circle class="st0" cx="152.649" cy="96.452" r="13.588"/>
	<circle class="st4" cx="142.324" cy="112.67" r="13.588"/>
	<circle class="st5" cx="162.974" cy="112.67" r="13.588"/>
	<path class="st6" d="M172.457,107.532c0.831,1.528,1.304,3.279,1.304,5.138c0,2.509-0.861,4.821-2.303,6.656"/>
	<path class="st6" d="M133.473,107.532c-0.831,1.528-1.304,3.279-1.304,5.138c0,2.509,0.861,4.821,2.303,6.656"/>
</g>
<g>
	<circle class="st0" cx="-42.652" cy="-80.286" r="14.54"/>
	<circle class="st4" cx="-53.701" cy="-62.931" r="14.54"/>
	<circle class="st5" cx="-31.604" cy="-62.931" r="14.54"/>
	<path class="st6" d="M-21.456-68.429c0.89,1.635,1.395,3.509,1.395,5.498c0,2.685-0.921,5.159-2.465,7.122"/>
	<path class="st6" d="M-63.171-68.429c-0.89,1.635-1.395,3.509-1.395,5.498c0,2.685,0.921,5.159,2.465,7.122"/>
</g>
<image style="overflow:visible;opacity:0.5;" width="621" height="517" xlink:href="9E84285E.jpg"  transform="matrix(1.0975 0 0 1.0975 -980.1204 1175.1166)">
</image>
<g>
	<path class="st7" d="M136.535,38.058l-1.917-4.844l-4.844-1.917c-1.23-0.487-1.559-2.074-0.623-3.01l11.207-11.207l10.394,10.394
		l-11.207,11.207C138.61,39.617,137.022,39.288,136.535,38.058z"/>
	<path class="st7" d="M168.762,38.058l1.917-4.844l4.844-1.917c1.23-0.487,1.559-2.074,0.623-3.01L164.939,17.08l-10.394,10.394
		l11.207,11.207C166.688,39.617,168.275,39.288,168.762,38.058z"/>
	<g>
		<path class="st8" d="M150.233,20.769c-0.648-1.641-2.448-2.508-4.135-1.991h0c-2.932,0.898-5.449-2.258-3.921-4.917
			c0.879-1.529,0.434-3.478-1.021-4.474c-2.53-1.733-1.632-5.669,1.4-6.132c1.744-0.266,2.99-1.829,2.861-3.588v0
			c-0.223-3.059,3.414-4.81,5.667-2.729v0c0.648,0.599,1.471,0.898,2.295,0.898V-8.61c-1.483,0-2.966-0.534-4.121-1.602
			c-1.768-1.633-3.917-1.484-5.34-0.799c-1.422,0.685-2.879,2.272-2.704,4.672c0.229,3.139-2.028,5.97-5.139,6.444
			c-2.38,0.364-3.603,2.138-3.954,3.677s-0.019,3.668,1.968,5.028c2.596,1.778,3.402,5.308,1.834,8.035
			c-1.2,2.087-0.575,4.15,0.409,5.384c0.984,1.234,2.858,2.302,5.158,1.597c0.582-0.178,1.173-0.263,1.757-0.263
			c2.434,0,4.737,1.479,5.669,3.839c0.884,2.239,2.886,3.037,4.464,3.037v-7.532C152.087,22.908,150.796,22.195,150.233,20.769z"/>
		<path class="st8" d="M157.842,27.403c1.156-2.927,4.418-4.497,7.426-3.576c2.302,0.706,4.174-0.363,5.158-1.597
			c0.984-1.234,1.608-3.297,0.409-5.384c-1.568-2.727-0.762-6.257,1.834-8.035c1.986-1.36,2.319-3.489,1.968-5.028
			c-0.351-1.539-1.574-3.313-3.954-3.677c-3.11-0.475-5.367-3.305-5.139-6.444c0.175-2.401-1.282-3.988-2.704-4.673
			c-1.422-0.685-3.572-0.834-5.34,0.799c-1.155,1.068-2.638,1.602-4.121,1.602v6.446c0.823,0,1.647-0.299,2.295-0.898l0,0
			c2.252-2.081,5.89-0.33,5.667,2.729v0c-0.128,1.759,1.118,3.322,2.861,3.588c3.032,0.463,3.93,4.399,1.4,6.132h0
			c-1.455,0.997-1.9,2.945-1.021,4.474c1.528,2.659-0.989,5.815-3.921,4.917c-1.687-0.517-3.487,0.35-4.135,1.991
			c-0.563,1.426-1.854,2.139-3.145,2.139v7.532c0,0,0,0,0,0C154.956,30.44,156.958,29.642,157.842,27.403z"/>
		<path d="M148.322,27.636L148.322,27.636c-1.041-2.638-3.936-4.032-6.648-3.201h0c-4.715,1.444-8.761-3.631-6.305-7.906h0
			c1.413-2.459,0.698-5.591-1.642-7.193l0,0c-4.068-2.786-2.624-9.114,2.25-9.858h0c2.804-0.428,4.807-2.94,4.6-5.769
			c-0.359-4.918,5.489-7.734,9.111-4.387c1.041,0.962,2.365,1.444,3.689,1.444V-9.88c-1.172,0-2.344-0.422-3.257-1.267
			c-1.871-1.729-4.461-2.117-6.756-1.011c-2.296,1.105-3.606,3.371-3.421,5.911c0.181,2.481-1.603,4.718-4.062,5.094
			c-2.519,0.385-4.436,2.167-5.003,4.651c-0.567,2.484,0.387,4.921,2.489,6.36c2.052,1.405,2.689,4.195,1.45,6.352
			c-1.27,2.209-1.071,4.819,0.518,6.811c1.589,1.992,4.089,2.766,6.525,2.02c2.379-0.729,4.956,0.514,5.87,2.827
			c0.936,2.37,3.1,3.842,5.648,3.842v-0.637C151.303,31.076,149.227,29.929,148.322,27.636z"/>
		<path d="M175.877,3.499c-0.567-2.484-2.484-4.266-5.003-4.651c-2.458-0.375-4.243-2.613-4.061-5.094
			c0.185-2.541-1.126-4.806-3.421-5.911c-2.295-1.105-4.885-0.719-6.756,1.011c-0.913,0.845-2.085,1.267-3.257,1.267v0.644
			c1.324,0,2.648-0.481,3.689-1.444c3.621-3.346,9.469-0.53,9.111,4.387c-0.206,2.829,1.797,5.34,4.6,5.769
			c4.874,0.745,6.318,7.073,2.25,9.858v0c-2.34,1.602-3.055,4.734-1.642,7.193c2.457,4.275-1.59,9.35-6.305,7.906
			c-2.712-0.831-5.606,0.563-6.648,3.201l0,0c-0.905,2.293-2.981,3.44-5.056,3.44v0.637c0,0,0,0,0,0
			c2.548,0,4.712-1.472,5.648-3.842c0.914-2.314,3.492-3.555,5.87-2.827c2.437,0.745,4.937-0.029,6.525-2.02
			c1.589-1.992,1.787-4.602,0.518-6.811c-1.239-2.156-0.603-4.946,1.449-6.352C175.49,8.421,176.444,5.983,175.877,3.499z"/>
		<path d="M157.499-10.212c1.768-1.633,3.918-1.484,5.34-0.799c1.422,0.685,2.88,2.272,2.704,4.673
			c-0.229,3.139,2.028,5.969,5.139,6.444c2.38,0.364,3.603,2.138,3.954,3.677c0.351,1.539,0.019,3.668-1.968,5.028
			c-2.596,1.779-3.402,5.308-1.834,8.035c1.2,2.087,0.575,4.15-0.409,5.384c-0.984,1.233-2.856,2.302-5.158,1.597
			c-3.008-0.921-6.27,0.649-7.426,3.576c-0.884,2.239-2.886,3.037-4.464,3.037c0,0,0,0,0,0v0.636c2.075,0,4.151-1.147,5.056-3.44
			l0,0c1.041-2.638,3.936-4.032,6.648-3.201c4.715,1.444,8.761-3.631,6.305-7.906c-1.413-2.459-0.698-5.591,1.642-7.193v0
			c4.068-2.786,2.624-9.114-2.25-9.858c-2.804-0.428-4.807-2.94-4.6-5.769c0.359-4.918-5.489-7.734-9.111-4.387
			c-1.041,0.962-2.365,1.444-3.689,1.444v0.625C154.861-8.61,156.344-9.144,157.499-10.212z"/>
		<path d="M140.578-6.292c0.206,2.829-1.797,5.34-4.6,5.769h0c-4.874,0.745-6.318,7.073-2.25,9.858l0,0
			c2.34,1.602,3.055,4.734,1.642,7.193h0c-2.457,4.275,1.59,9.35,6.305,7.906h0c2.712-0.831,5.606,0.563,6.648,3.201v0
			c0.905,2.293,2.981,3.44,5.056,3.44V30.44c-1.579,0-3.58-0.798-4.464-3.037c-0.932-2.361-3.235-3.839-5.669-3.839
			c-0.584,0-1.175,0.085-1.757,0.263c-2.299,0.706-4.174-0.363-5.158-1.597c-0.984-1.234-1.608-3.297-0.409-5.384
			c1.567-2.727,0.762-6.257-1.834-8.035c-1.986-1.36-2.319-3.489-1.968-5.028s1.575-3.313,3.954-3.677
			c3.111-0.475,5.368-3.305,5.139-6.444c-0.175-2.401,1.282-3.988,2.704-4.672c1.423-0.685,3.573-0.834,5.34,0.799
			c1.155,1.068,2.638,1.602,4.121,1.602v-0.625c-1.324,0-2.648-0.481-3.689-1.444C146.068-14.026,140.22-11.209,140.578-6.292z"/>
		<path class="st9" d="M153.498,1.348l2.261,5.022l5.419,0.985l-4.078,3.702l0.738,5.458l-4.46-2.55v8.944
			c1.291,0,2.582-0.713,3.145-2.139c0.648-1.641,2.448-2.508,4.135-1.991c2.932,0.898,5.449-2.258,3.921-4.917
			c-0.879-1.529-0.434-3.478,1.021-4.474h0c2.53-1.733,1.632-5.669-1.4-6.132c-1.744-0.266-2.99-1.829-2.861-3.588v0
			c0.223-3.059-3.414-4.81-5.667-2.729l0,0c-0.648,0.599-1.471,0.898-2.295,0.898v3.735L153.498,1.348z"/>
		<path class="st10" d="M151.083-3.063c-2.252-2.081-5.89-0.33-5.667,2.729v0c0.128,1.759-1.118,3.322-2.861,3.588
			c-3.032,0.463-3.93,4.399-1.4,6.132c1.455,0.997,1.9,2.945,1.021,4.474c-1.528,2.659,0.989,5.815,3.921,4.917h0
			c1.687-0.517,3.487,0.35,4.135,1.991c0.563,1.426,1.854,2.139,3.145,2.139v-8.944l-0.321-0.184l-4.963,2.388l1.123-5.392
			l-3.805-3.982l5.475-0.598l2.491-4.627v-3.735C152.555-2.165,151.731-2.464,151.083-3.063L151.083-3.063z"/>
		<polygon class="st11" points="157.1,11.057 161.177,7.355 155.758,6.37 153.498,1.348 153.378,1.571 153.378,13.964 
			157.838,16.515 		"/>
		<polygon class="st12" points="150.887,6.198 145.412,6.796 149.217,10.777 148.094,16.169 153.057,13.781 153.378,13.964 
			153.378,1.571 		"/>
	</g>
</g>
<circle class="st8" cx="-706.547" cy="198.189" r="9.034"/>
<circle class="st10" cx="-682.547" cy="198.189" r="9.034"/>
<circle class="st12" cx="-659.895" cy="198.189" r="9.034"/>
<circle class="st13" cx="-706.547" cy="170.015" r="9.034"/>
<circle class="st14" cx="-682.547" cy="170.015" r="9.034"/>
<circle class="st0" cx="-659.895" cy="170.015" r="9.034"/>
<circle class="st15" cx="-1346.739" cy="611.113" r="9.034"/>
<circle class="st16" cx="-1322.739" cy="611.113" r="9.034"/>
<circle class="st0" cx="-1300.087" cy="611.113" r="9.034"/>
<circle class="st17" cx="-1278.957" cy="611.113" r="9.034"/>
<circle class="st18" cx="-637.82" cy="198.189" r="9.034"/>
<circle class="st19" cx="-1346.739" cy="634.795" r="9.034"/>
<circle class="st7" cx="-1322.739" cy="634.795" r="9.034"/>
<circle class="st20" cx="-1300.087" cy="634.795" r="9.034"/>
<circle class="st21" cx="-1278.013" cy="634.795" r="9.034"/>
<circle class="st22" cx="-1346.739" cy="656.708" r="9.034"/>
<circle class="st23" cx="-1322.739" cy="656.708" r="9.034"/>
<circle class="st20" cx="-1300.087" cy="656.708" r="9.034"/>
<circle class="st24" cx="-1278.013" cy="656.708" r="9.034"/>
<circle class="st25" cx="-1346.739" cy="678.034" r="9.034"/>
<circle class="st5" cx="-1322.739" cy="678.034" r="9.034"/>
<circle class="st26" cx="-1300.087" cy="678.034" r="9.034"/>
<circle class="st27" cx="-1278.013" cy="678.034" r="9.034"/>
<circle class="st28" cx="-1346.739" cy="700.208" r="9.034"/>
<circle class="st29" cx="-1322.739" cy="700.208" r="9.034"/>
<circle class="st30" cx="-1300.087" cy="700.208" r="9.034"/>
<circle class="st31" cx="-1278.013" cy="700.208" r="9.034"/>
<g>
	<rect x="222.576" y="13.244" class="st27" width="40.766" height="25.976"/>
	<path class="st32" d="M219.364,11.538h46.431c0.606,0,1.03-0.6,0.826-1.171l-5.365-15.04h-37.353l-5.365,15.04
		C218.335,10.937,218.758,11.538,219.364,11.538z"/>
	<path class="st17" d="M228.122-4.674l-3.484,16.211v3.795c0,0.651-0.374,1.244-0.966,1.518c-0.923,0.427-2.463,0.763-4.432-0.199
		c-0.464-0.226-0.754-0.708-0.754-1.224v-4.672l5.417-15.429H228.122z"/>
	<path class="st17" d="M228.122-4.674h4.551l-2.275,15.643v4.906c0,0-2.611,3.569-5.82-0.1v-4.522L228.122-4.674z"/>
	<path class="st17" d="M232.673-4.674h5.262l-1.517,16.211v4.171c0,0-2.512,3.697-6.02,0.166v-4.716L232.673-4.674z"/>
	<path class="st17" d="M237.935-4.674h5.404l-0.379,17.349v2.844c0,0-2.797,4.314-6.541,0L237.935-4.674z"/>
	<path class="st17" d="M243.338-4.674h6.162v16.211v4.029c0,0-2.939,4.314-6.541-0.047L243.338-4.674z"/>
	<path class="st17" d="M249.501-4.674h4.314l2.086,16.448v3.414c0,0.095-0.024,0.185-0.075,0.266
		c-0.451,0.718-2.906,4.148-6.325-0.125V-4.674z"/>
	<path class="st17" d="M253.814-4.674h3.792l3.697,16.211v3.555c0,0-2.275,4.693-5.404,0v-3.555L253.814-4.674z"/>
	<path class="st17" d="M257.606-4.674h3.65l5.408,15.429v4.266c0,0-1.995,5.001-5.361,0.071v-3.555L257.606-4.674z"/>
	<circle class="st33" cx="243.338" cy="-2.719" r="10.061"/>
	<path class="st0" d="M249.501,39.22h-14.055v-11.4c0-2.644,2.143-4.787,4.787-4.787h4.482c2.644,0,4.787,2.143,4.787,4.787V39.22z"
		/>
	<g>
		<path class="st34" d="M241.531,9.737h-0.144c-0.412,0-0.744-0.337-0.738-0.749l0.134-8.864h1.181l0.305,8.85
			C242.283,9.391,241.948,9.737,241.531,9.737z"/>
		<path class="st34" d="M238.406-2.236c0-2.005,1.495-4.488,2.845-4.488c1.247,0,2.845,2.483,2.845,4.488s-1.063,3.63-2.845,3.63
			S238.406-0.231,238.406-2.236z"/>
	</g>
	<path class="st34" d="M245.714,10.684L245.714,10.684c-0.335,0-0.606-0.275-0.6-0.61l0.296-18.805h0.51l0.395,18.802
		C246.322,10.408,246.051,10.684,245.714,10.684z"/>
	<path class="st34" d="M246.915,10.684L246.915,10.684c-0.335,0-0.606-0.275-0.6-0.61l0.296-18.805h0.51l0.395,18.802
		C247.522,10.408,247.251,10.684,246.915,10.684z"/>
</g>
<g>
	<rect x="308.973" y="0.502" class="st35" width="46.848" height="33.647"/>
	<path class="st35" d="M355.935,0.502h-46.848l1.524-5.3c1.29-4.488,5.396-7.58,10.066-7.58h23.923c4.852,0,9.069,3.333,10.19,8.053
		L355.935,0.502z"/>
	<path class="st33" d="M355.258,38.818h-45.721c-1.289,0-2.334-1.045-2.334-2.334v0c0-1.289,1.045-2.334,2.334-2.334h45.721
		c1.289,0,2.334,1.045,2.334,2.334v0C357.592,37.773,356.547,38.818,355.258,38.818z"/>
	<path class="st24" d="M338.996,34.149h-13.198c-0.474,0-0.858-0.384-0.858-0.858V18.313c0-1.62,1.313-2.933,2.933-2.933h9.05
		c1.62,0,2.933,1.313,2.933,2.933v14.978C339.854,33.765,339.47,34.149,338.996,34.149z"/>
	<path class="st36" d="M349.413,19.38h-2.636c-1.125,0-2.038-0.912-2.038-2.038v-2.878c0-1.125,0.912-2.038,2.038-2.038h2.636
		c1.125,0,2.038,0.912,2.038,2.038v2.878C351.451,18.468,350.538,19.38,349.413,19.38z"/>
	<path class="st33" d="M355.376,7.908h-45.73c-1.731,0-3.135-1.404-3.135-3.135v-7.576c0-1.731,1.404-3.135,3.135-3.135h45.73
		c1.731,0,3.135,1.404,3.135,3.135v7.576C358.511,6.504,357.108,7.908,355.376,7.908z"/>
	
		<text transform="matrix(1 0 0 1 313.6796 4.9793)" class="st47" style="font-family:'NotoSansKR-Medium-KSCpc-EUC-H'; font-size:9.5521px; letter-spacing:1;">SALON</text>
</g>
<g>
	<rect x="-89.669" y="22.108" class="st35" width="46.848" height="33.647"/>
	<path class="st35" d="M-42.706,22.108h-46.848l1.524-5.3c1.29-4.488,5.396-7.58,10.066-7.58h23.923
		c4.852,0,9.069,3.333,10.19,8.053L-42.706,22.108z"/>
	<path class="st33" d="M-43.384,60.424h-45.721c-1.289,0-2.334-1.045-2.334-2.334v0c0-1.289,1.045-2.334,2.334-2.334h45.721
		c1.289,0,2.334,1.045,2.334,2.334v0C-41.05,59.378-42.095,60.424-43.384,60.424z"/>
	<path class="st24" d="M-59.646,55.755h-13.198c-0.474,0-0.858-0.384-0.858-0.858V39.918c0-1.62,1.313-2.933,2.933-2.933h9.05
		c1.62,0,2.933,1.313,2.933,2.933v14.978C-58.787,55.371-59.171,55.755-59.646,55.755z"/>
	<path class="st36" d="M-49.228,40.986h-2.636c-1.125,0-2.038-0.912-2.038-2.038V36.07c0-1.125,0.912-2.038,2.038-2.038h2.636
		c1.125,0,2.038,0.912,2.038,2.038v2.878C-47.191,40.073-48.103,40.986-49.228,40.986z"/>
	<path class="st33" d="M-43.265,29.513h-45.73c-1.731,0-3.135-1.404-3.135-3.135v-7.576c0-1.731,1.404-3.135,3.135-3.135h45.73
		c1.731,0,3.135,1.404,3.135,3.135v7.576C-40.13,28.11-41.534,29.513-43.265,29.513z"/>
	
		<text transform="matrix(1 0 0 1 -84.962 26.5849)" class="st47" style="font-family:'NotoSansKR-Medium-KSCpc-EUC-H'; font-size:9.5521px; letter-spacing:1;">SALON</text>
</g>
<image style="overflow:visible;opacity:0.7;" width="666" height="1440" xlink:href="../../../../../Desktop/KakaoTalk_20220119_121728155.jpg"  transform="matrix(1 0 0 1 -2242.4348 3.6522)">
</image>
<g>
	<rect x="433.335" y="-11.658" class="st27" width="8.805" height="19.604"/>
	<rect x="432.172" y="-12.904" class="st27" width="11.131" height="3.433"/>
	<rect x="398.094" y="8.444" class="st37" width="46.85" height="30.901"/>
	<path class="st38" d="M398.181,8.444h46.537c0.877,0,1.269-1.1,0.59-1.655l-22.564-18.448L397.629,6.759
		C396.902,7.292,397.279,8.444,398.181,8.444z"/>
	<polygon class="st39" points="408.301,4.199 422.603,-6.29 435.431,4.199 	"/>
	<rect x="402.933" y="13.428" class="st35" width="4.652" height="4.818"/>
	<rect x="410.593" y="13.594" class="st35" width="4.652" height="4.818"/>
	<rect x="402.933" y="21.181" class="st35" width="4.652" height="4.818"/>
	<rect x="410.593" y="21.347" class="st35" width="4.652" height="4.818"/>
	<rect x="428.628" y="13.428" class="st35" width="4.652" height="4.818"/>
	<rect x="436.289" y="13.594" class="st35" width="4.652" height="4.818"/>
	<rect x="428.628" y="21.181" class="st35" width="4.652" height="4.818"/>
	<rect x="436.289" y="21.347" class="st35" width="4.652" height="4.818"/>
	<path class="st40" d="M429.957,39.345h-16.433v-8.783c0-4.655,3.679-8.429,8.217-8.429h0c4.538,0,8.217,3.774,8.217,8.429V39.345z"
		/>
</g>
<g>
	<rect x="-69.897" y="67.339" class="st27" width="8.805" height="19.604"/>
	<rect x="-71.06" y="66.093" class="st27" width="11.131" height="3.433"/>
	<rect x="-105.138" y="87.441" class="st37" width="46.85" height="30.901"/>
	<path class="st38" d="M-105.051,87.441h46.537c0.877,0,1.269-1.1,0.59-1.655l-22.564-18.448l-25.115,18.418
		C-106.33,86.289-105.952,87.441-105.051,87.441z"/>
	<polygon class="st39" points="-94.931,83.196 -80.629,72.707 -67.801,83.196 	"/>
	<rect x="-100.299" y="92.425" class="st35" width="4.652" height="4.818"/>
	<rect x="-92.639" y="92.591" class="st35" width="4.652" height="4.818"/>
	<rect x="-100.299" y="100.178" class="st35" width="4.652" height="4.818"/>
	<rect x="-92.639" y="100.344" class="st35" width="4.652" height="4.818"/>
	<rect x="-74.604" y="92.425" class="st35" width="4.652" height="4.818"/>
	<rect x="-66.943" y="92.591" class="st35" width="4.652" height="4.818"/>
	<rect x="-74.604" y="100.178" class="st35" width="4.652" height="4.818"/>
	<rect x="-66.943" y="100.344" class="st35" width="4.652" height="4.818"/>
	<path class="st40" d="M-73.275,118.342h-16.433v-8.783c0-4.655,3.679-8.429,8.217-8.429h0c4.538,0,8.217,3.774,8.217,8.429V118.342
		z"/>
</g>
<g>
	<ellipse class="st23" cx="-760.681" cy="516.133" rx="4.913" ry="9.176"/>
	
		<ellipse transform="matrix(0.9397 -0.342 0.342 0.9397 -223.1097 -230.9436)" class="st27" cx="-766.428" cy="517.187" rx="4.913" ry="9.176"/>
	
		<ellipse transform="matrix(0.766 -0.6428 0.6428 0.766 -514.8309 -374.1996)" class="st17" cx="-771.468" cy="520.143" rx="4.913" ry="9.176"/>
	
		<ellipse transform="matrix(0.5 -0.866 0.866 0.5 -841.9523 -409.0141)" class="st30" cx="-775.193" cy="524.645" rx="4.913" ry="9.176"/>
	
		<ellipse transform="matrix(0.1736 -0.9848 0.9848 0.1736 -1164.2971 -327.2568)" class="st0" cx="-777.153" cy="530.149" rx="4.913" ry="9.176"/>
	
		<ellipse transform="matrix(0.9848 -0.1736 0.1736 0.9848 -104.8801 -126.8013)" class="st17" cx="-777.113" cy="535.992" rx="9.176" ry="4.913"/>
	
		<ellipse transform="matrix(0.866 -0.5 0.5 0.866 -374.5749 -314.9954)" class="st30" cx="-775.077" cy="541.469" rx="9.176" ry="4.913"/>
	
		<ellipse transform="matrix(0.6428 -0.766 0.766 0.6428 -693.7124 -395.8339)" class="st27" cx="-771.29" cy="545.919" rx="9.176" ry="4.913"/>
	
		<ellipse transform="matrix(0.342 -0.9397 0.9397 0.342 -1019.8591 -358.8995)" class="st17" cx="-766.21" cy="548.805" rx="9.176" ry="4.913"/>
	<ellipse class="st0" cx="-760.449" cy="549.78" rx="4.913" ry="9.176"/>
	
		<ellipse transform="matrix(0.9397 -0.342 0.342 0.9397 -233.1894 -225.0312)" class="st27" cx="-754.702" cy="548.726" rx="4.913" ry="9.176"/>
	
		<ellipse transform="matrix(0.766 -0.6428 0.6428 0.766 -526.2017 -354.1879)" class="st30" cx="-749.662" cy="545.77" rx="4.913" ry="9.176"/>
	
		<ellipse transform="matrix(0.5 -0.866 0.866 0.5 -841.7206 -375.367)" class="st0" cx="-745.938" cy="541.268" rx="4.913" ry="9.176"/>
	
		<ellipse transform="matrix(0.1736 -0.9848 0.9848 0.1736 -1142.4113 -289.9451)" class="st17" cx="-743.977" cy="535.764" rx="4.913" ry="9.176"/>
	
		<ellipse transform="matrix(0.9848 -0.1736 0.1736 0.9848 -103.3231 -121.1466)" class="st0" cx="-744.017" cy="529.921" rx="9.176" ry="4.913"/>
	
		<ellipse transform="matrix(0.866 -0.5 0.5 0.866 -362.1744 -302.7646)" class="st17" cx="-746.054" cy="524.444" rx="9.176" ry="4.913"/>
	
		<ellipse transform="matrix(0.6428 -0.766 0.766 0.6428 -666.191 -388.6623)" class="st27" cx="-749.84" cy="519.994" rx="9.176" ry="4.913"/>
	
		<ellipse transform="matrix(0.342 -0.9397 0.9397 0.342 -982.6448 -369.1462)" class="st30" cx="-754.92" cy="517.108" rx="9.176" ry="4.913"/>
	<g>
		<path class="st12" d="M-758.766,531.372c0.554-2.818-1.138-6.544-2.569-9.059c-5.069,0.4-9.059,4.638-9.059,9.81
			c0,5.437,4.407,9.844,9.844,9.844c0.294,0,0.585-0.015,0.873-0.041C-761.06,538.784-759.534,535.283-758.766,531.372z"/>
		<path class="st12" d="M-750.706,532.122c0-5.437-4.407-9.844-9.844-9.844c-0.264,0-0.525,0.013-0.784,0.034
			c1.43,2.515,3.122,6.241,2.569,9.059c-0.768,3.911-2.295,7.413-0.912,10.554C-754.65,541.484-750.706,537.265-750.706,532.122z"/>
	</g>
	<g>
		<circle class="st41" cx="-764.007" cy="531.26" r="0.665"/>
		<circle class="st41" cx="-756.537" cy="531.26" r="0.665"/>
	</g>
	<path class="st42" d="M-763.193,536.043c0,0,3.087,1.919,6.09,0"/>
</g>
<path class="st6" d="M-768.383,579.646c1.781-1.298,3.973-2.064,6.34-2.064c2.175,0,4.201,0.647,5.897,1.758"/>
<path class="st6" d="M-742.235,599.449c0.831,1.528,1.304,3.279,1.304,5.138c0,2.509-0.861,4.821-2.303,6.656"/>
<path class="st6" d="M-781.219,599.449c-0.831,1.528-1.304,3.279-1.304,5.138c0,2.509,0.861,4.821,2.303,6.656"/>
<rect x="-787.261" y="242.913" class="st43" width="52" height="52"/>
<rect x="-787.261" y="309.076" class="st43" width="52" height="52"/>
<rect x="-787.261" y="375.239" class="st43" width="52" height="52"/>
<rect x="-787.261" y="441.402" class="st43" width="52" height="52"/>
<rect x="-787.261" y="507.565" class="st43" width="52" height="52"/>
<rect x="-788.217" y="570.13" class="st43" width="52" height="52"/>
<rect x="-788.217" y="637.043" class="st43" width="52" height="52"/>
<rect x="-788.217" y="693.978" class="st43" width="52" height="52"/>
<rect x="-788.217" y="757.37" class="st43" width="52" height="52"/>
<rect x="-788.217" y="817.109" class="st43" width="52" height="52"/>
<rect x="-788.217" y="881.022" class="st43" width="52" height="52"/>
<rect x="-788.217" y="942.326" class="st43" width="52" height="52"/>
<g>
	<path class="st27" d="M259.983,110.808L259.983,110.808c-0.68,0-1.276-0.453-1.458-1.108l-5.946-21.352h3.503
		c2.991,0,5.415,2.425,5.415,5.415v15.53C261.497,110.13,260.819,110.808,259.983,110.808z"/>
	<path class="st27" d="M224.515,110.808L224.515,110.808c0.68,0,1.276-0.453,1.458-1.108l5.946-21.352h-3.503
		c-2.991,0-5.415,2.425-5.415,5.415v15.53C223.001,110.13,223.679,110.808,224.515,110.808z"/>
	<path class="st27" d="M229.272,93.571v7.584c0,6.123,4.964,11.087,11.087,11.087h1.89h1.89c6.123,0,11.087-4.964,11.087-11.087
		v-7.584"/>
	<rect x="238.573" y="112.979" class="st44" width="7.352" height="5.656"/>
	<path class="st44" d="M242.249,114.116L242.249,114.116c-5.788,0-10.481-4.692-10.481-10.481v-6.056
		c0-5.788,4.692-10.481,10.481-10.481h0c5.788,0,10.481,4.692,10.481,10.481v6.056C252.73,109.423,248.037,114.116,242.249,114.116z
		"/>
	<path class="st44" d="M230.589,104.267h1.179v-6.141h-1.179c-1.644,0-2.977,1.333-2.977,2.977v0.188
		C227.613,102.934,228.945,104.267,230.589,104.267z"/>
	<rect x="229.719" y="98.126" class="st45" width="2.05" height="6.141"/>
	<path class="st44" d="M253.909,104.267h-1.179v-6.141h1.179c1.644,0,2.977,1.333,2.977,2.977v0.188
		C256.885,102.934,255.553,104.267,253.909,104.267z"/>
	
		<rect x="252.73" y="98.126" transform="matrix(-1 -4.526036e-11 4.526036e-11 -1 507.5089 202.3933)" class="st45" width="2.05" height="6.141"/>
	<path class="st45" d="M248.842,88.871c1.111,1.538,1.773,3.421,1.773,5.464v8.316c0,5.164-4.187,9.351-9.351,9.351h-2.259
		c-2.042,0-3.926-0.662-5.464-1.773c1.698,2.351,4.456,3.887,7.578,3.887h2.259c5.164,0,9.351-4.187,9.351-9.351v-8.316
		C252.73,93.327,251.194,90.57,248.842,88.871z"/>
	<line class="st46" x1="239.188" y1="98.678" x2="239.188" y2="99.87"/>
	<line class="st46" x1="245.309" y1="98.678" x2="245.309" y2="99.87"/>
	<ellipse class="st47" cx="242.249" cy="102.476" rx="1.571" ry="0.843"/>
	<path class="st44" d="M245.169,106.422c0,0.465-1.307,0.843-2.92,0.843c-1.613,0-2.92-0.377-2.92-0.843"/>
	<path class="st44" d="M257.038,126.923H227.46v-0.466c0-4.32,3.502-7.822,7.822-7.822h13.934c4.32,0,7.822,3.502,7.822,7.822
		V126.923z"/>
	<rect x="243.627" y="114.116" class="st45" width="2.298" height="4.519"/>
	<path class="st27" d="M251.504,118.635h-2.499c3.056,0,5.534,2.478,5.534,5.534v2.754h2.499v-2.754
		C257.038,121.112,254.56,118.635,251.504,118.635z"/>
	<path class="st27" d="M255.226,93.571c0-6.281-5.092-11.372-11.372-11.372h-3.209c-6.281,0-11.372,5.092-11.372,11.372"/>
	<polyline class="st44" points="231.768,93.571 244.688,93.571 246.212,90.06 247.737,93.571 252.73,93.571 	"/>
</g>
<g>
	<path class="st27" d="M-123.488,80.909L-123.488,80.909c-0.761,0-1.429-0.507-1.633-1.241l-6.659-23.911h3.923
		c3.349,0,6.065,2.715,6.065,6.065v17.391C-121.792,80.15-122.551,80.909-123.488,80.909z"/>
	<path class="st27" d="M-163.208,80.909L-163.208,80.909c0.761,0,1.429-0.507,1.633-1.241l6.659-23.911h-3.923
		c-3.349,0-6.065,2.715-6.065,6.065v17.391C-164.903,80.15-164.144,80.909-163.208,80.909z"/>
	<path class="st27" d="M-157.88,61.605v8.493c0,6.857,5.559,12.416,12.416,12.416h2.116h2.116c6.857,0,12.416-5.559,12.416-12.416
		v-8.493"/>
	<rect x="-147.464" y="83.34" class="st44" width="8.233" height="6.334"/>
	<path class="st44" d="M-142.092,84.613h-2.513c-5.788,0-10.481-4.692-10.481-10.481v-9.295c0-5.788,4.692-10.481,10.481-10.481
		h2.513c5.788,0,10.481,4.692,10.481,10.481v9.295C-131.611,79.92-136.303,84.613-142.092,84.613z"/>
	<path class="st44" d="M-156.762,73.584h1.677v-6.877h-1.677c-1.644,0-2.977,1.333-2.977,2.977v0.924
		C-159.738,72.251-158.406,73.584-156.762,73.584z"/>
	<rect x="-157.38" y="66.707" class="st45" width="2.295" height="6.877"/>
	<path class="st44" d="M-129.934,73.584h-1.677v-6.877h1.677c1.644,0,2.977,1.333,2.977,2.977v0.924
		C-126.957,72.251-128.29,73.584-129.934,73.584z"/>
	
		<rect x="-131.611" y="66.707" transform="matrix(-1 -4.517066e-11 4.517066e-11 -1 -260.9265 140.2903)" class="st45" width="2.295" height="6.877"/>
	<path class="st45" d="M-135.964,56.342c1.244,1.722,1.986,3.832,1.986,6.119v9.312c0,5.783-4.688,10.472-10.472,10.472h-2.53
		c-2.287,0-4.396-0.742-6.119-1.986c1.902,2.633,4.99,4.353,8.486,4.353h2.53c5.783,0,10.472-4.688,10.472-10.472v-9.312
		C-131.611,61.332-133.331,58.244-135.964,56.342z"/>
	<line class="st46" x1="-146.775" y1="67.324" x2="-146.775" y2="68.66"/>
	<line class="st46" x1="-139.92" y1="67.324" x2="-139.92" y2="68.66"/>
	<ellipse class="st47" cx="-143.348" cy="71.578" rx="1.76" ry="0.944"/>
	<path class="st44" d="M-140.078,75.997c0,0.521-1.464,0.944-3.27,0.944c-1.806,0-3.27-0.423-3.27-0.944"/>
	<path class="st44" d="M-126.786,98.955h-33.123v-1.46c0-4.32,3.502-7.822,7.822-7.822h17.479c4.32,0,7.822,3.502,7.822,7.822
		V98.955z"/>
	<rect x="-141.805" y="84.613" class="st45" width="2.573" height="5.061"/>
	<path class="st27" d="M-132.984,89.673h-2.799c3.423,0,6.198,2.775,6.198,6.198v3.084h2.799v-3.084
		C-126.786,92.448-129.561,89.673-132.984,89.673z"/>
	<path class="st27" d="M-128.815,61.605c0-7.034-5.702-12.735-12.735-12.735h-3.594c-7.034,0-12.735,5.702-12.735,12.735"/>
	<polyline class="st44" points="-155.085,61.605 -140.616,61.605 -138.909,57.674 -137.202,61.605 -131.611,61.605 	"/>
</g>
<g>
	<g>
		<g>
			<g>
				<path class="st5" d="M354.929,84.099c0-1.774-1.438-3.212-3.213-3.212h-29.554c-1.774,0-3.213,1.438-3.213,3.212v3.534h35.98
					V84.099z"/>
				<path class="st5" d="M318.95,87.633v27.948c0,1.774,1.439,3.212,3.213,3.212h29.554c1.775,0,3.213-1.438,3.213-3.212V87.633
					H318.95z"/>
			</g>
			<g>
				<line class="st48" x1="325.336" y1="94.423" x2="348.544" y2="94.423"/>
				<path class="st20" d="M332.785,94.423c0,1.266-1.027,2.292-2.293,2.292c-1.265,0-2.292-1.026-2.292-2.292
					c0-1.266,1.026-2.292,2.292-2.292C331.759,92.131,332.785,93.157,332.785,94.423z"/>
				<line class="st48" x1="325.336" y1="102.731" x2="348.544" y2="102.731"/>
				<path class="st20" d="M343.099,102.731c0,1.266-1.026,2.292-2.292,2.292c-1.265,0-2.292-1.026-2.292-2.292
					s1.027-2.291,2.292-2.291C342.074,100.44,343.099,101.465,343.099,102.731z"/>
				<line class="st48" x1="325.336" y1="111.041" x2="348.544" y2="111.041"/>
				<path class="st20" d="M337.656,111.041c0,1.266-1.027,2.292-2.293,2.292c-1.266,0-2.292-1.026-2.292-2.292
					c0-1.266,1.026-2.292,2.292-2.292C336.63,108.749,337.656,109.775,337.656,111.041z"/>
			</g>
		</g>
		<g>
			<line class="st49" x1="351.476" y1="83.135" x2="351.476" y2="85.063"/>
			<line class="st49" x1="348.906" y1="83.135" x2="348.906" y2="85.063"/>
			<line class="st49" x1="346.337" y1="83.135" x2="346.337" y2="85.063"/>
			<line class="st49" x1="343.766" y1="83.135" x2="343.766" y2="85.063"/>
		</g>
	</g>
	<g>
		<rect x="308.769" y="114.075" class="st50" width="23.6" height="14.16"/>
		<g>
			<g>
				<line class="st48" x1="313.139" y1="117.729" x2="313.139" y2="122.275"/>
				<line class="st48" x1="316.111" y1="117.729" x2="316.111" y2="122.275"/>
				<line class="st48" x1="319.082" y1="117.729" x2="319.082" y2="122.275"/>
				<line class="st48" x1="322.054" y1="117.729" x2="322.054" y2="122.275"/>
				<line class="st48" x1="325.026" y1="117.729" x2="325.026" y2="122.275"/>
				<line class="st48" x1="327.998" y1="117.729" x2="327.998" y2="122.275"/>
			</g>
			<g>
				<line class="st48" x1="313.139" y1="123.533" x2="313.139" y2="124.581"/>
				<line class="st48" x1="316.111" y1="123.533" x2="316.111" y2="124.581"/>
				<line class="st48" x1="319.082" y1="123.533" x2="319.082" y2="124.581"/>
				<line class="st48" x1="322.054" y1="123.533" x2="322.054" y2="124.581"/>
				<line class="st48" x1="325.026" y1="123.533" x2="325.026" y2="124.581"/>
				<line class="st48" x1="327.998" y1="123.533" x2="327.998" y2="124.581"/>
			</g>
		</g>
	</g>
</g>
<g>
	<g>
		<g>
			<g>
				<path class="st5" d="M-16.588,164.497c0-1.853-1.502-3.355-3.356-3.355h-30.869c-1.853,0-3.356,1.502-3.356,3.355v3.692h37.581
					V164.497z"/>
				<path class="st5" d="M-54.169,168.189v29.192c0,1.853,1.503,3.355,3.356,3.355h30.869c1.854,0,3.356-1.502,3.356-3.355v-29.192
					H-54.169z"/>
			</g>
			<g>
				<line class="st48" x1="-47.499" y1="175.28" x2="-23.258" y2="175.28"/>
				<path class="st20" d="M-39.718,175.28c0,1.322-1.072,2.394-2.395,2.394c-1.322,0-2.394-1.072-2.394-2.394
					c0-1.322,1.072-2.394,2.394-2.394C-40.79,172.886-39.718,173.958-39.718,175.28z"/>
				<line class="st48" x1="-47.499" y1="183.959" x2="-23.258" y2="183.959"/>
				<path class="st20" d="M-28.945,183.959c0,1.322-1.071,2.394-2.394,2.394c-1.322,0-2.394-1.072-2.394-2.394
					s1.072-2.393,2.394-2.393C-30.016,181.566-28.945,182.636-28.945,183.959z"/>
				<line class="st48" x1="-47.499" y1="192.638" x2="-23.258" y2="192.638"/>
				<path class="st20" d="M-34.63,192.638c0,1.322-1.072,2.394-2.395,2.394c-1.322,0-2.394-1.072-2.394-2.394
					s1.072-2.394,2.394-2.394C-35.702,190.244-34.63,191.316-34.63,192.638z"/>
			</g>
		</g>
		<g>
			<line class="st49" x1="-20.195" y1="163.491" x2="-20.195" y2="165.504"/>
			<line class="st49" x1="-22.88" y1="163.491" x2="-22.88" y2="165.504"/>
			<line class="st49" x1="-25.564" y1="163.491" x2="-25.564" y2="165.504"/>
			<line class="st49" x1="-28.249" y1="163.491" x2="-28.249" y2="165.504"/>
		</g>
	</g>
	<g>
		<rect x="-64.803" y="195.807" class="st50" width="24.65" height="14.79"/>
		<g>
			<g>
				<line class="st48" x1="-60.239" y1="199.624" x2="-60.239" y2="204.372"/>
				<line class="st48" x1="-57.134" y1="199.624" x2="-57.134" y2="204.372"/>
				<line class="st48" x1="-54.031" y1="199.624" x2="-54.031" y2="204.372"/>
				<line class="st48" x1="-50.926" y1="199.624" x2="-50.926" y2="204.372"/>
				<line class="st48" x1="-47.822" y1="199.624" x2="-47.822" y2="204.372"/>
				<line class="st48" x1="-44.719" y1="199.624" x2="-44.719" y2="204.372"/>
			</g>
			<g>
				<line class="st48" x1="-60.239" y1="205.686" x2="-60.239" y2="206.78"/>
				<line class="st48" x1="-57.134" y1="205.686" x2="-57.134" y2="206.78"/>
				<line class="st48" x1="-54.031" y1="205.686" x2="-54.031" y2="206.78"/>
				<line class="st48" x1="-50.926" y1="205.686" x2="-50.926" y2="206.78"/>
				<line class="st48" x1="-47.822" y1="205.686" x2="-47.822" y2="206.78"/>
				<line class="st48" x1="-44.719" y1="205.686" x2="-44.719" y2="206.78"/>
			</g>
		</g>
	</g>
</g>
<g>
	<g>
		<path class="st51" d="M424.699,114.518l0.735,8.534c0.003,0.017,0.005,0.034,0.005,0.05c0.009,0.916-0.413,1.77-1.186,2.408
			c-0.735,0.604-1.705,0.94-2.735,0.951c-1.154,0.014-2.249-0.395-3.006-1.118l0,0c-0.625-0.595-0.974-1.364-0.98-2.162
			c-0.001-0.017,0-0.032,0-0.049l0.535-8.625"/>
		<path class="st52" d="M421.459,127.048c-1.279,0-2.498-0.465-3.352-1.28c-0.741-0.706-1.154-1.623-1.162-2.581
			c0-0.014,0-0.076,0.001-0.09l0.535-8.624c0.021-0.324,0.274-0.566,0.623-0.55c0.323,0.02,0.569,0.299,0.55,0.622l-0.535,8.625
			c0.005,0.646,0.289,1.264,0.798,1.749c0.65,0.62,1.565,0.966,2.594,0.956c0.897-0.009,1.738-0.3,2.369-0.818
			c0.634-0.523,0.98-1.214,0.972-1.948l-0.738-8.54c-0.028-0.323,0.211-0.608,0.534-0.635c0.326-0.026,0.609,0.212,0.635,0.534
			l0.735,8.534c0.002,0.017,0.007,0.084,0.007,0.101c0.011,1.09-0.486,2.107-1.4,2.86c-0.837,0.689-1.938,1.074-3.103,1.085
			C421.501,127.048,421.48,127.048,421.459,127.048z"/>
	</g>
	<g>
		<path class="st17" d="M411.019,110.413c-3.14-2.84-4.953-6.734-5.103-10.964c-0.309-8.566,6.409-15.785,14.975-16.094
			c4.068-0.146,7.97,1.276,10.99,4.008c3.137,2.844,4.949,6.737,5.102,10.968c0.15,4.15-1.327,8.109-4.154,11.147
			c-2.83,3.039-6.672,4.796-10.822,4.946C417.937,114.57,414.037,113.147,411.019,110.413z"/>
		<path class="st17" d="M421.438,115.022c-4.002,0-7.842-1.482-10.813-4.173c-3.259-2.948-5.14-6.99-5.296-11.379
			c-0.154-4.299,1.378-8.406,4.316-11.564c2.938-3.158,6.925-4.982,11.224-5.137c4.228-0.152,8.286,1.338,11.406,4.158
			c3.256,2.951,5.136,6.994,5.294,11.383c0.156,4.304-1.375,8.413-4.31,11.568c-2.937,3.154-6.925,4.976-11.23,5.131
			C421.831,115.018,421.634,115.022,421.438,115.022z"/>
	</g>
	<g>
		<path class="st51" d="M433.181,98.457c0.232,6.467-4.822,11.895-11.285,12.129c-6.465,0.231-11.897-4.82-12.126-11.287
			c-0.234-6.464,4.819-11.894,11.284-12.125C427.52,86.94,432.948,91.993,433.181,98.457z"/>
		<path class="st52" d="M421.469,111.181c-6.654,0-12.051-5.21-12.287-11.86c-0.118-3.282,1.049-6.416,3.287-8.821
			c2.239-2.406,5.28-3.794,8.564-3.912c0.15-0.005,0.301-0.008,0.451-0.008c6.649,0,12.045,5.207,12.285,11.856
			c0.243,6.779-5.073,12.492-11.851,12.738C421.767,111.178,421.617,111.181,421.469,111.181z M421.483,87.754
			c-0.135,0-0.273,0.002-0.409,0.007c-2.97,0.106-5.721,1.363-7.746,3.538c-2.025,2.176-3.08,5.01-2.973,7.979
			c0.219,6.151,5.288,10.945,11.519,10.721c6.13-0.222,10.94-5.39,10.719-11.521C432.378,92.464,427.497,87.754,421.483,87.754z"/>
	</g>
	<g>
		<path class="st51" d="M422.383,123.186c-0.459,0.482-1.217,0.499-1.698,0.04c-0.478-0.456-0.495-1.215-0.04-1.694
			c0.459-0.478,1.215-0.498,1.697-0.04C422.82,121.948,422.837,122.708,422.383,123.186z"/>
		<path class="st52" d="M421.514,124.146c-0.462,0-0.9-0.176-1.235-0.495c-0.711-0.679-0.738-1.81-0.06-2.523
			c0.657-0.687,1.839-0.715,2.526-0.062c0.712,0.68,0.739,1.812,0.063,2.525C422.467,123.949,422.008,124.146,421.514,124.146z
			 M421.514,121.748c-0.17,0-0.328,0.067-0.446,0.191c-0.231,0.243-0.222,0.63,0.021,0.862c0.238,0.228,0.641,0.219,0.868-0.02
			c0.232-0.243,0.222-0.632-0.021-0.865C421.822,121.807,421.672,121.748,421.514,121.748z"/>
	</g>
	<path class="st52" d="M413.145,100.16c-0.27,0-0.512-0.187-0.572-0.461c-0.123-0.56-0.185-1.14-0.185-1.724
		c0-4.565,3.807-8.278,8.486-8.278c0.324,0,0.587,0.263,0.587,0.587c0,0.324-0.263,0.587-0.587,0.587
		c-4.032,0-7.312,3.187-7.312,7.104c0,0.5,0.053,0.995,0.157,1.472c0.07,0.317-0.131,0.63-0.448,0.699
		C413.229,100.157,413.187,100.16,413.145,100.16z"/>
	<g>
		<path class="st53" d="M435.839,89.53c0,0-4.326-0.255-6.109-6.87c0,0-0.379,5.089-5.595,6.87c0,0,4.832,1.145,5.595,8.141
			C429.73,97.671,430.75,90.675,435.839,89.53z"/>
		<path class="st52" d="M429.73,98.258c-0.004,0-0.007,0-0.011,0c-0.295-0.006-0.541-0.23-0.573-0.524
			c-0.71-6.507-5.103-7.622-5.147-7.633c-0.255-0.06-0.439-0.281-0.451-0.543c-0.013-0.261,0.149-0.5,0.397-0.584
			c4.793-1.637,5.196-6.312,5.199-6.358c0.021-0.286,0.245-0.514,0.53-0.541c0.271-0.024,0.548,0.154,0.622,0.431
			c1.639,6.085,5.42,6.426,5.58,6.438c0.29,0.021,0.524,0.252,0.545,0.542c0.022,0.29-0.17,0.553-0.454,0.617
			c-4.642,1.044-5.647,7.586-5.657,7.652C430.269,98.044,430.021,98.258,429.73,98.258z M425.638,89.53
			c1.306,0.726,3.208,2.296,4.172,5.527c0.66-1.851,1.915-4.242,4.206-5.471c-1.286-0.616-2.995-1.949-4.193-4.823
			C429.268,86.274,428.095,88.269,425.638,89.53z"/>
	</g>
</g>
<g>
	<g>
		<path class="st51" d="M-71.581,253.546l0.863,10.015c0.004,0.02,0.005,0.039,0.005,0.059c0.011,1.075-0.484,2.078-1.392,2.826
			c-0.863,0.709-2.001,1.103-3.21,1.116c-1.355,0.016-2.639-0.464-3.527-1.312l0,0c-0.734-0.698-1.143-1.6-1.15-2.537
			c-0.002-0.02,0-0.038,0-0.057l0.628-10.122"/>
		<path class="st52" d="M-75.384,268.251c-1.501,0-2.932-0.546-3.934-1.503c-0.87-0.828-1.355-1.905-1.364-3.03
			c0-0.016,0-0.09,0.001-0.106l0.628-10.121c0.024-0.38,0.321-0.665,0.731-0.646c0.379,0.023,0.668,0.351,0.645,0.73l-0.628,10.122
			c0.006,0.758,0.339,1.484,0.937,2.053c0.763,0.728,1.837,1.134,3.045,1.122c1.053-0.011,2.04-0.352,2.78-0.96
			c0.745-0.614,1.15-1.425,1.141-2.286l-0.866-10.022c-0.033-0.379,0.248-0.713,0.627-0.745c0.382-0.031,0.714,0.248,0.746,0.627
			l0.863,10.015c0.002,0.02,0.008,0.099,0.008,0.118c0.013,1.279-0.571,2.473-1.644,3.357c-0.982,0.808-2.275,1.26-3.641,1.274
			C-75.334,268.251-75.359,268.251-75.384,268.251z"/>
	</g>
	<g>
		<path class="st17" d="M-87.636,248.728c-3.685-3.333-5.813-7.903-5.989-12.867c-0.362-10.053,7.521-18.525,17.574-18.888
			c4.774-0.171,9.353,1.497,12.899,4.704c3.682,3.337,5.808,7.906,5.987,12.873c0.176,4.87-1.557,9.516-4.875,13.082
			c-3.321,3.567-7.83,5.628-12.701,5.804C-79.517,253.607-84.094,251.936-87.636,248.728z"/>
		<path class="st17" d="M-75.408,254.137c-4.696,0-9.203-1.739-12.69-4.897c-3.825-3.46-6.032-8.203-6.215-13.354
			c-0.181-5.045,1.617-9.865,5.066-13.571c3.448-3.706,8.127-5.847,13.172-6.029c4.962-0.178,9.725,1.57,13.386,4.88
			c3.821,3.464,6.028,8.209,6.213,13.36c0.183,5.052-1.614,9.874-5.059,13.577c-3.447,3.701-8.128,5.84-13.18,6.022
			C-74.947,254.132-75.179,254.137-75.408,254.137z"/>
	</g>
	<g>
		<path class="st51" d="M-61.627,234.696c0.273,7.589-5.659,13.961-13.245,14.235c-7.588,0.271-13.963-5.657-14.232-13.247
			c-0.275-7.586,5.655-13.959,13.243-14.23C-68.271,221.18-61.9,227.11-61.627,234.696z"/>
		<path class="st52" d="M-75.373,249.629c-7.809,0-14.143-6.115-14.42-13.919c-0.139-3.852,1.231-7.529,3.858-10.353
			c2.628-2.823,6.196-4.453,10.05-4.591c0.176-0.006,0.353-0.009,0.529-0.009c7.804,0,14.137,6.111,14.417,13.914
			c0.285,7.956-5.954,14.66-13.909,14.949C-75.023,249.625-75.199,249.629-75.373,249.629z M-75.355,222.134
			c-0.159,0-0.32,0.002-0.48,0.008c-3.486,0.125-6.714,1.6-9.09,4.153c-2.376,2.554-3.615,5.88-3.49,9.364
			c0.257,7.219,6.206,12.845,13.519,12.583c7.195-0.26,12.839-6.326,12.58-13.521C-62.569,227.662-68.297,222.134-75.355,222.134z"
			/>
	</g>
	<g>
		<path class="st51" d="M-74.3,263.719c-0.538,0.565-1.428,0.586-1.993,0.047c-0.562-0.536-0.581-1.426-0.047-1.988
			c0.538-0.562,1.426-0.585,1.992-0.047C-73.786,262.265-73.767,263.157-74.3,263.719z"/>
		<path class="st52" d="M-75.319,264.846c-0.542,0-1.057-0.206-1.45-0.581c-0.834-0.797-0.867-2.124-0.07-2.961
			c0.772-0.806,2.158-0.839,2.965-0.073c0.835,0.798,0.867,2.126,0.073,2.963C-74.201,264.614-74.74,264.846-75.319,264.846z
			 M-75.319,262.03c-0.199,0-0.385,0.079-0.524,0.224c-0.271,0.285-0.26,0.739,0.025,1.012c0.279,0.267,0.753,0.257,1.019-0.023
			c0.272-0.285,0.261-0.742-0.025-1.015C-74.958,262.1-75.134,262.03-75.319,262.03z"/>
	</g>
	<path class="st52" d="M-85.141,236.695c-0.317,0-0.601-0.22-0.672-0.541c-0.144-0.657-0.217-1.338-0.217-2.024
		c0-5.357,4.468-9.715,9.96-9.715c0.38,0,0.689,0.309,0.689,0.689c0,0.38-0.309,0.689-0.689,0.689c-4.732,0-8.582,3.74-8.582,8.337
		c0,0.587,0.062,1.168,0.185,1.728c0.082,0.372-0.153,0.739-0.526,0.821C-85.042,236.691-85.092,236.695-85.141,236.695z"/>
	<g>
		<path class="st53" d="M-58.507,224.219c0,0-5.078-0.299-7.17-8.063c0,0-0.445,5.973-6.567,8.063c0,0,5.671,1.344,6.567,9.554
			C-65.677,233.773-64.48,225.563-58.507,224.219z"/>
		<path class="st52" d="M-65.677,234.462c-0.005,0-0.008,0-0.012,0c-0.346-0.007-0.635-0.27-0.672-0.614
			c-0.833-7.637-5.989-8.945-6.041-8.958c-0.299-0.071-0.515-0.33-0.529-0.637c-0.015-0.307,0.175-0.587,0.466-0.685
			c5.626-1.922,6.099-7.407,6.102-7.462c0.025-0.335,0.288-0.604,0.623-0.635c0.318-0.029,0.643,0.181,0.73,0.506
			c1.923,7.141,6.361,7.542,6.549,7.555c0.341,0.025,0.615,0.296,0.64,0.636c0.026,0.341-0.2,0.649-0.533,0.724
			c-5.448,1.225-6.628,8.903-6.639,8.98C-65.044,234.211-65.335,234.462-65.677,234.462z M-70.479,224.219
			c1.532,0.852,3.765,2.695,4.896,6.487c0.774-2.172,2.248-4.979,4.937-6.421c-1.509-0.723-3.515-2.288-4.922-5.66
			C-66.219,220.398-67.596,222.739-70.479,224.219z"/>
	</g>
</g>
<g>
	<path class="st35" d="M155.454,164.389v7.305c-3.685-0.535-6.156,1.986-6.669,2.563c-0.512-0.578-2.983-3.099-6.669-2.563v-7.305
		c0,0-8.512-0.536-10.924,11.126l2.212,3.619c0,0,3.82-3.955,6.233-3.955s2.011,8.579,2.011,8.579s-6.635,4.357-1.542,26.072
		c0,0,5.034,0.58,8.579,0.602v0.001c0.033,0,0.067,0,0.1,0c0.033,0,0.067,0,0.1,0v-0.001c3.545-0.022,8.579-0.602,8.579-0.602
		c5.094-21.715-1.542-26.072-1.542-26.072s-0.402-8.579,2.011-8.579c2.413,0,6.233,3.955,6.233,3.955l2.212-3.619
		C163.966,163.852,155.454,164.389,155.454,164.389z"/>
	<g>
		<g>
			<path class="st0" d="M160.515,189.935c0.684-0.05,1.639,0.305,2.124,0.79l11.103,11.103c0.485,0.485,0.485,1.278,0,1.762
				l-3.657,3.657c-0.485,0.484-1.278,1.278-1.762,1.762l-3.657,3.657c-0.484,0.485-1.278,0.485-1.762,0L151.8,201.563
				c-0.485-0.484-0.84-1.44-0.79-2.124l0.565-7.604c0.051-0.684,0.651-1.284,1.335-1.335L160.515,189.935z"/>
			<path class="st0" d="M153.518,192.443c0.414-0.414,1.084-0.414,1.498,0c0.414,0.414,0.414,1.084,0,1.498
				c-0.414,0.414-1.084,0.414-1.498,0C153.105,193.527,153.105,192.857,153.518,192.443z"/>
			<line class="st0" x1="153.695" y1="192.619" x2="145.91" y2="184.834"/>
			<path class="st7" d="M158.233,194.249c0.195-0.194,0.51-0.194,0.705,0l9.34,9.34c0.195,0.195,0.195,0.51,0,0.705l-2.908,2.908
				c-0.194,0.194-0.51,0.194-0.705,0l-9.34-9.34c-0.194-0.194-0.195-0.51,0-0.705L158.233,194.249z"/>
		</g>
		<line class="st0" x1="150.979" y1="193.212" x2="142.861" y2="192.553"/>
	</g>
</g>
<g>
	<path class="st35" d="M29.806,2.681v7.305c-3.685-0.535-6.156,1.986-6.669,2.563c-0.512-0.578-2.983-3.099-6.669-2.563V2.681
		c0,0-8.512-0.536-10.924,11.126l2.212,3.619c0,0,3.82-3.955,6.233-3.955s2.011,8.579,2.011,8.579s-6.635,4.357-1.542,26.072
		c0,0,5.034,0.58,8.579,0.602v0.001c0.033,0,0.067,0,0.1,0c0.033,0,0.067,0,0.1,0v-0.001c3.545-0.022,8.579-0.602,8.579-0.602
		c5.094-21.715-1.542-26.072-1.542-26.072s-0.402-8.579,2.011-8.579c2.413,0,6.233,3.955,6.233,3.955l2.212-3.619
		C38.317,2.145,29.806,2.681,29.806,2.681z"/>
	<g>
		<g>
			<path class="st0" d="M34.866,28.228c0.684-0.05,1.639,0.305,2.124,0.79L48.093,40.12c0.485,0.485,0.485,1.278,0,1.762
				l-3.657,3.657c-0.485,0.484-1.278,1.278-1.762,1.762l-3.657,3.657c-0.484,0.485-1.278,0.485-1.762,0L26.152,39.856
				c-0.485-0.484-0.84-1.44-0.79-2.124l0.565-7.604c0.051-0.684,0.651-1.284,1.335-1.335L34.866,28.228z"/>
			<path class="st0" d="M27.87,30.736c0.414-0.414,1.084-0.414,1.498,0c0.414,0.414,0.414,1.084,0,1.498
				c-0.414,0.414-1.084,0.414-1.498,0C27.456,31.82,27.456,31.15,27.87,30.736z"/>
			<line class="st0" x1="28.046" y1="30.912" x2="20.261" y2="23.127"/>
			<path class="st7" d="M32.584,32.542c0.195-0.194,0.51-0.194,0.705,0l9.34,9.34c0.195,0.195,0.195,0.51,0,0.705l-2.908,2.908
				c-0.194,0.194-0.51,0.194-0.705,0l-9.34-9.34c-0.194-0.194-0.195-0.51,0-0.705L32.584,32.542z"/>
		</g>
		<line class="st0" x1="25.33" y1="31.504" x2="17.212" y2="30.846"/>
	</g>
</g>
<g>
	<g>
		<g>
			<g>
				<path class="st54" d="M222.995,173.372c-0.081,0-0.161,0.007-0.241,0.012v28.675c0.08-0.005,0.159-0.012,0.241-0.012h27.689
					v-28.675H222.995z"/>
				<path class="st55" d="M218.887,177.48v28.675c0-2.187,1.711-3.971,3.868-4.096v-28.675
					C220.598,173.509,218.887,175.292,218.887,177.48z"/>
			</g>
			<path class="st56" d="M222.995,173.372c-2.269,0-4.108,1.839-4.108,4.108v28.675c0-2.269,1.84-4.108,4.108-4.108h27.689v-28.675
				H222.995z"/>
			<path class="st56" d="M218.887,206.155v0.518c0,2.269,1.84,4.108,4.108,4.108h27.689v-8.734h-27.689
				C220.726,202.047,218.887,203.886,218.887,206.155z"/>
			<line class="st56" x1="250.695" y1="204.981" x2="223.735" y2="204.981"/>
			<line class="st56" x1="250.695" y1="207.677" x2="223.735" y2="207.677"/>
		</g>
		<rect x="228.111" y="177.688" class="st57" width="17.266" height="6.309"/>
	</g>
	<g>
		<g>
			<g>
				<path class="st58" d="M262.479,166.919c0.573,0.783,0.915,1.746,0.915,2.791v20.314c0,2.617-2.122,4.739-4.739,4.739h-13.662
					c-0.565,0-1.104-0.104-1.607-0.286c0.862,1.179,2.252,1.948,3.824,1.948h13.662c2.617,0,4.739-2.122,4.739-4.739v-20.313
					C265.611,169.321,264.304,167.578,262.479,166.919z"/>
				<path class="st59" d="M262.479,166.919c-0.503-0.182-1.042-0.286-1.607-0.286H247.21c-2.617,0-4.739,2.122-4.739,4.739v11.888
					l-4.988,4.988l-1.663,1.663h6.651v1.773c0,1.045,0.342,2.007,0.915,2.791c0.503,0.182,1.042,0.286,1.607,0.286h13.662
					c2.617,0,4.739-2.122,4.739-4.739V169.71C263.394,168.665,263.052,167.703,262.479,166.919z"/>
			</g>
			<path class="st56" d="M260.872,166.634H247.21c-2.617,0-4.739,2.122-4.739,4.739v11.888l-6.651,6.652h6.651v1.773
				c0,2.617,2.122,4.739,4.739,4.739h13.662c2.617,0,4.739-2.122,4.739-4.739v-20.313
				C265.611,168.756,263.49,166.634,260.872,166.634z"/>
		</g>
		<g>
			<line class="st56" x1="248.349" y1="173.522" x2="260.069" y2="173.522"/>
			<line class="st56" x1="248.349" y1="177.402" x2="260.069" y2="177.402"/>
			<line class="st56" x1="248.349" y1="181.282" x2="260.069" y2="181.282"/>
			<line class="st56" x1="248.349" y1="185.161" x2="260.069" y2="185.161"/>
			<line class="st56" x1="248.349" y1="189.041" x2="260.069" y2="189.041"/>
		</g>
	</g>
</g>
<g>
	<g>
		<rect x="313.212" y="165.099" class="st56" width="16.67" height="4.972"/>
		<polygon class="st56" points="329.883,170.07 313.212,170.07 310.58,174.609 332.517,174.609 		"/>
		<rect x="310.58" y="174.609" class="st56" width="21.938" height="23.615"/>
	</g>
	<g>
		<path class="st60" d="M353.115,201.888c-0.003,0.445-0.094,0.88-0.257,1.303c-1.35,3.492-7.949,6.141-15.891,6.141
			c-7.944,0-14.544-2.652-15.893-6.146c-0.162-0.421-0.253-0.855-0.254-1.299h-0.001v3.979c1.084,3.64,7.898,6.448,16.147,6.449
			c8.256,0.003,15.075-2.806,16.152-6.449v-3.979H353.115z"/>
		<path class="st61" d="M353.117,202.083c0,4.122-7.23,7.463-16.149,7.463c-8.918,0-16.148-3.342-16.148-7.463
			c0-4.123,7.23-7.463,16.148-7.463C345.887,194.619,353.117,197.96,353.117,202.083z"/>
	</g>
	<g>
		<path class="st60" d="M353.115,197.076c-0.003,0.445-0.094,0.88-0.257,1.303c-1.35,3.493-7.949,6.142-15.891,6.142
			c-7.944,0-14.544-2.652-15.893-6.145c-0.162-0.421-0.253-0.856-0.254-1.299h-0.001v3.98c1.084,3.641,7.898,6.447,16.147,6.449
			c8.256,0.002,15.075-2.807,16.152-6.45v-3.979H353.115z"/>
		<path class="st61" d="M353.117,197.27c0,4.122-7.23,7.463-16.149,7.463c-8.918,0-16.148-3.341-16.148-7.463
			c0-4.122,7.23-7.464,16.148-7.464C345.887,189.806,353.117,193.148,353.117,197.27z"/>
	</g>
	<g>
		<path class="st60" d="M353.115,192.263c-0.003,0.445-0.094,0.881-0.257,1.303c-1.35,3.491-7.949,6.141-15.891,6.141
			c-7.944,0-14.544-2.652-15.893-6.145c-0.162-0.422-0.253-0.856-0.254-1.3h-0.001v3.98c1.084,3.641,7.898,6.447,16.147,6.449
			c8.256,0.003,15.075-2.806,16.152-6.45v-3.979H353.115z"/>
		<path class="st61" d="M353.117,192.458c0,4.121-7.23,7.462-16.149,7.462c-8.918,0-16.148-3.341-16.148-7.462
			c0-4.123,7.23-7.464,16.148-7.464C345.887,184.994,353.117,188.335,353.117,192.458z"/>
	</g>
	<g>
		<path class="st60" d="M353.115,187.451c-0.003,0.445-0.094,0.88-0.257,1.303c-1.35,3.492-7.949,6.141-15.891,6.141
			c-7.944,0-14.544-2.652-15.893-6.144c-0.162-0.422-0.253-0.857-0.254-1.3h-0.001v3.98c1.084,3.64,7.898,6.447,16.147,6.448
			c8.256,0.003,15.075-2.806,16.152-6.45v-3.978H353.115z"/>
		<g>
			<path class="st62" d="M349.861,183.152c0.047,0.231,0.073,0.465,0.073,0.702c0,4.121-7.231,7.463-16.149,7.463
				c-5.268,0-9.945-1.166-12.892-2.97c0.765,3.792,7.668,6.762,16.075,6.762c8.918,0,16.149-3.342,16.149-7.463
				C353.117,185.958,351.904,184.401,349.861,183.152z"/>
			<path class="st63" d="M349.934,183.854c0-0.237-0.027-0.471-0.073-0.702c-2.948-1.803-7.625-2.969-12.893-2.969
				c-8.918,0-16.148,3.341-16.148,7.464c0,0.236,0.027,0.47,0.073,0.701c2.948,1.804,7.625,2.97,12.892,2.97
				C342.704,191.317,349.934,187.975,349.934,183.854z"/>
		</g>
		<path class="st56" d="M353.117,187.646c0,4.121-7.23,7.463-16.149,7.463c-8.918,0-16.148-3.342-16.148-7.463
			c0-4.123,7.23-7.464,16.148-7.464C345.887,180.182,353.117,183.523,353.117,187.646z"/>
	</g>
	<g>
		<rect x="333.132" y="178.385" class="st61" width="7.675" height="9.948"/>
		<rect x="333.132" y="184.13" class="st61" width="7.675" height="4.203"/>
	</g>
</g>
<g>
	<g>
		<g>
			<line class="st64" x1="439.875" y1="166.089" x2="443.161" y2="166.089"/>
			<line class="st64" x1="441.518" y1="167.732" x2="441.518" y2="164.446"/>
		</g>
		<g>
			<line class="st64" x1="407.876" y1="189.937" x2="411.162" y2="189.937"/>
			<line class="st64" x1="409.519" y1="191.58" x2="409.519" y2="188.294"/>
		</g>
		<g>
			<g>
				<path class="st65" d="M433.235,212.781c-1.796-10.512,0-14.979,0-14.979c2.155-2.605,2.783-4.558,2.783-4.558v-8.745
					c0.18-2.512,3.501-4.093,3.501-4.093h1.616c3.681-1.581,2.873-4.838,2.873-4.838h-3.681c-1.796-3.349-4.669-3.535-4.669-3.535
					c-0.539-2.698-2.334-3.21-2.334-3.21s-0.269,2.651-0.943,3.907c0,0-3.232,3.907-3.636,7.954l-10.504,13.675
					c0,0-2.963,2.651-2.963,8.931c0,0,0.539,6.488-7.407,4.116c0,0-3.906-1.256-2.155-6.279c0,0,0.673-2.791,2.02-3.628
					c-0.171,0.025-6.507,1.851-4.882,10.187c0,0,0.393,4.279,5.78,4.465c0,0,8.786,0.645,10.953-2.348v2.783L433.235,212.781z"/>
			</g>
		</g>
		<g>
			<g>
				<path class="st66" d="M430.799,212.781c-1.874-10.588,0-15.087,0-15.087c2.249-2.624,2.905-4.591,2.905-4.591v-8.808
					c0.187-2.53,3.654-4.123,3.654-4.123h1.687c3.842-1.593,2.998-4.872,2.998-4.872h-3.842c-1.874-3.373-4.872-3.561-4.872-3.561
					c-0.562-2.717-2.436-3.233-2.436-3.233s-0.281,2.67-0.984,3.935c0,0-3.373,3.935-3.795,8.011l-10.963,13.774
					c0,0-3.092,2.67-3.092,8.995c0,0,0.562,6.535-7.73,4.146c0,0-4.076-1.265-2.249-6.325c0,0,0.703-2.811,2.108-3.654
					c-0.178,0.025-6.791,1.865-5.095,10.26c0,0,0.41,4.31,6.032,4.498c0,0,9.169,0.65,11.432-2.365"/>
				<path class="st66" d="M419.367,198.584c0,0,6.887,1.032,6.606,14.384h-8.539c0,0-0.196-3.9-2.257-3.9"/>
				<line class="st66" x1="435.671" y1="212.968" x2="425.27" y2="212.968"/>
				<polyline class="st66" points="433.704,184.295 426.489,180.359 404.086,173.503 				"/>
				<line class="st66" x1="438.688" y1="212.968" x2="436.811" y2="212.968"/>
			</g>
			<circle class="st67" cx="434.848" cy="175.119" r="0.612"/>
			<circle class="st67" cx="426.849" cy="182.221" r="0.394"/>
			<circle class="st67" cx="428.603" cy="183.163" r="0.394"/>
			<circle class="st67" cx="430.358" cy="184.105" r="0.394"/>
			<circle class="st67" cx="432.112" cy="185.047" r="0.394"/>
			<circle class="st68" cx="441.731" cy="175.574" r="1.322"/>
		</g>
	</g>
	<line class="st66" x1="424.361" y1="182.559" x2="433.367" y2="187.439"/>
</g>
<g>
	<ellipse class="st23" cx="512.257" cy="-3.603" rx="4.913" ry="9.176"/>
	
		<ellipse transform="matrix(0.9397 -0.342 0.342 0.9397 31.4181 173.0831)" class="st27" cx="506.51" cy="-2.549" rx="4.913" ry="9.176"/>
	
		<ellipse transform="matrix(0.766 -0.6428 0.6428 0.766 117.06 322.4344)" class="st17" cx="501.471" cy="0.407" rx="4.913" ry="9.176"/>
	<ellipse transform="matrix(0.5 -0.866 0.866 0.5 244.6216 433.515)" class="st30" cx="497.746" cy="4.909" rx="4.913" ry="9.176"/>
	
		<ellipse transform="matrix(0.1736 -0.9848 0.9848 0.1736 399.4381 496.858)" class="st0" cx="495.785" cy="10.413" rx="4.913" ry="9.176"/>
	
		<ellipse transform="matrix(0.9848 -0.1736 0.1736 0.9848 4.7099 86.3462)" class="st17" cx="495.825" cy="16.256" rx="9.176" ry="4.913"/>
	
		<ellipse transform="matrix(0.866 -0.5 0.5 0.866 55.8346 251.8424)" class="st30" cx="497.862" cy="21.733" rx="9.176" ry="4.913"/>
	
		<ellipse transform="matrix(0.6428 -0.766 0.766 0.6428 159.138 393.6374)" class="st27" cx="501.648" cy="26.182" rx="9.176" ry="4.913"/>
	
		<ellipse transform="matrix(0.342 -0.9397 0.9397 0.342 306.101 495.2955)" class="st17" cx="506.728" cy="29.069" rx="9.176" ry="4.913"/>
	<ellipse class="st0" cx="512.489" cy="30.044" rx="4.913" ry="9.176"/>
	
		<ellipse transform="matrix(0.9397 -0.342 0.342 0.9397 21.3384 178.9955)" class="st27" cx="518.236" cy="28.99" rx="4.913" ry="9.176"/>
	
		<ellipse transform="matrix(0.766 -0.6428 0.6428 0.766 105.6893 342.446)" class="st30" cx="523.276" cy="26.033" rx="4.913" ry="9.176"/>
	<ellipse transform="matrix(0.5 -0.866 0.866 0.5 244.8533 467.162)" class="st0" cx="527.001" cy="21.532" rx="4.913" ry="9.176"/>
	
		<ellipse transform="matrix(0.1736 -0.9848 0.9848 0.1736 421.324 534.1697)" class="st17" cx="528.961" cy="16.028" rx="4.913" ry="9.176"/>
	
		<ellipse transform="matrix(0.9848 -0.1736 0.1736 0.9848 6.2669 92.0009)" class="st0" cx="528.921" cy="10.185" rx="9.176" ry="4.913"/>
	<ellipse transform="matrix(0.866 -0.5 0.5 0.866 68.2351 264.0733)" class="st17" cx="526.885" cy="4.708" rx="9.176" ry="4.913"/>
	
		<ellipse transform="matrix(0.6428 -0.766 0.766 0.6428 186.6593 400.809)" class="st27" cx="523.099" cy="0.258" rx="9.176" ry="4.913"/>
	
		<ellipse transform="matrix(0.342 -0.9397 0.9397 0.342 343.3153 485.0488)" class="st30" cx="518.018" cy="-2.628" rx="9.176" ry="4.913"/>
	<g>
		<path class="st12" d="M514.173,11.635c0.553-2.818-1.138-6.544-2.569-9.059c-5.069,0.4-9.059,4.638-9.059,9.81
			c0,5.437,4.407,9.844,9.844,9.844c0.294,0,0.585-0.015,0.872-0.041C511.878,19.048,513.404,15.546,514.173,11.635z"/>
		<path class="st12" d="M522.232,12.386c0-5.437-4.407-9.844-9.844-9.844c-0.264,0-0.525,0.013-0.784,0.034
			c1.43,2.515,3.122,6.241,2.569,9.059c-0.768,3.911-2.295,7.413-0.912,10.554C518.288,21.747,522.232,17.529,522.232,12.386z"/>
	</g>
	<g>
		<circle class="st41" cx="508.932" cy="11.524" r="0.665"/>
		<circle class="st41" cx="516.401" cy="11.524" r="0.665"/>
	</g>
	<path class="st42" d="M509.745,16.307c0,0,3.087,1.919,6.09,0"/>
</g>
<g>
	<ellipse class="st23" cx="-98.03" cy="136.948" rx="4.913" ry="9.176"/>
	
		<ellipse transform="matrix(0.9397 -0.342 0.342 0.9397 -53.4581 -27.1711)" class="st27" cx="-103.777" cy="138.002" rx="4.913" ry="9.176"/>
	
		<ellipse transform="matrix(0.766 -0.6428 0.6428 0.766 -116.0647 -36.9677)" class="st17" cx="-108.816" cy="140.959" rx="4.913" ry="9.176"/>
	
		<ellipse transform="matrix(0.5 -0.866 0.866 0.5 -182.243 -24.7333)" class="st30" cx="-112.541" cy="145.46" rx="4.913" ry="9.176"/>
	
		<ellipse transform="matrix(0.1736 -0.9848 0.9848 0.1736 -243.2897 11.9876)" class="st0" cx="-114.502" cy="150.965" rx="4.913" ry="9.176"/>
	
		<ellipse transform="matrix(0.9848 -0.1736 0.1736 0.9848 -28.9682 -17.4938)" class="st17" cx="-114.461" cy="156.807" rx="9.176" ry="4.913"/>
	
		<ellipse transform="matrix(0.866 -0.5 0.5 0.866 -96.2041 -34.4707)" class="st30" cx="-112.425" cy="162.284" rx="9.176" ry="4.913"/>
	
		<ellipse transform="matrix(0.6428 -0.766 0.766 0.6428 -166.5327 -23.6628)" class="st27" cx="-108.639" cy="166.734" rx="9.176" ry="4.913"/>
	
		<ellipse transform="matrix(0.342 -0.9397 0.9397 0.342 -227.5306 14.2934)" class="st17" cx="-103.559" cy="169.62" rx="9.176" ry="4.913"/>
	<ellipse class="st0" cx="-97.798" cy="170.595" rx="4.913" ry="9.176"/>
	
		<ellipse transform="matrix(0.9397 -0.342 0.342 0.9397 -63.5378 -21.2586)" class="st27" cx="-92.051" cy="169.541" rx="4.913" ry="9.176"/>
	
		<ellipse transform="matrix(0.766 -0.6428 0.6428 0.766 -127.4354 -16.9561)" class="st30" cx="-87.011" cy="166.585" rx="4.913" ry="9.176"/>
	
		<ellipse transform="matrix(0.5 -0.866 0.866 0.5 -182.0112 8.9137)" class="st0" cx="-83.286" cy="162.083" rx="4.913" ry="9.176"/>
	
		<ellipse transform="matrix(0.1736 -0.9848 0.9848 0.1736 -221.4038 49.2993)" class="st17" cx="-81.326" cy="156.579" rx="4.913" ry="9.176"/>
	
		<ellipse transform="matrix(0.9848 -0.1736 0.1736 0.9848 -27.4112 -11.839)" class="st0" cx="-81.366" cy="150.736" rx="9.176" ry="4.913"/>
	
		<ellipse transform="matrix(0.866 -0.5 0.5 0.866 -83.8036 -22.2399)" class="st17" cx="-83.402" cy="145.26" rx="9.176" ry="4.913"/>
	
		<ellipse transform="matrix(0.6428 -0.766 0.766 0.6428 -139.0113 -16.4912)" class="st27" cx="-87.188" cy="140.81" rx="9.176" ry="4.913"/>
	
		<ellipse transform="matrix(0.342 -0.9397 0.9397 0.342 -190.3163 4.0466)" class="st30" cx="-92.269" cy="137.923" rx="9.176" ry="4.913"/>
	<g>
		<path class="st12" d="M-96.114,152.187c0.553-2.818-1.138-6.544-2.569-9.059c-5.069,0.4-9.059,4.638-9.059,9.81
			c0,5.437,4.407,9.844,9.844,9.844c0.294,0,0.585-0.015,0.873-0.041C-98.409,159.599-96.883,156.098-96.114,152.187z"/>
		<path class="st12" d="M-88.055,152.938c0-5.437-4.407-9.844-9.844-9.844c-0.264,0-0.525,0.013-0.784,0.034
			c1.43,2.515,3.122,6.241,2.569,9.059c-0.768,3.911-2.295,7.413-0.912,10.554C-91.998,162.299-88.055,158.08-88.055,152.938z"/>
	</g>
	<g>
		<circle class="st41" cx="-101.355" cy="152.076" r="0.665"/>
		<circle class="st41" cx="-93.886" cy="152.076" r="0.665"/>
	</g>
	<path class="st42" d="M-100.541,156.858c0,0,3.087,1.919,6.09,0"/>
</g>
</svg>
