<?xml version="1.0" encoding="utf-8"?>
<!-- Generator: Adobe Illustrator 26.0.2, SVG Export Plug-In . SVG Version: 6.00 Build 0)  -->
<svg version="1.1" id="레이어_1" xmlns="http://www.w3.org/2000/svg" xmlns:xlink="http://www.w3.org/1999/xlink" x="0px"
	 y="0px" viewBox="0 0 40.739 50" style="enable-background:new 0 0 40.739 50;" xml:space="preserve">
<style type="text/css">
	.st0{fill:#333333;}
</style>
<g>
	<g>
		<g>
			<polygon class="st0" points="36.121,49.447 4.538,49.447 4.538,22.598 5.974,22.598 5.974,48.012 34.685,48.012 34.685,22.598 
				36.121,22.598 			"/>
			<polygon class="st0" points="40.064,23.174 25.103,23.174 25.103,21.76 38.65,21.76 38.65,13.318 2.025,13.318 2.025,21.76 
				16.139,21.76 16.139,23.174 0.611,23.174 0.611,11.904 40.064,11.904 			"/>
		</g>
		<path class="st0" d="M25.821,49.47H15.389V11.994h10.432V49.47z M16.825,48.035h7.56V13.429h-7.56V48.035z"/>
	</g>
	<path class="st0" d="M21.903,12.872l-10.217-0.044c-3.21-0.157-5.687-1.267-7.007-3.129c-0.951-1.341-1.21-2.978-0.727-4.61
		l0.041-0.138C4.643,2.75,6.835,0.522,9.767,0.522c1.565,0,3.161,0.653,4.617,1.889c0.712,0.605,1.368,1.357,2.005,2.3
		L21.903,12.872z M9.767,2.064c-2.175,0-3.807,1.672-4.295,3.324L5.43,5.527C5.08,6.712,5.254,7.847,5.936,8.807
		c1.041,1.467,3.097,2.348,5.79,2.48l7.265,0.031l-3.88-5.744c-0.558-0.825-1.122-1.475-1.726-1.987
		C12.196,2.576,10.978,2.064,9.767,2.064z"/>
	<path class="st0" d="M18.992,12.872l5.514-8.162c0.637-0.943,1.293-1.695,2.006-2.3c1.455-1.235,3.052-1.888,4.616-1.888
		c2.932,0,5.124,2.228,5.775,4.429l0.041,0.138c0.482,1.632,0.224,3.27-0.727,4.61c-1.321,1.861-3.797,2.972-6.974,3.128
		L18.992,12.872z M31.128,2.064c-1.211,0-2.428,0.512-3.618,1.522c-0.604,0.513-1.169,1.163-1.726,1.988l-3.88,5.744l7.299-0.031
		c2.659-0.131,4.716-1.012,5.757-2.479c0.682-0.96,0.857-2.094,0.506-3.28l-0.041-0.138C34.936,3.736,33.303,2.064,31.128,2.064z"/>
</g>
</svg>
