<?xml version="1.0" encoding="utf-8"?>
<!-- Generator: Adobe Illustrator 26.0.2, SVG Export Plug-In . SVG Version: 6.00 Build 0)  -->
<svg version="1.1" id="레이어_1" xmlns="http://www.w3.org/2000/svg" xmlns:xlink="http://www.w3.org/1999/xlink" x="0px"
	 y="0px" viewBox="0 0 57.1 116.8" style="enable-background:new 0 0 57.1 116.8;" xml:space="preserve">
<style type="text/css">
	.st0{fill:none;stroke:#231815;stroke-width:0.2;stroke-linecap:round;stroke-miterlimit:10;}
	.st1{fill:none;stroke:#231815;stroke-width:0.2;stroke-linecap:round;stroke-linejoin:round;stroke-miterlimit:10;}
	.st2{fill:none;stroke:#231815;stroke-width:0.2;stroke-miterlimit:10;}
	.st3{fill:#231815;}
	.st4{fill:none;stroke:#231815;stroke-width:0.3;stroke-miterlimit:10;}
	.st5{fill:#E6E6E6;stroke:#231815;stroke-width:0.3;stroke-miterlimit:10;}
	.st6{fill:#FFFFFF;}
	.st7{fill:#CCCCCC;}
	.st8{fill:none;stroke:#808080;stroke-width:2;stroke-linecap:round;stroke-miterlimit:10;}
	.st9{fill:none;stroke:#525252;stroke-width:0.5;stroke-miterlimit:10;}
	.st10{fill:#FF4500;}
	.st11{fill:none;stroke:#666666;stroke-width:0.3;stroke-miterlimit:10;}
	.st12{fill:none;stroke:#666666;stroke-width:0.5;stroke-miterlimit:10;}
	.st13{fill:none;stroke:#666666;stroke-width:0.5;stroke-linecap:round;stroke-linejoin:round;stroke-miterlimit:10;}
	.st14{fill:none;stroke:#FF4500;stroke-width:0.5;stroke-linecap:round;stroke-linejoin:round;stroke-miterlimit:10;}
	.st15{fill:none;stroke:#FF4500;stroke-width:0.3;stroke-linecap:round;stroke-linejoin:round;stroke-miterlimit:10;}
	.st16{fill:#CC3405;}
	.st17{fill:none;stroke:#5B5B5B;stroke-linecap:round;stroke-linejoin:round;stroke-miterlimit:10;}
	.st18{fill:#5B5B5B;}
	.st19{fill:#D3D3D3;}
	.st20{opacity:0.5;fill:#FF4500;enable-background:new    ;}
	.st21{opacity:0.5;}
	.st22{fill:none;stroke:#FF4500;stroke-miterlimit:10;}
	.st23{fill:none;stroke:#FF4500;stroke-linecap:round;stroke-miterlimit:10;}
	.st24{fill:none;stroke:#FF4500;stroke-linecap:round;stroke-linejoin:round;stroke-miterlimit:10;}
	.st25{fill:none;}
	.st26{fill:none;stroke:#EB212C;stroke-miterlimit:10;}
	.st27{fill:#EB212C;}
	.st28{fill:none;stroke:#FFFFFF;stroke-linecap:round;stroke-linejoin:round;stroke-miterlimit:10;}
	.st29{fill:none;stroke:#EB212C;stroke-linecap:round;stroke-linejoin:round;stroke-miterlimit:10;}
	.st30{fill:#161616;}
	.st31{fill:#161616;stroke:#FFFDFF;stroke-miterlimit:10;}
	.st32{fill:none;stroke:#EB212C;stroke-width:2;stroke-miterlimit:10;}
	.st33{fill:none;stroke:#161616;stroke-width:2;stroke-miterlimit:10;}
	.st34{fill:none;stroke:#161616;stroke-width:2;stroke-linecap:round;stroke-linejoin:round;stroke-miterlimit:10;}
	.st35{fill:none;stroke:#EB212C;stroke-width:2;stroke-linecap:round;stroke-linejoin:round;stroke-miterlimit:10;}
	.st36{fill:#161616;stroke:#FFFFFF;stroke-linecap:round;stroke-linejoin:round;stroke-miterlimit:10;}
	.st37{fill:#1ECD00;}
	.st38{fill:#B2B2B2;}
	.st39{fill:none;stroke:#FFFFFF;stroke-width:2;stroke-miterlimit:10;}
	.st40{fill:#3BBC20;}
	.st41{fill:#D33C52;}
	.st42{fill:#D33C52;stroke:#FFFFFF;stroke-width:2;stroke-miterlimit:10;}
	.st43{fill:#E23737;}
	.st44{fill:#5886F9;}
	.st45{fill:none;stroke:#E2E2E2;stroke-width:2;stroke-miterlimit:10;}
	.st46{fill:#E2E2E2;}
	.st47{fill:#FFC112;}
	.st48{fill:#FFE52C;}
	.st49{fill:#E5E5E5;}
	.st50{fill:none;stroke:#E5E5E5;stroke-linecap:round;stroke-linejoin:round;stroke-miterlimit:10;}
	.st51{fill:#F7F7F7;}
	.st52{fill:none;stroke:#000000;stroke-width:0.5;stroke-miterlimit:10;}
	.st53{enable-background:new    ;}
	.st54{fill:none;stroke:#3BBC20;stroke-width:2;stroke-miterlimit:10;}
	.st55{fill:none;stroke:url(#SVGID_1_);stroke-width:2;stroke-miterlimit:10;}
	.st56{fill:none;stroke:url(#SVGID_00000122705781936243794480000004046031836512656057_);stroke-width:2;stroke-miterlimit:10;}
	.st57{fill:none;stroke:url(#SVGID_00000071555181359871001230000013866357197041971874_);stroke-width:2;stroke-miterlimit:10;}
	.st58{fill:none;stroke:url(#SVGID_00000102543799597325500760000013138981348228282811_);stroke-width:2;stroke-miterlimit:10;}
	.st59{fill:none;stroke:#E23737;stroke-width:2;stroke-miterlimit:10;}
	.st60{fill:none;stroke:#5886F9;stroke-width:2;stroke-miterlimit:10;}
	.st61{fill:none;stroke:#E2E2E2;stroke-width:2;stroke-linecap:round;stroke-miterlimit:10;}
	.st62{fill:none;stroke:#FBB03B;stroke-width:2;stroke-miterlimit:10;}
	.st63{fill:none;stroke:#FBB03B;stroke-width:2;stroke-linecap:round;stroke-miterlimit:10;}
</style>
<g>
	<path class="st0" d="M595.5-234.4v2.1c0,0.6-0.5,1.1-1.1,1.1H591c-0.6,0-1.1-0.5-1.1-1.1v-13.3c0-0.6,0.5-1.1,1.1-1.1h3.4
		c0.6,0,1.1,0.5,1.1,1.1v9.2"/>
	<path class="st1" d="M595.5-234.4"/>
	<path class="st1" d="M595.5-236.3"/>
	<path class="st2" d="M613.3-242.3c1.3,0,2.3,1.5,2.3,3.3s-1,3.3-2.3,3.3"/>
	<g>
		<path class="st0" d="M579.3-242.9c-1,1.1-1.5,2.5-1.5,4c0,3.4,3,6.3,7,6.9"/>
		<path class="st1" d="M579.3-242.9"/>
		<path class="st1" d="M581.6-244.7"/>
		<path class="st0" d="M589.9-245.8c-1.2,0-2.2,0-2.8,0c-0.3,0-0.6,0-0.9,0c-1.7,0-3.3,0.4-4.6,1.1"/>
		<path class="st0" d="M597.3-231.1c11.8,2.3,13.6,8.4,13.6,8.4h2.3v-31.8h-2.7c-2.9,5.3-9.6,7.4-15.2,8.2"/>
		<path class="st2" d="M595.2-231.4"/>
		<line class="st1" x1="592.3" y1="-228.2" x2="595.9" y2="-228.2"/>
		<path class="st1" d="M590-231.9c-1.2,0-2.5-0.1-3.8,0c-0.5,0-0.9,0-1.4-0.1l0.4,2.8c0.1,0.6,0.7,1.1,1.3,1.1h2.8"/>
		<path class="st2" d="M595.2-231.4c0.7,0.1,1.4,0.2,2.1,0.3"/>
		<path class="st2" d="M595.2-231.4C595.2-231.4,595.2-231.4,595.2-231.4"/>
		<path class="st2" d="M584.8-232c0.5,0.1,0.9,0.1,1.4,0.1c1.3,0,2.6,0,3.8,0"/>
	</g>
	<path class="st2" d="M593.3-228.2l2.3,11.2c0.1,0.4-0.2,0.8-0.7,0.8H591c-0.3,0-0.6-0.2-0.7-0.6l-2.3-11.5"/>
	<path class="st2" d="M593.3-228.2"/>
	<path class="st2" d="M588-228.2"/>
</g>
<g>
	<g>
		<path class="st0" d="M593.4-188.5c-4.2-5-6-10.2-3.8-12.4c2.4-2.5,9,0.1,14.6,5.6s8.3,12.1,5.9,14.5c-2.2,2.2-7.8,0.4-13.1-4.2"/>
		<path class="st0" d="M589.5-172.6l-9.4,3.6c-1.1,0.4-2.1-0.6-1.7-1.7l4.9-13.5l5.5-15"/>
		<path class="st0" d="M589.5-172.6"/>
		<path class="st0" d="M595.4-174.9"/>
		<line class="st0" x1="608.8" y1="-180" x2="595.4" y2="-174.9"/>
	</g>
	<circle class="st2" cx="607.3" cy="-196.8" r="1.5"/>
	<circle class="st2" cx="612.8" cy="-191.6" r="1.5"/>
	<circle class="st2" cx="605.9" cy="-189.3" r="0.8"/>
	<circle class="st3" cx="614.2" cy="-197.9" r="1"/>
	<circle class="st3" cx="601.6" cy="-204.6" r="1"/>
	<polygon class="st3" points="610.1,-205.4 611.4,-205.9 610.7,-204.6 611.4,-203.3 610.1,-203.9 608.8,-203.3 609.4,-204.6 
		608.8,-205.9 	"/>
	<polygon class="st3" points="599.8,-196.1 601.5,-196.8 600.6,-195.1 601.5,-193.4 599.8,-194.2 598.1,-193.4 598.9,-195.1 
		598.1,-196.8 	"/>
	<line class="st1" x1="588.6" y1="-192.2" x2="585.5" y2="-183.5"/>
	<line class="st1" x1="585.1" y1="-182.5" x2="583.6" y2="-178.2"/>
</g>
<rect x="577.5" y="-254.2" class="st4" width="38.6" height="38"/>
<rect x="577.5" y="-206.4" class="st4" width="38.6" height="38"/>
<rect x="577.5" y="-113.2" class="st5" width="38.6" height="38"/>
<rect x="577.5" y="-161.3" class="st4" width="38.6" height="38"/>
<g>
	<g>
		<polyline class="st2" points="606.6,-149.8 610.2,-149 610.2,-132 596.8,-128.7 583.4,-132 583.4,-148.8 586.9,-149.7 		"/>
		<path class="st2" d="M606.6-149.8"/>
		<path class="st2" d="M586.9-149.7"/>
		<polyline class="st2" points="583.4,-148.8 596.8,-145.5 596.8,-128.7 		"/>
		<line class="st2" x1="596.8" y1="-145.5" x2="610.2" y2="-149"/>
	</g>
	<polygon class="st2" points="605.8,-130.9 602.8,-130.2 602.8,-147.1 605.8,-147.8 	"/>
	<polygon class="st2" points="590.1,-130.3 587.8,-130.9 587.8,-147.7 590.1,-147.2 	"/>
	<path class="st2" d="M586.9-149.7c-0.1-0.2-0.1-0.4-0.1-0.7v-3.1c0-1.5,1.4-2.6,2.8-2.3l4.2,1.9c0.6,0.1,1,0.6,1,1.2v3.1
		c0,0.6-0.5,1.2-1.1,1.2l-4.3,0.3C588.2-148,587.2-148.7,586.9-149.7"/>
	<path class="st2" d="M606.7-149.8c0-0.2,0.1-0.4,0.1-0.6v-2.9c0-1.5-1.3-2.6-2.8-2.3l-4.1,1.7c-0.6,0.1-1,0.6-1,1.2v3.1
		c0,0.6,0.5,1.2,1.1,1.2l4.3,0.3C605.4-147.9,606.4-148.7,606.7-149.8"/>
	<path class="st2" d="M598.5-148.8h-3.4c-0.2,0-0.4-0.2-0.4-0.4v-3.9c0-0.2,0.2-0.4,0.4-0.4h3.4c0.2,0,0.4,0.2,0.4,0.4v3.9
		C598.9-149,598.7-148.8,598.5-148.8z"/>
</g>
<g>
	<path class="st6" d="M593.7-92.5h7c5,0,9.2,3.2,10.7,7.7c1.6-2.6,2.6-5.6,2.6-8.9c0-9.3-7.5-16.8-16.8-16.8s-16.8,7.5-16.8,16.8
		c0,3.3,1,6.3,2.6,8.9C584.5-89.3,588.8-92.5,593.7-92.5z"/>
	<path class="st7" d="M597.2-76.9c6,0,11.2-3.2,14.2-7.9c-1.5-4.5-5.8-7.7-10.7-7.7h-7c-5,0-9.2,3.2-10.7,7.7
		C586-80.1,591.2-76.9,597.2-76.9z"/>
	<path class="st7" d="M599-93.7h-3.5c-2.5,0-4.6-2.1-4.6-4.6v-3.5c0-2.5,2-4.6,4.6-4.6h3.5c2.5,0,4.6,2.1,4.6,4.6v3.5
		C603.5-95.8,601.5-93.7,599-93.7z"/>
</g>
<rect x="577.5" y="-64.6" class="st5" width="38.6" height="38"/>
<g>
	<path class="st6" d="M593.7-44h7c5,0,9.2,3.2,10.7,7.7c1.6-2.6,2.6-5.6,2.6-8.9c0-9.3-7.5-16.8-16.8-16.8s-16.8,7.5-16.8,16.8
		c0,3.3,1,6.3,2.6,8.9C584.5-40.7,588.8-44,593.7-44z"/>
	<path class="st7" d="M597.2-28.4c6,0,11.2-3.2,14.2-7.9c-1.5-4.5-5.8-7.7-10.7-7.7h-7c-5,0-9.2,3.2-10.7,7.7
		C586-31.5,591.2-28.4,597.2-28.4z"/>
	<path class="st7" d="M599-45.1h-3.5c-2.5,0-4.6-2-4.6-4.6v-3.5c0-2.5,2-4.6,4.6-4.6h3.5c2.5,0,4.6,2,4.6,4.6v3.5
		C603.5-47.2,601.5-45.1,599-45.1z"/>
</g>
<g>
	<line class="st8" x1="609.8" y1="-39.9" x2="600.6" y2="-39.9"/>
	<line class="st8" x1="605.2" y1="-35.4" x2="605.2" y2="-44.5"/>
</g>
<g>
	<g>
		<path class="st9" d="M736.7-222.2h-1.8c-4,0-7.3-3.3-7.3-7.3l0,0c0-4,3.3-7.3,7.3-7.3h1.8c1,0,1.7,0.8,1.7,1.7v11.1
			C738.4-222.9,737.7-222.2,736.7-222.2z"/>
		<path class="st9" d="M767-222.2h1.8c4,0,7.3-3.3,7.3-7.3l0,0c0-4-3.3-7.3-7.3-7.3H767c-1,0-1.7,0.8-1.7,1.7v11.1
			C765.3-222.9,766-222.2,767-222.2z"/>
		<path class="st9" d="M774.4-236.7"/>
		<path class="st9" d="M734.3-236.7c1.5-9.1,8.5-16.1,17-16.1s15.6,6.9,17,16.1"/>
		<path class="st9" d="M734.3-236.7"/>
		<path class="st9" d="M734-233.1"/>
	</g>
	<path class="st9" d="M768.4-222.2L768.4-222.2c0,3.3-2.7,6-6,6h-5.7"/>
	<path class="st10" d="M760.8-213.7h-7.6c-0.3,0-0.6-0.3-0.6-0.6v-3c0-0.4,0.3-0.6,0.6-0.6h7.6c0.3,0,0.6,0.3,0.6,0.6v3
		C761.4-214,761.1-213.7,760.8-213.7z"/>
</g>
<rect x="725.9" y="-254.7" class="st11" width="51.8" height="41.9"/>
<rect x="725.9" y="-212.8" class="st11" width="51.8" height="41.9"/>
<rect x="725.9" y="-170.9" class="st11" width="51.8" height="41.9"/>
<rect x="725.9" y="-129" class="st11" width="51.8" height="41.9"/>
<rect x="725.9" y="-87.1" class="st11" width="51.8" height="41.9"/>
<rect x="725.9" y="-44.6" class="st11" width="51.8" height="41.9"/>
<path class="st12" d="M767.8-169.6c-2.1-1.9-4.5,0-4.5,0l-11,7.4h-12.8c-5.2,0-9.5,4.2-9.5,9.5s4.2,9.5,9.5,9.5v0h12.8l11,7.4
	c0,0,2.4,1.9,4.5,0c0-0.2,0-14.1,0-16.9C767.9-155.5,767.9-169.4,767.8-169.6z"/>
<line class="st12" x1="762.1" y1="-168.8" x2="762.1" y2="-137"/>
<rect x="740" y="-143.1" class="st12" width="6.4" height="13.7"/>
<path class="st10" d="M768.1-158.5c2.4,0,4.3,2.3,4.3,5.2s-1.9,5.2-4.3,5.2"/>
<g>
	<path class="st12" d="M759.3-41.3h5.2c1.7,0,3.1,1.4,3.1,3.1v32.3c0,1.7-1.4,3.1-3.1,3.1h-24.3c-1.7,0-3.1-1.4-3.1-3.1v-1.7v-30.7
		c0-1.7,1.4-3.1,3.1-3.1h5"/>
	<path class="st12" d="M759.3-41.3"/>
	<path class="st12" d="M745.3-41.3"/>
	<line class="st12" x1="736.8" y1="-7.7" x2="767.8" y2="-7.7"/>
	<path class="st12" d="M759.3-36.5h-14.1v-5.8c0-0.3,0.3-0.6,0.6-0.6h12.9c0.3,0,0.6,0.3,0.6,0.6L759.3-36.5L759.3-36.5z"/>
	<path class="st12" d="M745.3-41.2"/>
	<path class="st13" d="M745.5-13.2"/>
	<path class="st13" d="M759.6-13.2"/>
	<path class="st14" d="M760.5-15.9c0-2.7-2.4-5-5.8-5.7c1.8-0.8,3-2.5,3-4.6c0-2.8-2.2-5-5-5s-5,2.2-5,5c0,2,1.2,3.7,2.9,4.5
		c-3.5,0.6-6.1,3-6.1,5.8"/>
</g>
<g>
	<path class="st12" d="M768.1-109.3v15.6c0,1-0.8,1.8-1.8,1.8h-30.2c-1,0-1.8-0.8-1.8-1.8v-15.7"/>
	<path class="st12" d="M756.8-91.8h-9.5v-9.5c0-0.4,0.3-0.7,0.7-0.7h8.2c0.4,0,0.7,0.3,0.7,0.7L756.8-91.8L756.8-91.8z"/>
	<g>
		<path class="st15" d="M735.8-124.8"/>
		<path class="st14" d="M763.7-111.2c0,0,5.4,5.1,8.3-1.3l-4-11.1h-32.1l-4.2,12.4c0,0,4.2,5.1,8.7,0l1.6-12.4"/>
		<path class="st14" d="M740.4-111.2c0,0,3.3,5.1,8.4,0v-12.4"/>
		<path class="st14" d="M748.7-111.2c0,0,3.6,5.4,6.9,0v-12.4"/>
		<path class="st14" d="M755.6-111.2c0,0,4.1,5.4,8,0l-2.7-12.4"/>
	</g>
</g>
<g>
	<path class="st16" d="M751.2-80.4c0-2.1,1.7-3.8,3.8-3.8c2.1,0,3.8,1.7,3.8,3.8v1.2h2.9v-1.2c0-3.7-3-6.7-6.7-6.7s-6.7,3-6.7,6.7
		v1.4h2.9L751.2-80.4z"/>
	<path class="st10" d="M740.3-80.4c0-2.1,1.7-3.8,3.8-3.8c2.1,0,3.8,1.7,3.8,3.8v1.2h2.9v-1.2c0-3.7-3-6.7-6.7-6.7s-6.7,3-6.7,6.7
		v1.4h2.9L740.3-80.4z"/>
	<path class="st12" d="M764.8-72.6h-30.9c-0.4,0-0.8-0.3-0.8-0.8v-4.9c0-0.4,0.3-0.8,0.8-0.8h30.9c0.4,0,0.8,0.3,0.8,0.8v4.9
		C765.6-73,765.3-72.6,764.8-72.6z"/>
	<rect x="735" y="-72.6" class="st12" width="29.4" height="27.1"/>
	<rect x="746.1" y="-79.1" class="st12" width="5.8" height="33.5"/>
</g>
<g>
	<path class="st16" d="M766.9-63.3c0-1,0.8-1.9,1.9-1.9c1,0,1.9,0.8,1.9,1.9v0.6h1.5v-0.6c0-1.9-1.5-3.4-3.4-3.4s-3.4,1.5-3.4,3.4
		v0.7h1.5L766.9-63.3z"/>
	<path class="st10" d="M761.3-63.3c0-1,0.8-1.9,1.9-1.9c1,0,1.9,0.8,1.9,1.9v0.6h1.5v-0.6c0-1.9-1.5-3.4-3.4-3.4s-3.4,1.5-3.4,3.4
		v0.7h1.5L761.3-63.3z"/>
	<path class="st12" d="M773.7-59.3h-15.5c-0.3,0-0.5-0.2-0.5-0.5v-2.3c0-0.3,0.2-0.5,0.5-0.5h15.5c0.3,0,0.5,0.2,0.5,0.5v2.3
		C774.2-59.5,774-59.3,773.7-59.3z"/>
	<rect x="758.6" y="-59.3" class="st12" width="14.9" height="13.8"/>
	<rect x="764.3" y="-62.6" class="st12" width="3" height="17"/>
</g>
<g>
	<path class="st10" d="M603.1-17l1.2,2.3l0.1,0.1l0.2,0l2.6,0.4l-1.9,1.8l-0.1,0.1l0,0.2l0.4,2.6l-2.3-1.2l-0.1-0.1l-0.1,0.1
		l-2.3,1.2l0.4-2.6l0-0.2l-0.1-0.1l-1.9-1.8l2.6-0.4l0.2,0l0.1-0.1L603.1-17 M603.1-17.7l-1.4,2.9l-3.2,0.5l2.3,2.2L600.3-9l2.8-1.5
		l2.8,1.5l-0.5-3.2l2.3-2.2l-3.2-0.5L603.1-17.7L603.1-17.7z"/>
</g>
<polygon class="st10" points="581.7,-17.7 583.1,-14.8 586.3,-14.4 584,-12.1 584.5,-9 581.7,-10.5 578.8,-9 579.4,-12.1 
	577.1,-14.4 580.3,-14.8 "/>
<polyline class="st17" points="595.2,1.8 578,1.8 582.8,-2.9 "/>
<polyline class="st17" points="658.1,1.8 675.3,1.8 670.5,-2.9 "/>
<circle class="st18" cx="582.8" cy="15.2" r="5"/>
<circle class="st19" cx="597.2" cy="15.2" r="5"/>
<image style="overflow:visible;enable-background:new    ;" width="400" height="393" xlink:href="E527A3E3.png"  transform="matrix(0.1368 0 0 0.1368 3.1181 -164.6903)">
</image>
<image style="overflow:visible;enable-background:new    ;" width="522" height="522" xlink:href="E527A3E1.png"  transform="matrix(8.082145e-02 0 0 8.082145e-02 44.0983 -160.7448)">
</image>
<g>
	<path class="st20" d="M591.4,34.1h-12c-1,0-1.9,0.8-1.9,1.9v11.6c0,1,0.8,1.9,1.9,1.9h12c1,0,1.9-0.8,1.9-1.9V36
		C593.3,35,592.5,34.1,591.4,34.1z M591.3,45c-0.2,0.3-1.4,1.8-2.4,2.1c-0.2,0.1-0.3,0.1-0.6,0.1s-3.1-0.7-5.3-3.1s-2.7-3.7-2.9-5.2
		c0-0.4,0.1-0.4,0.1-0.5s1.3-1.8,1.8-2.2c0.3-0.2,0.6-0.4,0.9-0.3s1.4,1.7,1.8,2.7c0.3,0.6-0.1,0.9-0.1,1c-0.1,0.1-0.7,0.6-0.8,0.7
		c0,0,0.6,2.4,3.3,3.3l0.7-0.8c0,0,0.3-0.4,0.8-0.1c0.5,0.3,2,1.1,2.4,1.4C591.3,44.4,591.5,44.7,591.3,45z"/>
</g>
<g class="st21">
	<path class="st10" d="M613,44.9c-0.1-0.2-0.3-0.5-0.6-0.8c-0.8-1.1-0.9-3-0.9-3.5c0,0,0,0,0-0.1c0,0,0-0.1,0-0.1l0,0l0,0
		c0-2.3-1.6-4.2-3.8-4.7v-0.5c0-0.6-0.5-1-1-1l0,0c-0.6,0-1,0.5-1,1v0.5c-2.2,0.5-3.8,2.4-3.8,4.7c0,0.1,0,0.1,0,0.2
		c0,0.6-0.1,2.4-0.9,3.5c-0.3,0.4-0.5,0.7-0.7,0.9c-0.1,0.1-0.2,0.2-0.3,0.4l0,0l0,0c0,0.1-0.1,0.3-0.1,0.4l0,0c0,0.5,0.4,1,1,1
		h11.7c0.5,0,1-0.4,1-1l0,0C613.5,45.4,613.3,45.1,613,44.9z"/>
	<path class="st10" d="M606.7,49.5c1.1,0,2-0.8,2-1.9h-4C604.7,48.7,605.5,49.5,606.7,49.5z"/>
</g>
<image style="overflow:visible;enable-background:new    ;" width="439" height="439" xlink:href="E527A3E7.png"  transform="matrix(0.1427 0 0 0.1427 397.4851 -164.6727)">
</image>
<path class="st20" d="M625.4,33.8c-4.2,0-7.7,3.4-7.7,7.7s3.4,7.7,7.7,7.7s7.7-3.4,7.7-7.7S629.7,33.8,625.4,33.8z M628.3,44.5
	c-0.2,0.2-0.4,0.3-0.7,0.3c-0.2,0-0.4-0.1-0.5-0.2l-2.3-1.7c-0.2-0.2-0.3-0.4-0.3-0.7v-4.6c0-0.5,0.4-0.9,0.9-0.9s0.9,0.4,0.9,0.9
	v4.2l1.9,1.5C628.5,43.6,628.6,44.1,628.3,44.5z"/>
<g>
	<g>
		<polyline class="st22" points="696.7,-243.1 705.2,-241.1 705.2,-199.7 672.7,-191.7 640.2,-199.7 640.2,-240.6 648.7,-242.7 		
			"/>
		<path class="st22" d="M696.7-243.1"/>
		<path class="st22" d="M648.7-242.7"/>
		<polyline class="st22" points="640.2,-240.6 672.7,-232.6 672.7,-191.7 		"/>
		<line class="st22" x1="672.7" y1="-232.6" x2="705.2" y2="-241.1"/>
	</g>
	<polygon class="st22" points="694.5,-197.1 687.2,-195.4 687.2,-236.4 694.5,-238.3 	"/>
	<polygon class="st22" points="656.5,-195.7 651,-197.1 651,-238 656.5,-236.6 	"/>
	<path class="st22" d="M648.7-242.7c-0.2-0.5-0.2-1.1-0.2-1.7v-7.6c0-3.6,3.3-6.3,6.8-5.5l10.2,4.5c1.4,0.3,2.4,1.5,2.4,2.9v7.5
		c0,1.6-1.2,2.9-2.8,3l-10.6,0.8C651.8-238.6,649.5-240.3,648.7-242.7"/>
	<path class="st22" d="M696.8-243c0.1-0.4,0.2-0.9,0.2-1.4v-7.1c0-3.6-3.3-6.3-6.7-5.5l-10.1,4.1c-1.4,0.3-2.3,1.5-2.3,2.9v7.5
		c0,1.6,1.2,2.9,2.7,3l10.4,0.8C693.8-238.5,696.2-240.4,696.8-243"/>
	<path class="st22" d="M677.5-240.6h-9.3c-0.2,0-0.4-0.2-0.4-0.4v-10.6c0-0.2,0.2-0.4,0.4-0.4h9.3c0.2,0,0.4,0.2,0.4,0.4v10.6
		C677.9-240.8,677.7-240.6,677.5-240.6z"/>
</g>
<g>
	<g>
		<g>
			<path class="st23" d="M661.2-156.7c-7.3-8.6-10.3-17.7-6.7-21.4c4.2-4.3,15.5,0.1,25.3,9.7s14.3,20.9,10.2,25.1
				c-3.8,3.9-13.6,0.6-22.7-7.3"/>
			<path class="st23" d="M654.5-129.2l-16.3,6.2c-1.8,0.7-3.7-1.1-3-2.9l8.5-23.3l9.4-26"/>
			<path class="st23" d="M654.5-129.2"/>
			<path class="st23" d="M664.7-133.1"/>
			<line class="st23" x1="687.8" y1="-141.9" x2="664.7" y2="-133.1"/>
		</g>
		<circle class="st22" cx="685.3" cy="-173.1" r="2.5"/>
		<circle class="st22" cx="694.8" cy="-164.1" r="2.5"/>
		<circle class="st22" cx="682.9" cy="-158.1" r="1.4"/>
		<circle class="st10" cx="697.3" cy="-174.9" r="1.8"/>
		<circle class="st10" cx="675.5" cy="-186.5" r="1.8"/>
		<polygon class="st10" points="690.2,-187.9 692.4,-188.8 691.2,-186.5 692.4,-184.3 690.2,-185.3 687.9,-184.3 689,-186.5 
			687.9,-188.8 		"/>
		<polygon class="st10" points="672.3,-171.9 675.2,-173.1 673.7,-170.2 675.2,-167.2 672.3,-168.5 669.3,-167.2 670.7,-170.2 
			669.3,-173.1 		"/>
		<line class="st14" x1="652.8" y1="-163.1" x2="647.6" y2="-148.1"/>
	</g>
	<line class="st14" x1="646.9" y1="-146.4" x2="644.3" y2="-138.8"/>
</g>
<g>
	<path class="st23" d="M667.1-85.3v3.6c0,1.1-0.9,1.9-1.9,1.9h-5.7c-1.1,0-1.9-0.9-1.9-1.9v-22.4c0-1.1,0.9-1.9,1.9-1.9h5.7
		c1.1,0,1.9,0.9,1.9,1.9v15.6"/>
	<path class="st24" d="M667.1-85.3"/>
	<path class="st24" d="M667.1-88.5"/>
	<path class="st22" d="M697-98.7c2.2,0,3.9,2.5,3.9,5.6c0,3.1-1.8,5.6-3.9,5.6"/>
	<g>
		<path class="st23" d="M639.6-99.7c-1.7,1.9-2.6,4.3-2.6,6.8c0,5.8,5.1,10.7,11.9,11.6"/>
		<path class="st24" d="M639.6-99.7"/>
		<path class="st24" d="M643.4-102.8"/>
		<path class="st23" d="M657.6-104.6c-2,0.1-3.7,0-4.8,0c-0.5-0.1-1-0.1-1.6-0.1c-2.9,0-5.5,0.7-7.8,1.9"/>
		<path class="st23" d="M670-79.8c20,3.8,23,14.3,23,14.3h3.9v-53.7h-4.5c-4.9,9-16.2,12.5-25.8,13.9"/>
		<path class="st22" d="M666.5-80.3"/>
		<line class="st24" x1="661.6" y1="-74.8" x2="667.7" y2="-74.8"/>
		<path class="st24" d="M657.6-81.1c-2-0.1-4.2-0.1-6.4-0.1c-0.8,0-1.6-0.1-2.4-0.2l0.7,4.7c0.2,1,1.1,1.8,2.3,1.8h4.7"/>
		<path class="st22" d="M666.5-80.3c1.2,0.2,2.4,0.4,3.5,0.6"/>
		<path class="st22" d="M666.5-80.4C666.5-80.4,666.5-80.4,666.5-80.4"/>
		<path class="st22" d="M648.9-81.3c0.8,0.1,1.5,0.2,2.4,0.2c2.2-0.1,4.4,0,6.4,0.1"/>
	</g>
	<path class="st22" d="M663.3-74.8l3.8,18.9c0.2,0.7-0.4,1.4-1.2,1.4h-6.7c-0.6,0-1-0.4-1.2-0.9l-3.9-19.4"/>
	<path class="st22" d="M663.3-74.8"/>
	<path class="st22" d="M654.3-74.8"/>
</g>
<g>
	<polygon class="st10" points="591,-14.6 590.8,-14.5 588.2,-14.2 590.1,-12.3 590.2,-12.2 590.2,-12.1 589.8,-9.5 592.1,-10.7 
		592.2,-10.8 592.2,-17 591.1,-14.7 	"/>
	<polygon class="st25" points="592.2,-10.8 592.3,-10.7 594.7,-9.5 594.2,-12.1 594.2,-12.2 594.3,-12.3 596.2,-14.2 593.6,-14.5 
		593.4,-14.6 593.4,-14.7 592.2,-17 592.2,-17 592.2,-10.8 	"/>
	<polygon class="st10" points="592.1,-10.7 589.8,-9.5 590.2,-12.1 590.2,-12.2 590.1,-12.3 588.2,-14.2 590.8,-14.5 591,-14.6 
		591.1,-14.7 592.2,-17 592.2,-17.6 590.8,-14.8 587.6,-14.4 589.9,-12.1 589.4,-9 592.2,-10.4 592.2,-10.8 	"/>
	<polygon class="st10" points="596.8,-14.4 593.6,-14.8 592.2,-17.7 592.2,-17.6 592.2,-17 592.2,-17 593.4,-14.7 593.4,-14.6 
		593.6,-14.5 596.2,-14.2 594.3,-12.3 594.2,-12.2 594.2,-12.1 594.7,-9.5 592.3,-10.7 592.2,-10.8 592.2,-10.8 592.2,-10.4 
		592.2,-10.5 595,-9 594.5,-12.1 	"/>
</g>
<g>
	<path class="st26" d="M1325.1-249c-4.2,0-7.7,3.4-7.7,7.6s3.4,7.6,7.7,7.6h13.6V-249L1325.1-249L1325.1-249z"/>
	<path class="st26" d="M1340.1-229.7L1340.1-229.7c-0.9,0-1.6-0.7-1.6-1.6V-251c0-0.9,0.7-1.6,1.6-1.6l0,0c0.9,0,1.6,0.7,1.6,1.6
		v19.8C1341.7-230.4,1341-229.7,1340.1-229.7z"/>
	<path class="st26" d="M1342.2-238.2h-0.6v-6.6h0.6c1.8,0,3.3,1.5,3.3,3.3l0,0C1345.6-239.7,1344.1-238.2,1342.2-238.2z"/>
	<path class="st26" d="M1329.3-224.5h-2.1c-1,0-1.8-0.8-1.8-1.8v-7.5h6.5l-0.9,7.7C1331-225.1,1330.2-224.5,1329.3-224.5z"/>
</g>
<g>
	<path class="st26" d="M1325.1-196.8c-4.2,0-7.7,3.4-7.7,7.6s3.4,7.6,7.7,7.6h13.6v-15.3L1325.1-196.8L1325.1-196.8z"/>
	<path class="st26" d="M1340.1-177.6L1340.1-177.6c-0.9,0-1.6-0.7-1.6-1.6v-19.8c0-0.9,0.7-1.6,1.6-1.6l0,0c0.9,0,1.6,0.7,1.6,1.6
		v19.8C1341.7-178.3,1341-177.6,1340.1-177.6z"/>
	<path class="st26" d="M1342.2-186.1h-0.6v-6.6h0.6c1.8,0,3.3,1.5,3.3,3.3l0,0C1345.6-187.6,1344.1-186.1,1342.2-186.1z"/>
	<path class="st26" d="M1329.3-172.3h-2.1c-1,0-1.8-0.8-1.8-1.8v-7.5h6.5l-0.9,7.7C1331-173,1330.2-172.3,1329.3-172.3z"/>
	<circle class="st27" cx="1339.7" cy="-177.6" r="5.3"/>
	<polyline class="st28" points="1342.6,-178.3 1339.7,-175.5 1337.7,-178.3 	"/>
</g>
<g>
	<path class="st29" d="M1345.4-123.2h-23.5c-0.8,0-1.5-0.7-1.5-1.5v-15.9c0-0.9,0.7-1.5,1.5-1.5h23.5c0.8,0,1.5,0.7,1.5,1.5v15.8
		C1346.9-123.9,1346.3-123.2,1345.4-123.2z"/>
	<line class="st29" x1="1325.7" y1="-137.2" x2="1341.6" y2="-137.2"/>
	<line class="st29" x1="1325.7" y1="-132.3" x2="1341.6" y2="-132.3"/>
	<line class="st29" x1="1325.7" y1="-127.4" x2="1341.6" y2="-127.4"/>
	<polygon class="st29" points="1322.9,-117.7 1322.9,-123.2 1329.4,-123.2 	"/>
</g>
<g>
	<circle class="st29" cx="1331.3" cy="-75.4" r="13.5"/>
	
		<text transform="matrix(1 0 0 1 1324.4346 -65.5436)" style="fill:none;stroke:#EB212C;stroke-width:0.8;stroke-linecap:round;stroke-linejoin:round;stroke-miterlimit:8; font-family:'NotoSansKR-Black-KSCpc-EUC-H'; font-size:24px;">P</text>
</g>
<g>
	<path class="st29" d="M1324.2-33.3h-3.9c0,0,1.1,0.5,2.8,4c0.3,0.7,0.5,1.4,0.5,2.1v18.4h18.5v-24.5h-18.5"/>
	<circle class="st27" cx="1328.5" cy="-21.5" r="1.4"/>
	<circle class="st27" cx="1332.8" cy="-21.5" r="1.4"/>
	<circle class="st27" cx="1337.1" cy="-21.5" r="1.4"/>
</g>
<g>
	<path class="st26" d="M1340.1,43.6h-15.5c-2.6,0-4.7-2.1-4.7-4.7V26.8h24.8V39C1344.7,41.5,1342.6,43.6,1340.1,43.6z"/>
	<g>
		<path class="st26" d="M1334.3,19.8l-9.1,4.5c-1.1,0.6-2,1.5-2.6,2.5h15.1L1334.3,19.8z"/>
		<path class="st26" d="M1337.9,26.8h2.6l-0.4-0.9l0,0l-0.9-1.9l-3.3-6.7c-0.3-0.6-1-0.8-1.6-0.5c-0.6,0.3-0.8,1-0.5,1.6l0.7,1.4
			l0.1,0L1337.9,26.8z"/>
		<line class="st26" x1="1337.9" y1="26.8" x2="1337.9" y2="26.8"/>
		<polygon class="st26" points="1337.9,26.8 1334.4,19.7 1334.3,19.8 1337.9,26.8 		"/>
		<path class="st26" d="M1340.4,25.7c1.2-0.6,1.7-2.1,1.1-3.4c-0.6-1.2-2.1-1.7-3.3-1.1l-0.4,0.2l1.3,2.6l0.9,1.9L1340.4,25.7z"/>
		<path class="st26" d="M1340.1,25.9l-1-1.9L1340.1,25.9z"/>
	</g>
	<path class="st27" d="M1339.9,39.8h-3.7c-0.7,0-1.2-0.5-1.2-1.2v-0.9h6.1v0.9C1341.1,39.2,1340.6,39.8,1339.9,39.8z"/>
</g>
<g>
	<path class="st26" d="M808.2-250.4c-3,0-5.5,2.4-5.5,5.4s2.4,5.4,5.5,5.4h9.7v-10.8L808.2-250.4L808.2-250.4z"/>
	<path class="st26" d="M818.8-236.7L818.8-236.7c-0.6,0-1.1-0.5-1.1-1.1v-14c0-0.6,0.5-1.1,1.1-1.1l0,0c0.6,0,1.1,0.5,1.1,1.1v14
		C820-237.2,819.5-236.7,818.8-236.7z"/>
	<path class="st26" d="M820.3-242.7H820v-4.7h0.4c1.3,0,2.4,1.1,2.4,2.4l0,0C822.7-243.8,821.7-242.7,820.3-242.7z"/>
	<path class="st26" d="M811.2-233h-1.5c-0.7,0-1.2-0.6-1.2-1.2v-5.3h4.6l-0.7,5.4C812.3-233.5,811.8-233,811.2-233z"/>
</g>
<g>
	<path class="st26" d="M808.2-224.1c-3,0-5.5,2.4-5.5,5.4s2.4,5.4,5.5,5.4h9.7v-10.8L808.2-224.1L808.2-224.1z"/>
	<path class="st26" d="M818.8-210.4L818.8-210.4c-0.6,0-1.1-0.5-1.1-1.1v-14c0-0.6,0.5-1.1,1.1-1.1l0,0c0.6,0,1.1,0.5,1.1,1.1v14
		C820-210.9,819.5-210.4,818.8-210.4z"/>
	<path class="st26" d="M820.3-216.5H820v-4.7h0.4c1.3,0,2.4,1.1,2.4,2.4l0,0C822.7-217.6,821.7-216.5,820.3-216.5z"/>
	<path class="st26" d="M811.2-206.7h-1.5c-0.7,0-1.2-0.6-1.2-1.2v-5.3h4.6l-0.7,5.4C812.3-207.2,811.8-206.7,811.2-206.7z"/>
	<circle class="st27" cx="818.6" cy="-210.5" r="3.8"/>
	<polyline class="st28" points="820.6,-211 818.5,-208.9 817.1,-211 	"/>
</g>
<g>
	<path class="st29" d="M820.6-185.7h-15.8c-0.8,0-1.5-0.7-1.5-1.5v-10.4c0-0.9,0.7-1.5,1.5-1.5h15.8c0.8,0,1.5,0.7,1.5,1.5v10.4
		C822.1-186.4,821.5-185.7,820.6-185.7z"/>
	<line class="st29" x1="807" y1="-195.6" x2="818.4" y2="-195.6"/>
	<line class="st29" x1="807" y1="-192.1" x2="818.4" y2="-192.1"/>
	<line class="st29" x1="807" y1="-188.7" x2="818.4" y2="-188.7"/>
	<polygon class="st29" points="805.1,-181.8 805.1,-185.7 809.7,-185.7 	"/>
</g>
<g>
	<path class="st29" d="M807.3-146.6l-2.4,0c0,0,0.8,0.4,2,2.8c0.2,0.5,0.4,1,0.4,1.5v13.1h13.1v-17.4H807.3"/>
	<circle class="st27" cx="810.7" cy="-138.2" r="1"/>
	<circle class="st27" cx="813.8" cy="-138.2" r="1"/>
	<circle class="st27" cx="816.8" cy="-138.2" r="1"/>
</g>
<g>
	<path class="st26" d="M816.9-102.1h-8.3c-2.6,0-4.7-2.1-4.7-4.7v-7.3h17.6v7.3C821.5-104.2,819.4-102.1,816.9-102.1z"/>
	<g>
		<path class="st26" d="M814.2-119.1l-6.4,3.2c-0.8,0.4-1.4,1-1.8,1.8h10.7L814.2-119.1z"/>
		<path class="st26" d="M816.7-114.1h1.8l-0.3-0.6l0,0l-0.7-1.3l-2.4-4.7c-0.2-0.4-0.7-0.6-1.1-0.4s-0.6,0.7-0.4,1.1l0.5,1l0,0
			L816.7-114.1z"/>
		<line class="st26" x1="816.7" y1="-114.1" x2="816.7" y2="-114.1"/>
		<polygon class="st26" points="816.7,-114.1 814.2,-119.1 814.2,-119.1 816.7,-114.1 		"/>
		<path class="st26" d="M818.5-114.8c0.9-0.4,1.2-1.5,0.8-2.4c-0.4-0.9-1.5-1.2-2.4-0.8l-0.3,0.1l0.9,1.8l0.7,1.3L818.5-114.8z"/>
		<path class="st26" d="M818.2-114.7l-0.7-1.3L818.2-114.7z"/>
	</g>
	<path class="st27" d="M817.8-104.9h-1.9c-0.7,0-1.2-0.5-1.2-1.2v-0.3h4.3v0.3C819-105.4,818.4-104.9,817.8-104.9z"/>
</g>
<g>
	<circle class="st26" cx="812.7" cy="-165.8" r="10"/>
	<g>
		<path class="st26" d="M809.8-170.7h3.6c2.2,0,4.1,0.8,4.1,3.3c0,2.4-1.9,3.5-4,3.5h-1.2v3.4h-2.5L809.8-170.7L809.8-170.7z
			 M813.3-165.8c1.2,0,1.8-0.6,1.8-1.6c0-1-0.7-1.4-1.8-1.4h-1v3H813.3z"/>
	</g>
</g>
<g>
	<path class="st26" d="M1403.2-219.5h-8.3c-2.6,0-4.7-2.1-4.7-4.7v-7.3h17.6v7.3C1407.8-221.6,1405.7-219.5,1403.2-219.5z"/>
	<g>
		<path class="st26" d="M1400.5-236.5l-6.4,3.2c-0.8,0.4-1.4,1-1.8,1.8h10.7L1400.5-236.5z"/>
		<path class="st26" d="M1403-231.5h1.8l-0.3-0.6l0,0l-0.7-1.4l-2.4-4.7c-0.2-0.4-0.7-0.6-1.1-0.4s-0.6,0.7-0.4,1.1l0.5,1l0.1,0
			L1403-231.5z"/>
		<line class="st26" x1="1403" y1="-231.5" x2="1403" y2="-231.5"/>
		<polygon class="st26" points="1403,-231.5 1400.5,-236.5 1400.5,-236.5 1403,-231.5 		"/>
		<path class="st26" d="M1404.8-232.2c0.9-0.4,1.2-1.5,0.8-2.4c-0.4-0.9-1.5-1.2-2.4-0.8l-0.3,0.1l0.9,1.8l0.7,1.4L1404.8-232.2z"/>
		<path class="st26" d="M1404.5-232.1l-0.7-1.4L1404.5-232.1z"/>
	</g>
	<path class="st27" d="M1404.1-222.3h-1.9c-0.7,0-1.2-0.5-1.2-1.2v-0.3h4.3v0.3C1405.3-222.8,1404.8-222.3,1404.1-222.3z"/>
</g>
<g>
	<circle class="st30" cx="845.7" cy="-206.3" r="14"/>
	
		<text transform="matrix(1 0 0 1 838.5195 -202.8839)" class="st6" style="font-family:'NotoSansKR-Bold-KSCpc-EUC-H'; font-size:9.5064px;">1:1</text>
</g>
<g>
	<circle class="st30" cx="845.7" cy="-172.7" r="14"/>
	<g>
		
			<text transform="matrix(1 0 0 1 836.4414 -169.3878)" class="st6" style="font-family:'NotoSansKR-Bold-KSCpc-EUC-H'; font-size:9.5064px;">FAQ</text>
	</g>
</g>
<g>
	<path class="st30" d="M853.9-123.9h-16.4c-1,0-1.8-0.8-1.8-1.8v-23.6c0-1,0.8-1.8,1.8-1.8h16.4c1,0,1.8,0.8,1.8,1.8v23.6
		C855.7-124.7,854.8-123.9,853.9-123.9z"/>
	<path class="st31" d="M850.6-148.8h-9.8c-0.5,0-0.9-0.4-0.9-0.9v-2.3c0-0.5,0.4-0.9,0.9-0.9h9.8c0.5,0,0.9,0.4,0.9,0.9v2.3
		C851.5-149.2,851.1-148.8,850.6-148.8z"/>
	<g>
		<ellipse class="st6" cx="845.6" cy="-140.1" rx="2.7" ry="2.8"/>
		<g>
			<path class="st6" d="M850.4-133.8c0-2.8-2.2-5-4.8-5c-2.7,0-4.8,2.2-4.8,5c0,0.6,0.1,1.1,0.2,1.6h9.2
				C850.3-132.7,850.4-133.3,850.4-133.8z"/>
		</g>
	</g>
</g>
<image style="overflow:visible;opacity:0.4;enable-background:new    ;" width="100" height="355" xlink:href="E527A3E1.jpeg"  transform="matrix(0.99 0 0 0.99 1460.0217 -248.3414)">
</image>
<g>
	<circle class="st32" cx="905.3" cy="-243" r="4.2"/>
	<circle class="st33" cx="893.8" cy="-241.9" r="3.1"/>
	<path class="st34" d="M887.8-230.3v-2.5c0-1.7,1.4-3.1,3.1-3.1c1.6,0,3.2,0,4.8,0"/>
	<circle class="st34" cx="916.2" cy="-241.9" r="3.1"/>
	<path class="st34" d="M922.2-230.3v-2.5c0-1.7-1.4-3.1-3.1-3.1c-1.6,0-3.2,0-4.8,0"/>
	<path class="st32" d="M896-236.9"/>
	<g>
		<path class="st35" d="M912.8-228.2v-3.4c0-1.7-1.4-3.1-3.1-3.1h-9.2c-1.7,0-3.1,1.4-3.1,3.1v3.4"/>
	</g>
</g>
<g>
	<path class="st35" d="M907.8-205.5h-5.5c-0.8,0-1.5-0.7-1.5-1.6v-3.1c0-0.9,0.7-1.6,1.5-1.6h5.5c0.8,0,1.5,0.7,1.5,1.6v3.1
		C909.3-206.2,908.6-205.5,907.8-205.5z"/>
	<path class="st35" d="M906.4-194.5h-2.2c-0.9,0-1.6-0.7-1.6-1.6v-3.2h5.5v3.2C908-195.2,907.3-194.5,906.4-194.5z"/>
	<path class="st34" d="M919-183.2H891c-1.4,0-2.5-1.1-2.5-2.4v-17.4c0-1.4,1.1-2.4,2.5-2.4H919c1.4,0,2.5,1.1,2.5,2.4v17.4
		C921.5-184.3,920.4-183.2,919-183.2z"/>
	<line class="st34" x1="888.5" y1="-199.3" x2="921.5" y2="-199.3"/>
</g>
<g>
	<path class="st34" d="M904.7-141.4h-9.5c-3.1,0-5.7-2.5-5.7-5.7V-164c0-3.1,2.5-5.7,5.7-5.7h19.7c3.1,0,5.7,2.5,5.7,5.7v6.5"/>
	<line class="st34" x1="897" y1="-173.1" x2="897" y2="-166.2"/>
	<line class="st34" x1="905.4" y1="-173.1" x2="905.4" y2="-166.2"/>
	<line class="st34" x1="913.7" y1="-173.1" x2="913.7" y2="-166.2"/>
	<circle class="st35" cx="913.3" cy="-148.7" r="6.5"/>
	<polyline class="st35" points="913.3,-151.8 913.3,-147.9 916.3,-147.9 	"/>
	<path class="st30" d="M897.1-158.8h-1.5c-0.4,0-0.7-0.3-0.7-0.7v-1.5c0-0.4,0.3-0.7,0.7-0.7h1.5c0.4,0,0.7,0.3,0.7,0.7v1.5
		C897.8-159.1,897.5-158.8,897.1-158.8z"/>
	<path class="st30" d="M902.8-158.8h-1.5c-0.4,0-0.7-0.3-0.7-0.7v-1.5c0-0.4,0.3-0.7,0.7-0.7h1.5c0.4,0,0.7,0.3,0.7,0.7v1.5
		C903.5-159.1,903.2-158.8,902.8-158.8z"/>
	<path class="st30" d="M897.1-153.1h-1.5c-0.4,0-0.7-0.3-0.7-0.7v-1.5c0-0.4,0.3-0.7,0.7-0.7h1.5c0.4,0,0.7,0.3,0.7,0.7v1.5
		C897.8-153.4,897.5-153.1,897.1-153.1z"/>
	<path class="st30" d="M902.8-153.1h-1.5c-0.4,0-0.7-0.3-0.7-0.7v-1.5c0-0.4,0.3-0.7,0.7-0.7h1.5c0.4,0,0.7,0.3,0.7,0.7v1.5
		C903.5-153.4,903.2-153.1,902.8-153.1z"/>
	<path class="st30" d="M897.1-147.2h-1.5c-0.4,0-0.7-0.3-0.7-0.7v-1.5c0-0.4,0.3-0.7,0.7-0.7h1.5c0.4,0,0.7,0.3,0.7,0.7v1.5
		C897.8-147.6,897.5-147.2,897.1-147.2z"/>
	<path class="st30" d="M902.8-147.2h-1.5c-0.4,0-0.7-0.3-0.7-0.7v-1.5c0-0.4,0.3-0.7,0.7-0.7h1.5c0.4,0,0.7,0.3,0.7,0.7v1.5
		C903.5-147.6,903.2-147.2,902.8-147.2z"/>
	<path class="st30" d="M908.5-158.8h-1.5c-0.4,0-0.7-0.3-0.7-0.7v-1.5c0-0.4,0.3-0.7,0.7-0.7h1.5c0.4,0,0.7,0.3,0.7,0.7v1.5
		C909.2-159.1,908.9-158.8,908.5-158.8z"/>
	<path class="st30" d="M914.3-158.8h-1.5c-0.4,0-0.7-0.3-0.7-0.7v-1.5c0-0.4,0.3-0.7,0.7-0.7h1.5c0.4,0,0.7,0.3,0.7,0.7v1.5
		C915-159.1,914.7-158.8,914.3-158.8z"/>
</g>
<g>
	<path class="st35" d="M902.1-130.9c0-1.6,1.3-2.9,2.9-2.9c1.6,0,2.9,1.3,2.9,2.9"/>
	<path class="st35" d="M909.9-105c0,2.7-2.2,4.8-4.8,4.8s-4.8-2.2-4.8-4.8"/>
	<path class="st34" d="M891-121.6c0-5.1,2.7-7.6,5.1-8.1"/>
	<path class="st34" d="M919-121.6c0-5.1-2.7-7.6-5.1-8.1"/>
	<path class="st34" d="M918.1-109.8h-2.4v-9.8l0,0c0-6-4.8-10.9-10.6-10.9c-5.9,0-10.6,4.9-10.6,10.9c0,0,0,0.1,0,0.1v9.7H892
		c-1.2,0-2.1,1-2.1,2.1s1,2.1,2.1,2.1h26.1c1.2,0,2.1-1,2.1-2.1C920.2-108.8,919.2-109.8,918.1-109.8z"/>
</g>
<g>
	<g>
		<path class="st34" d="M917.8-76.3v6.9c0,3.3-2.7,5.9-5.9,5.9h-14.6c-3.3,0-5.9-2.7-5.9-5.9V-84c0-3.3,2.7-5.9,5.9-5.9h14.6
			c2.7,0,5,1.8,5.7,4.3"/>
		<polyline class="st34" points="918.7,-88.6 918.3,-84.8 914.6,-85.2 		"/>
	</g>
	<polyline class="st35" points="904.2,-83.3 904.2,-75.3 909.4,-70.2 	"/>
</g>
<g>
	<line class="st35" x1="893.4" y1="-27.5" x2="902" y2="-27.5"/>
	<polyline class="st35" points="910.9,-41.3 910.9,-36.1 913.8,-33.2 	"/>
	<line class="st35" x1="893.4" y1="-45" x2="901" y2="-45"/>
	<line class="st35" x1="889.8" y1="-40.7" x2="898.7" y2="-40.7"/>
	<line class="st35" x1="886.1" y1="-36.5" x2="898.4" y2="-36.5"/>
	<line class="st35" x1="890.4" y1="-32.3" x2="899" y2="-32.3"/>
	<circle class="st34" cx="911.1" cy="-36.5" r="12.8"/>
	<circle class="st34" cx="911.1" cy="-36.5" r="9"/>
</g>
<g>
	<path class="st30" d="M851.1-226.6h-16.7c-1,0-1.8-0.8-1.8-1.8v-22.8c0-1,0.8-1.8,1.8-1.8h16.7c1,0,1.8,0.8,1.8,1.8v22.8
		C852.9-227.4,852.1-226.6,851.1-226.6z"/>
	<path class="st6" d="M848.7-245.2h-12c-0.3,0-0.6-0.3-0.6-0.6v-0.3c0-0.3,0.3-0.6,0.6-0.6h12c0.3,0,0.6,0.3,0.6,0.6v0.3
		C849.3-245.5,849-245.2,848.7-245.2z"/>
	<path class="st6" d="M848.7-241.1h-12c-0.3,0-0.6-0.3-0.6-0.6v-0.3c0-0.3,0.3-0.6,0.6-0.6h12c0.3,0,0.6,0.3,0.6,0.6v0.3
		C849.3-241.4,849-241.1,848.7-241.1z"/>
	<path class="st6" d="M848.7-237h-12c-0.3,0-0.6-0.3-0.6-0.6v-0.3c0-0.3,0.3-0.6,0.6-0.6h12c0.3,0,0.6,0.3,0.6,0.6v0.3
		C849.3-237.2,849-237,848.7-237z"/>
	<path class="st6" d="M848.7-232.8h-12c-0.3,0-0.6-0.3-0.6-0.6v-0.3c0-0.3,0.3-0.6,0.6-0.6h12c0.3,0,0.6,0.3,0.6,0.6v0.3
		C849.3-233.1,849-232.8,848.7-232.8z"/>
	<polygon class="st36" points="858.5,-226.9 854.2,-226 850.8,-242.1 852.5,-244.6 855.1,-243.1 	"/>
</g>
<g>
	<g>
		<path class="st6" d="M868.6-173.5c1.9,0,1.9-3,0-3C866.6-176.5,866.6-173.5,868.6-173.5L868.6-173.5z"/>
	</g>
</g>
<image style="overflow:visible;enable-background:new    ;" width="111" height="101" xlink:href="E527A3E3.jpeg"  transform="matrix(0.99 0 0 0.99 1636.9259 -115.5372)">
</image>
<image style="overflow:visible;enable-background:new    ;" width="351" height="351" xlink:href="E527A3E1.jpeg"  transform="matrix(0.9971 0 0 0.9971 -7244.6724 -8073.7896)">
</image>
<g>
	<g>
		<rect x="1847.3" y="-129.4" class="st37" width="38" height="100"/>
		<polygon class="st37" points="1881.6,-29.4 1847.3,-29.4 1779.6,-129.4 1813.6,-129.4 		"/>
		<rect x="1775.4" y="-129.4" class="st37" width="38" height="100"/>
	</g>
</g>
<image style="overflow:visible;enable-background:new    ;" width="351" height="351" xlink:href="E527A3EF.jpeg"  transform="matrix(0.9971 0 0 0.9971 1853.5436 -251.9191)">
</image>
<ellipse class="st37" cx="2521.8" cy="-178.3" rx="174.8" ry="149.5"/>
<text transform="matrix(1 0 0 1 1954.304 -260.9349)" style="font-family:'ArialMT'; font-size:12px;">TALK</text>
<image style="overflow:visible;opacity:0.3;enable-background:new    ;" width="276" height="288" xlink:href="E527A3E0.png"  transform="matrix(1.5915 0 0 1.5915 2187.3262 -53.6739)">
</image>
<text transform="matrix(1 0 0 1 2318.4778 149.674)" style="font-family:'ArialMT'; font-size:12px;">TALK</text>
<path class="st38" d="M623.4,118.3h-37c-4.7,0-8.5-3.8-8.5-8.5v-35c0-4.7,3.8-8.5,8.5-8.5h37c4.7,0,8.5,3.8,8.5,8.5v35
	C631.9,114.5,628.1,118.3,623.4,118.3z"/>
<path class="st6" d="M611.5,102.3L611.5,102.3c-1.2,0-2.3-0.5-3-1.2l-13.2-13.9c-1.8-1.9,0-4.6,3.2-4.5l0,0c1.2,0,2.3,0.5,3,1.2
	l13.2,13.9C616.6,99.8,614.7,102.4,611.5,102.3z"/>
<path class="st6" d="M597.5,101.8L597.5,101.8c-2,0-3.6-1.7-3.5-3.7l0.2-12c0-2,1.7-3.6,3.7-3.5l0,0c2,0,3.6,1.7,3.5,3.7l-0.2,12
	C601.1,100.2,599.5,101.8,597.5,101.8z"/>
<path class="st6" d="M612,102.1L612,102.1c-2,0-3.6-1.7-3.5-3.7l0.2-12c0-2,1.7-3.6,3.7-3.5l0,0c2,0,3.6,1.7,3.5,3.7l-0.2,12
	C615.6,100.5,614,102.1,612,102.1z"/>
<g>
	<path class="st38" d="M686.5,118.1h-37c-4.7,0-8.5-3.8-8.5-8.5v-35c0-4.7,3.8-8.5,8.5-8.5h37c4.7,0,8.5,3.8,8.5,8.5v35
		C695,114.3,691.2,118.1,686.5,118.1z"/>
	<g>
		<path class="st39" d="M673.6,103.7h-11.1c-3.3,0-6-2.7-6-6V86.5c0-3.3,2.7-6,6-6h11.1c3.3,0,6,2.7,6,6v11.1
			C679.6,101,676.9,103.7,673.6,103.7z"/>
		<path class="st39" d="M662.5,93.1v-2c0-2.4,2-4.4,4.4-4.4h2c2.5,0,4.4,2,4.4,4.4v2c0,2.4-2,4.4-4.4,4.4h-2
			C664.5,97.6,662.5,95.6,662.5,93.1z"/>
		<circle class="st6" cx="674.7" cy="85.5" r="1.4"/>
	</g>
</g>
<g>
	<path class="st38" d="M749.6,118h-37c-4.7,0-8.5-3.8-8.5-8.5v-35c0-4.7,3.8-8.5,8.5-8.5h37c4.7,0,8.5,3.8,8.5,8.5v35
		C758.1,114.2,754.3,118,749.6,118z"/>
	<polyline class="st6" points="727.9,79.6 741.5,93.3 727.9,106.9 	"/>
</g>
<g>
	<g>
		<path class="st38" d="M812.7,118h-37c-4.7,0-8.5-3.8-8.5-8.5v-35c0-4.7,3.8-8.5,8.5-8.5h37c4.7,0,8.5,3.8,8.5,8.5v35
			C821.2,114.2,817.4,118,812.7,118z"/>
	</g>
	<g>
		<path class="st6" d="M801.2,81.7l-0.3,1.1c-0.1,0.6-0.7,0.9-1.3,0.8c-0.3-0.1-0.5-0.1-0.8-0.1c-1.4,0-2,0.9-2,2.6v0.3
			c0,0.6,0.5,1.1,1.1,1.1h0.9c0.6,0,1.1,0.5,1.1,1.1V90c0,0.6-0.5,1.1-1.1,1.1h-0.9c-0.6,0-1.1,0.5-1.1,1.1v11.1
			c0,0.6-0.5,1.1-1.1,1.1h-2.2c-0.6,0-1.1-0.5-1.1-1.1V92.2c0-0.6-0.5-1.1-1.1-1.1l0,0c-0.6,0-1.1-0.5-1.1-1.1v-1.1
			c0-0.6,0.5-1.1,1-1.1l0.2,0c0.6-0.1,1-0.5,1-1.1v-0.3c0-1.9,0.5-3.4,1.4-4.5s2.4-1.7,4.4-1.7c0.7,0,1.4,0.1,2.1,0.2
			C801,80.4,801.3,81.1,801.2,81.7z"/>
	</g>
</g>
<g>
	<g>
		<path class="st38" d="M875.8,118.3h-37c-4.7,0-8.5-3.8-8.5-8.5v-35c0-4.7,3.8-8.5,8.5-8.5h37c4.7,0,8.5,3.8,8.5,8.5v35
			C884.3,114.5,880.5,118.3,875.8,118.3z"/>
	</g>
	<g>
		<path class="st6" d="M867,90.1c-0.2-0.5-0.2-1.1,0-1.5l0.6-1.3c0.4-0.8,0.1-1.9-0.8-2.3l-1.3-0.7c-0.5-0.2-0.8-0.7-0.9-1.2
			l-0.2-1.4c-0.2-0.9-1-1.6-2-1.4l-1.5,0.2c-0.5,0.1-1.1-0.1-1.5-0.5l-1-1c-0.7-0.7-1.8-0.7-2.4,0l-1,1c-0.4,0.4-0.9,0.6-1.5,0.5
			l-1.5-0.2c-0.9-0.1-1.8,0.5-2,1.4l-0.3,1.4c-0.1,0.5-0.4,1-0.9,1.2l-1.3,0.7c-0.8,0.4-1.2,1.5-0.8,2.3l0.6,1.3
			c0.2,0.5,0.2,1.1,0,1.5l-0.6,1.3c-0.4,0.8-0.1,1.9,0.8,2.3l1.3,0.7c0.5,0.2,0.8,0.7,0.9,1.2l0.2,1.4c0.2,0.9,1,1.6,2,1.4l1.5-0.2
			c0.5-0.1,1.1,0.1,1.5,0.5l1,1c0.7,0.7,1.8,0.7,2.4,0l1-1c0.4-0.4,0.9-0.6,1.5-0.5l1.5,0.2c0.9,0.1,1.8-0.5,2-1.4l0.2-1.4
			c0.1-0.5,0.4-1,0.9-1.2l1.3-0.7c0.8-0.4,1.2-1.5,0.8-2.3L867,90.1z M860.3,96.4c-6.5,2.5-12.5-3.6-10-10c0.7-1.9,2.2-3.4,4.1-4.1
			c6.5-2.5,12.5,3.6,10,10C863.6,94.2,862.2,95.7,860.3,96.4z"/>
		<circle class="st6" cx="857.3" cy="89.3" r="6.8"/>
		<polygon class="st38" points="858.5,88 861.3,88.5 859.3,90.4 859.7,93.2 857.2,91.8 854.7,93 855.2,90.3 853.3,88.3 856.1,88 
			857.4,85.5 		"/>
		<path class="st6" d="M853.5,105.9l-1.5-1.5l-2.5,0c-0.6,0-1-0.6-0.8-1.1l2.7-6.9l6.3,2.5l-2.7,6.9
			C854.7,106.2,854,106.3,853.5,105.9z"/>
		<path class="st6" d="M861.9,105.9l1.5-1.5l2.5,0c0.6,0,1-0.6,0.8-1.1l-2.7-6.9l-6.3,2.5l2.7,6.9
			C860.7,106.2,861.4,106.3,861.9,105.9z"/>
	</g>
</g>
<g>
	<g>
		<path class="st38" d="M938.9,118.5h-37c-4.7,0-8.5-3.8-8.5-8.5V75c0-4.7,3.8-8.5,8.5-8.5h37c4.7,0,8.5,3.8,8.5,8.5v35
			C947.4,114.7,943.6,118.5,938.9,118.5z"/>
	</g>
	<path class="st6" d="M921.7,79.4l1.6,1.6c0.4,0.4,1,0.6,1.6,0.5l2.2-0.3c1-0.1,1.9,0.5,2.1,1.5l0.4,2.2c0.1,0.6,0.5,1.1,1,1.3l2,1
		c0.9,0.5,1.2,1.6,0.8,2.5l-1,2c-0.2,0.5-0.2,1.1,0,1.7l1,2c0.5,0.9,0.1,2-0.8,2.5l-2,1c-0.5,0.3-0.9,0.8-1,1.3l-0.4,2.2
		c-0.2,1-1.1,1.7-2.1,1.5l-2.2-0.3c-0.6-0.1-1.2,0.1-1.6,0.5l-1.6,1.6c-0.7,0.7-1.9,0.7-2.6,0l-1.6-1.6c-0.4-0.4-1-0.6-1.6-0.5
		l-2.2,0.3c-1,0.1-1.9-0.5-2.1-1.5l-0.4-2.2c-0.1-0.6-0.5-1.1-1-1.3l-2-1c-0.9-0.5-1.2-1.6-0.8-2.5l1-2c0.2-0.5,0.2-1.1,0-1.7l-1-2
		c-0.5-0.9-0.1-2,0.8-2.5l2-1c0.5-0.3,0.9-0.8,1-1.3l0.4-2.2c0.2-1,1.1-1.7,2.1-1.5l2.2,0.3c0.6,0.1,1.2-0.1,1.6-0.5l1.6-1.6
		C919.8,78.7,921,78.7,921.7,79.4z"/>
	<g>
		<g>
			<circle class="st38" cx="920.5" cy="87.4" r="0.9"/>
			<circle class="st38" cx="927" cy="89.1" r="0.9"/>
			<circle class="st38" cx="913.8" cy="89" r="0.9"/>
			<polygon class="st38" points="916.3,98.5 924.6,98.5 924.9,97.2 916,97.2 			"/>
			<polygon class="st38" points="926.4,90.3 923,92.4 920.5,89 918.2,92.4 914.1,90.2 915.9,96.9 925,96.9 			"/>
		</g>
	</g>
</g>
<path class="st40" d="M623.4,179.4h-37c-4.7,0-8.5-3.8-8.5-8.5v-35c0-4.7,3.8-8.5,8.5-8.5h37c4.7,0,8.5,3.8,8.5,8.5v35
	C631.9,175.6,628.1,179.4,623.4,179.4z"/>
<path class="st6" d="M611.5,163.4L611.5,163.4c-1.2,0-2.3-0.5-3-1.2l-13.2-13.9c-1.8-1.9,0-4.6,3.2-4.5l0,0c1.2,0,2.3,0.5,3,1.2
	l13.2,13.9C616.6,160.8,614.7,163.5,611.5,163.4z"/>
<path class="st6" d="M597.5,162.8L597.5,162.8c-2,0-3.6-1.7-3.5-3.7l0.2-12c0-2,1.7-3.6,3.7-3.5l0,0c2,0,3.6,1.7,3.5,3.7l-0.2,12
	C601.1,161.3,599.5,162.9,597.5,162.8z"/>
<path class="st6" d="M612,163.1L612,163.1c-2,0-3.6-1.7-3.5-3.7l0.2-12c0-2,1.7-3.6,3.7-3.5l0,0c2,0,3.6,1.7,3.5,3.7l-0.2,12
	C615.6,161.6,614,163.1,612,163.1z"/>
<g>
	<path class="st41" d="M686.5,179.1h-37c-4.7,0-8.5-3.8-8.5-8.5v-35c0-4.7,3.8-8.5,8.5-8.5h37c4.7,0,8.5,3.8,8.5,8.5v35
		C695,175.3,691.2,179.1,686.5,179.1z"/>
	<g>
		<path class="st42" d="M673.6,164.7h-11.1c-3.3,0-6-2.7-6-6v-11.1c0-3.3,2.7-6,6-6h11.1c3.3,0,6,2.7,6,6v11.1
			C679.6,162,676.9,164.7,673.6,164.7z"/>
		<path class="st42" d="M662.5,154.2v-2c0-2.4,2-4.4,4.4-4.4h2c2.5,0,4.4,2,4.4,4.4v2c0,2.4-2,4.4-4.4,4.4h-2
			C664.5,158.6,662.5,156.6,662.5,154.2z"/>
		<circle class="st41" cx="674.7" cy="146.6" r="1.4"/>
	</g>
</g>
<g>
	<path class="st43" d="M749.6,179h-37c-4.7,0-8.5-3.8-8.5-8.5v-35c0-4.7,3.8-8.5,8.5-8.5h37c4.7,0,8.5,3.8,8.5,8.5v35
		C758.1,175.2,754.3,179,749.6,179z"/>
	<polyline class="st6" points="727.9,140.7 741.5,154.3 727.9,168 	"/>
</g>
<g>
	<g>
		<path class="st44" d="M812.7,179h-37c-4.7,0-8.5-3.8-8.5-8.5v-35c0-4.7,3.8-8.5,8.5-8.5h37c4.7,0,8.5,3.8,8.5,8.5v35
			C821.2,175.2,817.4,179,812.7,179z"/>
	</g>
	<g>
		<path class="st6" d="M801.2,142.7l-0.3,1.1c-0.1,0.6-0.7,0.9-1.3,0.8c-0.3-0.1-0.5-0.1-0.8-0.1c-1.4,0-2,0.9-2,2.6v0.3
			c0,0.6,0.5,1.1,1.1,1.1h0.9c0.6,0,1.1,0.5,1.1,1.1v1.2c0,0.6-0.5,1.1-1.1,1.1h-0.9c-0.6,0-1.1,0.5-1.1,1.1v11.1
			c0,0.6-0.5,1.1-1.1,1.1h-2.2c-0.6,0-1.1-0.5-1.1-1.1v-11.1c0-0.6-0.5-1.1-1.1-1.1l0,0c-0.6,0-1.1-0.5-1.1-1.1v-1.1
			c0-0.6,0.5-1.1,1-1.1l0.2,0c0.6-0.1,1-0.5,1-1.1v-0.3c0-1.9,0.5-3.4,1.4-4.5s2.4-1.7,4.4-1.7c0.7,0,1.4,0.1,2.1,0.2
			C801,141.5,801.3,142.1,801.2,142.7z"/>
	</g>
</g>
<g>
	<path class="st45" d="M-141.5,53.8h-37c-4.7,0-8.5-3.8-8.5-8.5v-35c0-4.7,3.8-8.5,8.5-8.5h37c4.7,0,8.5,3.8,8.5,8.5v35
		C-133,50-136.8,53.8-141.5,53.8z"/>
	<g>
		<path class="st46" d="M-151.6,40.5L-151.6,40.5c-1.5-0.1-2.9-0.6-3.8-1.6l-16.8-17.7c-2.4-2.5,0.1-5.8,4.1-5.7l0,0
			c1.5,0.1,2.9,0.6,3.8,1.6l16.8,17.7C-145.1,37.3-147.5,40.6-151.6,40.5z"/>
		<path class="st46" d="M-168.5,39.8l-2,0c-2,0-3.6-1.7-3.5-3.7l0.3-17.2c0-2,1.7-3.6,3.7-3.5l2,0c2,0,3.6,1.7,3.5,3.7l-0.3,17.2
			C-164.9,38.3-166.5,39.9-168.5,39.8z"/>
		<path class="st46" d="M-150.1,40.2l-2,0c-2,0-3.6-1.7-3.5-3.7l0.3-17.2c0-2,1.7-3.6,3.7-3.5l2,0c2,0,3.6,1.7,3.5,3.7l-0.3,17.2
			C-146.4,38.6-148.1,40.2-150.1,40.2z"/>
	</g>
</g>
<g>
	<path class="st45" d="M-79,53.8h-37c-4.7,0-8.5-3.8-8.5-8.5v-35c0-4.7,3.8-8.5,8.5-8.5h37c4.7,0,8.5,3.8,8.5,8.5v35
		C-70.5,50-74.3,53.8-79,53.8z"/>
	<g>
		<g>
			<path class="st45" d="M-90.6,40.8h-13.9c-3.3,0-6-2.7-6-6V20.9c0-3.3,2.7-6,6-6h13.9c3.3,0,6,2.7,6,6v13.9
				C-84.6,38.1-87.2,40.8-90.6,40.8z"/>
			<path class="st45" d="M-103.7,29.5v-3.4c0-2.5,2-4.4,4.4-4.4h3.4c2.4,0,4.4,2,4.4,4.4v3.4c0,2.5-2,4.4-4.4,4.4h-3.4
				C-101.7,33.9-103.7,32-103.7,29.5z"/>
			<circle class="st45" cx="-90" cy="20.5" r="0.7"/>
		</g>
	</g>
</g>
<g>
	<path class="st45" d="M-15.9,53.8h-37c-4.7,0-8.5-3.8-8.5-8.5v-35c0-4.7,3.8-8.5,8.5-8.5h37c4.7,0,8.5,3.8,8.5,8.5v35
		C-7.4,50-11.2,53.8-15.9,53.8z"/>
	<polyline class="st46" points="-37.8,14.2 -24.1,27.8 -37.8,41.5 	"/>
</g>
<g>
	<g>
		<path class="st47" d="M875.8,179.3h-37c-4.7,0-8.5-3.8-8.5-8.5v-35c0-4.7,3.8-8.5,8.5-8.5h37c4.7,0,8.5,3.8,8.5,8.5v35
			C884.3,175.5,880.5,179.3,875.8,179.3z"/>
	</g>
	<g>
		<path class="st6" d="M867,151.1c-0.2-0.5-0.2-1.1,0-1.5l0.6-1.3c0.4-0.9,0.1-1.9-0.8-2.3l-1.3-0.7c-0.5-0.2-0.8-0.7-0.9-1.2
			l-0.2-1.4c-0.2-0.9-1-1.6-2-1.4l-1.5,0.2c-0.5,0.1-1.1-0.1-1.5-0.5l-1-1c-0.7-0.7-1.8-0.7-2.4,0l-1,1c-0.4,0.4-0.9,0.6-1.5,0.5
			l-1.5-0.2c-0.9-0.1-1.8,0.5-2,1.4l-0.2,1.4c-0.1,0.5-0.4,1-0.9,1.2l-1.3,0.7c-0.8,0.4-1.2,1.5-0.8,2.3l0.6,1.3
			c0.2,0.5,0.2,1.1,0,1.5l-0.6,1.3c-0.4,0.9-0.1,1.9,0.8,2.3l1.3,0.7c0.5,0.2,0.8,0.7,0.9,1.2l0.2,1.4c0.2,0.9,1,1.6,2,1.4l1.5-0.2
			c0.5-0.1,1.1,0.1,1.5,0.5l1,1c0.7,0.7,1.8,0.7,2.4,0l1-1c0.4-0.4,0.9-0.6,1.5-0.5l1.5,0.2c0.9,0.1,1.8-0.5,2-1.4l0.2-1.4
			c0.1-0.5,0.4-1,0.9-1.2l1.3-0.7c0.8-0.4,1.2-1.5,0.8-2.3L867,151.1z M860.3,157.4c-6.5,2.5-12.5-3.6-10-10
			c0.7-1.9,2.2-3.4,4.1-4.1c6.5-2.5,12.5,3.6,10,10C863.6,155.2,862.2,156.7,860.3,157.4z"/>
		<circle class="st6" cx="857.3" cy="150.4" r="6.8"/>
		<polygon class="st47" points="858.5,149.1 861.3,149.5 859.3,151.4 859.7,154.2 857.2,152.9 854.7,154.1 855.2,151.3 853.3,149.3 
			856.1,149 857.4,146.5 		"/>
		<path class="st6" d="M853.5,166.9l-1.5-1.5l-2.5,0c-0.6,0-1-0.6-0.8-1.1l2.7-6.9l6.3,2.5l-2.7,6.9
			C854.7,167.3,854,167.4,853.5,166.9z"/>
		<path class="st6" d="M861.9,166.9l1.5-1.5l2.5,0c0.6,0,1-0.6,0.8-1.1l-2.7-6.9l-6.3,2.5l2.7,6.9
			C860.7,167.3,861.4,167.4,861.9,166.9z"/>
	</g>
</g>
<g>
	<g>
		<path class="st48" d="M938.9,179.6h-37c-4.7,0-8.5-3.8-8.5-8.5v-35c0-4.7,3.8-8.5,8.5-8.5h37c4.7,0,8.5,3.8,8.5,8.5v35
			C947.4,175.8,943.6,179.6,938.9,179.6z"/>
	</g>
	<path class="st6" d="M921.7,140.4l1.6,1.6c0.4,0.4,1,0.6,1.6,0.5l2.2-0.3c1-0.1,1.9,0.5,2.1,1.5l0.4,2.2c0.1,0.6,0.5,1.1,1,1.3l2,1
		c0.9,0.5,1.2,1.6,0.8,2.5l-1,2c-0.2,0.5-0.2,1.1,0,1.6l1,2c0.5,0.9,0.1,2-0.8,2.5l-2,1c-0.5,0.3-0.9,0.8-1,1.3l-0.4,2.2
		c-0.2,1-1.1,1.7-2.1,1.5l-2.2-0.3c-0.6-0.1-1.2,0.1-1.6,0.5l-1.6,1.6c-0.7,0.7-1.9,0.7-2.6,0l-1.6-1.6c-0.4-0.4-1-0.6-1.6-0.5
		l-2.2,0.3c-1,0.1-1.9-0.5-2.1-1.5l-0.4-2.2c-0.1-0.6-0.5-1.1-1-1.3l-2-1c-0.9-0.5-1.2-1.6-0.8-2.5l1-2c0.2-0.5,0.2-1.1,0-1.6l-1-2
		c-0.5-0.9-0.1-2,0.8-2.5l2-1c0.5-0.3,0.9-0.8,1-1.3l0.4-2.2c0.2-1,1.1-1.7,2.1-1.5l2.2,0.3c0.6,0.1,1.2-0.1,1.6-0.5l1.6-1.6
		C919.8,139.7,921,139.7,921.7,140.4z"/>
	<g>
		<g>
			<circle class="st48" cx="920.5" cy="148.5" r="0.9"/>
			<circle class="st48" cx="927" cy="150.1" r="0.9"/>
			<circle class="st48" cx="913.8" cy="150.1" r="0.9"/>
			<polygon class="st48" points="916.3,159.5 924.6,159.5 924.9,158.2 916,158.2 			"/>
			<polygon class="st48" points="926.4,151.4 923,153.5 920.5,150 918.2,153.5 914.1,151.3 915.9,157.9 925,157.9 			"/>
		</g>
	</g>
</g>
<image style="overflow:visible;enable-background:new    ;" width="966" height="225" xlink:href="E527A3E3.jpeg"  transform="matrix(0.3828 0 0 0.3828 75.7461 484.242)">
</image>
<g>
	<circle class="st49" cx="603.4" cy="237.5" r="27"/>
	<g>
		<path class="st39" d="M597.8,229.1c-3.2,0-5.8,2.8-5.8,6.2c0,3.4,2.6,6.2,5.8,6.2h10.3v-12.4L597.8,229.1L597.8,229.1z"/>
		<path class="st39" d="M610.3,244.7h-0.7c-0.8,0-1.4-0.6-1.4-1.4v-15.8c0-0.8,0.6-1.4,1.4-1.4h0.7c0.8,0,1.4,0.6,1.4,1.4v15.8
			C611.7,244.1,611.1,244.7,610.3,244.7z"/>
		<path class="st39" d="M613.2,237.8h-1.5v-5.4h1.5c0.9,0,1.7,0.8,1.7,1.7v2C614.8,237,614.1,237.8,613.2,237.8z"/>
		<path class="st39" d="M601.7,248.9H600c-0.8,0-1.4-0.6-1.4-1.4v-6.1h5.3l-0.8,6.2C603,248.4,602.4,248.9,601.7,248.9z"/>
		<circle class="st6" cx="610.1" cy="244.6" r="4.3"/>
		<polyline class="st50" points="612.4,244.1 610.1,246.4 608.5,244.1 		"/>
	</g>
</g>
<g>
	<circle class="st49" cx="666.8" cy="237.4" r="27"/>
	<path class="st39" d="M672.3,249.4h-11c-3.2,0-5.9-2.6-5.9-5.9v-12.3c0-3.2,2.6-5.9,5.9-5.9h11c3.2,0,5.9,2.6,5.9,5.9v12.3
		C678.2,246.8,675.6,249.4,672.3,249.4z"/>
	<g>
		<circle class="st6" cx="666.8" cy="234.5" r="2.9"/>
		<path class="st6" d="M660.8,243.3c0-3.7,2.7-6.7,6.1-6.7s6.1,3,6.1,6.7"/>
	</g>
</g>
<g>
	<circle class="st49" cx="730.3" cy="236.9" r="27"/>
	<g>
		<path class="st6" d="M724.2,230.7v12.5c0,0.5-0.4,1-1,1h-1.8c-0.5,0-1-0.4-1-1v-7.6c0-0.7-0.8-1.2-1.4-0.9l0,0
			c-0.5,0.2-1,0.1-1.3-0.4l-0.8-1.4c-0.3-0.5-0.1-1.1,0.4-1.3l3.1-1.8c0.2-0.1,0.3-0.1,0.5-0.1h2.3
			C723.8,229.7,724.2,230.1,724.2,230.7z"/>
		<path class="st6" d="M731.3,234.4h-0.9c-0.7,0-1.3-0.6-1.3-1.3v-0.6c0-0.7,0.6-1.3,1.3-1.3h0.9c0.7,0,1.3,0.6,1.3,1.3v0.6
			C732.6,233.8,732,234.4,731.3,234.4z M731.3,242.7h-0.9c-0.7,0-1.3-0.6-1.3-1.3v-0.6c0-0.7,0.6-1.3,1.3-1.3h0.9
			c0.7,0,1.3,0.6,1.3,1.3v0.6C732.6,242.1,732,242.7,731.3,242.7z"/>
		<path class="st6" d="M744,230.7v12.5c0,0.5-0.4,1-1,1h-1.8c-0.5,0-1-0.4-1-1v-7.6c0-0.7-0.8-1.2-1.4-0.9l0,0
			c-0.5,0.2-1,0.1-1.3-0.4l-0.8-1.4c-0.3-0.5-0.1-1.1,0.4-1.3l3.1-1.8c0.2-0.1,0.3-0.1,0.5-0.1h2.3C743.6,229.7,744,230.1,744,230.7
			z"/>
	</g>
</g>
<g>
	<circle class="st49" cx="793.7" cy="236.9" r="27"/>
	<g>
		<path class="st6" d="M799.6,235.1h-17.3c-1.1,0-2-0.9-2-2.1V225c0-1.1,0.9-2.1,2-2.1h17.3c1.1,0,2,0.9,2,2.1v8.1
			C801.6,234.2,800.7,235.1,799.6,235.1z"/>
		<path class="st6" d="M780.2,240.3v-8.2c0-1,0.8-1.8,1.8-1.8h7.2"/>
	</g>
	<g>
		<path class="st6" d="M793.6,246.7h13c1.1,0,2-0.9,2-2.1V239c0-1.1-0.9-2.1-2-2.1h-13c-1.1,0-2,0.9-2,2.1v5.6
			C791.6,245.8,792.5,246.7,793.6,246.7z"/>
		<path class="st6" d="M808.7,250.9v-6.5c0-0.8-0.6-1.4-1.4-1.4h-5.7"/>
	</g>
	<g>
		<g>
			<path class="st49" d="M791.2,226.9h-6.7c-0.2,0-0.3-0.1-0.3-0.3v-0.6c0-0.2,0.2-0.3,0.3-0.3h6.7c0.2,0,0.3,0.1,0.3,0.3v0.6
				C791.5,226.7,791.4,226.9,791.2,226.9z"/>
			<path class="st49" d="M798.9,226.9h-6.5c-0.2,0-0.3-0.2-0.3-0.4v-0.6c0-0.2,0.2-0.4,0.3-0.4h6.5c0.2,0,0.3,0.2,0.3,0.4v0.6
				C799.2,226.7,799.1,226.9,798.9,226.9z"/>
		</g>
	</g>
	<g>
		<g>
			<path class="st49" d="M791.2,232.6h-6.8c-0.2,0-0.3-0.1-0.3-0.3v-0.7c0-0.2,0.1-0.3,0.3-0.3h6.8c0.2,0,0.3,0.1,0.3,0.3v0.7
				C791.5,232.5,791.4,232.6,791.2,232.6z"/>
			<path class="st49" d="M798.9,232.6h-6.5c-0.2,0-0.3-0.1-0.3-0.3v-0.6c0-0.2,0.2-0.3,0.3-0.3h6.5c0.2,0,0.3,0.1,0.3,0.3v0.6
				C799.2,232.4,799.1,232.6,798.9,232.6z"/>
		</g>
	</g>
	<path class="st49" d="M798.9,229.7h-14.4c-0.2,0-0.4-0.2-0.4-0.4v-0.5c0-0.2,0.2-0.4,0.4-0.4h14.4c0.2,0,0.4,0.2,0.4,0.4v0.5
		C799.3,229.6,799.1,229.7,798.9,229.7z"/>
	<g>
		<g>
			<path class="st49" d="M799.3,240.9h-5.1c-0.2,0-0.3-0.1-0.3-0.3v-0.3c0-0.2,0.2-0.3,0.3-0.3h5.1c0.2,0,0.3,0.1,0.3,0.3v0.3
				C799.7,240.7,799.5,240.9,799.3,240.9z"/>
			<path class="st49" d="M805.3,240.9h-4.9c-0.2,0-0.3-0.2-0.3-0.4v-0.3c0-0.2,0.2-0.4,0.3-0.4h4.9c0.2,0,0.3,0.2,0.3,0.4v0.3
				C805.7,240.7,805.5,240.9,805.3,240.9z"/>
		</g>
	</g>
	<path class="st49" d="M805.3,243.9h-11c-0.2,0-0.4-0.2-0.4-0.4v-0.2c0-0.2,0.2-0.4,0.4-0.4h11c0.2,0,0.4,0.2,0.4,0.4v0.2
		C805.7,243.7,805.5,243.9,805.3,243.9z"/>
</g>
<g>
	<path class="st6" d="M791,285.6h-6.5c-0.2,0-0.3-0.1-0.3-0.3v-0.6c0-0.2,0.2-0.3,0.3-0.3h6.5c0.2,0,0.3,0.1,0.3,0.3v0.6
		C791.3,285.4,791.2,285.6,791,285.6z"/>
	<path class="st6" d="M798.5,285.6h-6.3c-0.2,0-0.3-0.2-0.3-0.4v-0.6c0-0.2,0.2-0.4,0.3-0.4h6.3c0.2,0,0.3,0.2,0.3,0.4v0.6
		C798.8,285.4,798.7,285.6,798.5,285.6z"/>
</g>
<g>
	<circle class="st51" cx="793.7" cy="295.6" r="27"/>
	<g>
		<path class="st27" d="M799.6,293.8h-17.3c-1.1,0-2-0.9-2-2v-8.1c0-1.1,0.9-2,2-2h17.3c1.1,0,2,0.9,2,2v8.1
			C801.6,292.9,800.7,293.8,799.6,293.8z"/>
		<path class="st27" d="M780.2,299v-8.2c0-1,0.8-1.8,1.8-1.8h7.2"/>
	</g>
	<g>
		<path class="st6" d="M793.6,306.9h13c1.1,0,2-0.9,2-2v-5.6c0-1.1-0.9-2-2-2h-13c-1.1,0-2,0.9-2,2v5.6
			C791.6,305.9,792.5,306.9,793.6,306.9z"/>
		<path class="st6" d="M808.7,311v-6.5c0-0.8-0.6-1.4-1.4-1.4h-5.7"/>
	</g>
	<g>
		<path class="st6" d="M790.8,291.3h-6.4c-0.2,0-0.3-0.1-0.3-0.3v-0.7c0-0.2,0.1-0.3,0.3-0.3h6.4c0.2,0,0.3,0.1,0.3,0.3v0.7
			C791.1,291.2,791,291.3,790.8,291.3z"/>
		<path class="st6" d="M798.5,291.3h-6c-0.2,0-0.3-0.1-0.3-0.3v-0.6c0-0.2,0.2-0.3,0.3-0.3h6c0.2,0,0.3,0.1,0.3,0.3v0.6
			C798.8,291.1,798.7,291.3,798.5,291.3z"/>
	</g>
	<g>
		<path class="st6" d="M790.8,285.7h-6.4c-0.2,0-0.3-0.1-0.3-0.3v-0.7c0-0.2,0.1-0.3,0.3-0.3h6.4c0.2,0,0.3,0.1,0.3,0.3v0.7
			C791.1,285.5,791,285.7,790.8,285.7z"/>
		<path class="st6" d="M798.5,285.7h-6c-0.2,0-0.3-0.1-0.3-0.3v-0.6c0-0.2,0.2-0.3,0.3-0.3h6c0.2,0,0.3,0.1,0.3,0.3v0.6
			C798.8,285.5,798.7,285.7,798.5,285.7z"/>
	</g>
	<path class="st6" d="M798.5,288.4h-14c-0.2,0-0.4-0.2-0.4-0.4v-0.5c0-0.2,0.2-0.4,0.4-0.4h14c0.2,0,0.4,0.2,0.4,0.4v0.5
		C798.8,288.3,798.7,288.4,798.5,288.4z"/>
	<g>
		<path class="st27" d="M799.4,301h-4.7c-0.2,0-0.3-0.1-0.3-0.3v-0.3c0-0.2,0.2-0.3,0.3-0.3h4.7c0.2,0,0.3,0.1,0.3,0.3v0.3
			C799.7,300.9,799.5,301,799.4,301z"/>
		<path class="st27" d="M804.9,301h-4.5c-0.2,0-0.3-0.2-0.3-0.4v-0.3c0-0.2,0.2-0.4,0.3-0.4h4.5c0.2,0,0.3,0.2,0.3,0.4v0.3
			C805.2,300.9,805.1,301,804.9,301z"/>
	</g>
	<path class="st27" d="M804.9,304h-10.2c-0.2,0-0.4-0.2-0.4-0.4v-0.2c0-0.2,0.2-0.4,0.4-0.4h10.2c0.2,0,0.4,0.2,0.4,0.4v0.2
		C805.3,303.9,805.1,304,804.9,304z"/>
</g>
<g>
	<circle class="st49" cx="857.1" cy="236.6" r="27"/>
	<path class="st6" d="M857.1,225.4c-6.2,0-11.2,5-11.2,11.2c0,0.4,0,0.7,0,1.1l0,0v10.1H856v0c0.3,0,0.7,0.1,1,0.1
		c6.2,0,11.2-5,11.2-11.2C868.3,230.4,863.3,225.4,857.1,225.4z"/>
	<path class="st49" d="M858,233.3c0-0.2-0.1-0.4-0.3-0.5c-0.2-0.1-0.4-0.1-0.7-0.1c-0.3,0-0.6,0.2-0.8,0.5c-0.2,0.6-0.8,1-1.4,0.9
		l-0.5-0.1c-0.7-0.1-1.3-0.8-1.1-1.6c0-0.1,0.1-0.3,0.1-0.4c0.2-0.5,0.4-0.9,0.7-1.1c0.3-0.3,0.7-0.5,1.2-0.6c0.5-0.1,1-0.2,1.7-0.2
		c0.6,0,1.1,0.1,1.6,0.1c0.5,0.1,0.9,0.3,1.2,0.5s0.6,0.5,0.8,0.9s0.3,0.8,0.3,1.2v1.1c0,0.4-0.2,0.9-0.5,1.2
		c-0.3,0.4-0.7,0.8-1.3,1.2c-0.3,0.2-0.5,0.5-0.7,0.8c-0.1,0.3-0.2,0.6-0.2,1.1l0,1.3H857c-0.7,0-1.3-0.6-1.3-1.3V238
		c0-0.7,0.1-1.2,0.3-1.7s0.5-0.8,1-1.2c0.3-0.2,0.6-0.5,0.8-0.7c0.2-0.2,0.3-0.4,0.3-0.7L858,233.3L858,233.3z M857.1,243.2
		L857.1,243.2c-0.8,0-1.4-0.6-1.4-1.3l0,0c0-0.7,0.6-1.3,1.3-1.3h0c0.7,0,1.3,0.6,1.3,1.3l0,0C858.4,242.6,857.8,243.2,857.1,243.2z
		"/>
</g>
<g>
	<circle class="st51" cx="603.4" cy="295.8" r="27"/>
	<g>
		<path class="st32" d="M597.8,287.4c-3.2,0-5.8,2.8-5.8,6.2s2.6,6.2,5.8,6.2h10.3v-12.4L597.8,287.4L597.8,287.4z"/>
		<path class="st32" d="M610.3,303h-0.7c-0.8,0-1.4-0.6-1.4-1.4v-15.8c0-0.8,0.6-1.4,1.4-1.4h0.7c0.8,0,1.4,0.6,1.4,1.4v15.8
			C611.7,302.4,611.1,303,610.3,303z"/>
		<path class="st32" d="M613.2,296.1h-1.5v-5.4h1.5c0.9,0,1.7,0.8,1.7,1.7v2C614.8,295.3,614.1,296.1,613.2,296.1z"/>
		<path class="st32" d="M601.7,307.2H600c-0.8,0-1.4-0.6-1.4-1.4v-6h5.3l-0.8,6.2C603,306.7,602.4,307.2,601.7,307.2z"/>
		<circle class="st27" cx="610.1" cy="302.9" r="4.3"/>
		<polyline class="st50" points="612.4,302.4 610.1,304.7 608.5,302.4 		"/>
	</g>
</g>
<g>
	<circle class="st51" cx="666.8" cy="295.7" r="27"/>
	<path class="st27" d="M672.3,307.7h-11c-3.2,0-5.9-2.6-5.9-5.9v-12.3c0-3.2,2.6-5.9,5.9-5.9h11c3.2,0,5.9,2.6,5.9,5.9v12.3
		C678.2,305.1,675.6,307.7,672.3,307.7z"/>
	<g>
		<circle class="st6" cx="666.8" cy="292.8" r="2.9"/>
		<path class="st6" d="M660.8,301.5c0-3.7,2.7-6.7,6.1-6.7s6.1,3,6.1,6.7"/>
	</g>
</g>
<g>
	<circle class="st51" cx="730.3" cy="295.2" r="27"/>
	<g>
		<path class="st27" d="M724.1,289v12.5c0,0.5-0.4,1-1,1h-1.8c-0.5,0-1-0.4-1-1v-7.6c0-0.7-0.8-1.2-1.4-0.9l0,0
			c-0.5,0.2-1,0.1-1.3-0.4l-0.8-1.4c-0.3-0.5-0.1-1.1,0.4-1.3l3.1-1.8c0.2-0.1,0.3-0.1,0.5-0.1h2.3C723.6,288,724.1,288.5,724.1,289
			z"/>
		<path class="st27" d="M731.1,292.7h-0.9c-0.7,0-1.3-0.6-1.3-1.3v-0.6c0-0.7,0.6-1.3,1.3-1.3h0.9c0.7,0,1.3,0.6,1.3,1.3v0.6
			C732.4,292.1,731.8,292.7,731.1,292.7z M731.1,301h-0.9c-0.7,0-1.3-0.6-1.3-1.3V299c0-0.7,0.6-1.3,1.3-1.3h0.9
			c0.7,0,1.3,0.6,1.3,1.3v0.6C732.4,300.4,731.8,301,731.1,301z"/>
		<path class="st27" d="M743.8,289v12.5c0,0.5-0.4,1-1,1h-1.8c-0.5,0-1-0.4-1-1v-7.6c0-0.7-0.8-1.2-1.4-0.9l0,0
			c-0.5,0.2-1,0.1-1.3-0.4l-0.8-1.4c-0.3-0.5-0.1-1.1,0.4-1.3l3.1-1.8c0.2-0.1,0.3-0.1,0.5-0.1h2.3C743.4,288,743.8,288.5,743.8,289
			z"/>
	</g>
</g>
<g>
	<circle class="st51" cx="857.1" cy="294.9" r="27"/>
	<path class="st27" d="M857.1,283.7c-6.2,0-11.2,5-11.2,11.2c0,0.4,0,0.7,0,1.1l0,0v10.1H856v0c0.3,0,0.7,0,1,0
		c6.2,0,11.2-5,11.2-11.2S863.3,283.7,857.1,283.7z"/>
	<path class="st6" d="M858,291.6c0-0.2-0.1-0.4-0.3-0.5s-0.4-0.1-0.7-0.1c-0.3,0-0.6,0.2-0.8,0.5c-0.2,0.6-0.8,1-1.4,0.9l-0.5-0.1
		c-0.7-0.1-1.3-0.8-1.1-1.5c0-0.1,0.1-0.3,0.1-0.4c0.2-0.5,0.4-0.9,0.7-1.1c0.3-0.3,0.7-0.5,1.2-0.6c0.5-0.1,1-0.2,1.7-0.2
		c0.6,0,1.1,0,1.6,0.1c0.5,0.1,0.9,0.3,1.2,0.5s0.6,0.5,0.8,0.9c0.2,0.4,0.3,0.8,0.3,1.2v1.1c0,0.4-0.2,0.9-0.5,1.2
		c-0.3,0.4-0.7,0.8-1.3,1.2c-0.3,0.2-0.5,0.5-0.7,0.8c-0.1,0.3-0.2,0.6-0.2,1.1l0,1.3H857c-0.7,0-1.3-0.6-1.3-1.3v-0.2
		c0-0.7,0.1-1.2,0.3-1.7s0.5-0.8,1-1.2c0.3-0.2,0.6-0.5,0.8-0.7s0.3-0.4,0.3-0.7L858,291.6L858,291.6z M857.1,301.5L857.1,301.5
		c-0.8,0-1.4-0.6-1.4-1.3l0,0c0-0.7,0.6-1.3,1.3-1.3h0c0.7,0,1.3,0.6,1.3,1.3l0,0C858.4,300.9,857.8,301.5,857.1,301.5z"/>
</g>
<g>
	<circle class="st49" cx="441.5" cy="161.9" r="27"/>
	<path class="st39" d="M447,173.9h-11c-3.2,0-5.9-2.6-5.9-5.9v-12.3c0-3.2,2.6-5.9,5.9-5.9h11c3.2,0,5.9,2.6,5.9,5.9v12.3
		C452.9,171.3,450.2,173.9,447,173.9z"/>
	<g>
		<circle class="st6" cx="441.5" cy="159" r="2.9"/>
		<path class="st6" d="M435.5,167.8c0-3.7,2.7-6.7,6.1-6.7s6.1,3,6.1,6.7"/>
	</g>
</g>
<g>
	<circle class="st51" cx="441.5" cy="220.2" r="27"/>
	<path class="st27" d="M447,232.2h-11c-3.2,0-5.9-2.6-5.9-5.9v-12.3c0-3.2,2.6-5.9,5.9-5.9h11c3.2,0,5.9,2.6,5.9,5.9v12.3
		C452.9,229.6,450.2,232.2,447,232.2z"/>
	<g>
		<circle class="st6" cx="441.5" cy="217.3" r="2.9"/>
		<path class="st6" d="M435.5,226.1c0-3.7,2.7-6.7,6.1-6.7s6.1,3,6.1,6.7"/>
	</g>
</g>
<rect x="451.2" y="17.8" class="st52" width="44" height="43"/>
<g>
	<g>
		<g>
			<g>
				<g>
					<path class="st46" d="M47.2,54.8h-37c-5.2,0-9.5-4.3-9.5-9.5v-35c0-5.2,4.3-9.5,9.5-9.5h37c5.2,0,9.5,4.3,9.5,9.5v35
						C56.7,50.6,52.4,54.8,47.2,54.8z M10.2,2.8c-4.1,0-7.5,3.4-7.5,7.5v35c0,4.1,3.4,7.5,7.5,7.5h37c4.1,0,7.5-3.4,7.5-7.5v-35
						c0-4.1-3.4-7.5-7.5-7.5H10.2z"/>
				</g>
			</g>
		</g>
	</g>
	<g>
		<g class="st53">
			<path class="st46" d="M24.7,26.6H22V22l2.7-0.2V21c0-4.2,2-7.8,7.5-7.8c1.7,0,3.2,0.3,4.1,0.7l-1.1,4.6c-0.6-0.3-1.4-0.4-2-0.4
				c-1.4,0-2.2,0.7-2.2,2.7v0.9h3.5v4.9h-3.5v15h-6.2V26.6z"/>
		</g>
	</g>
</g>
<g>
	<path class="st54" d="M-141.5,115h-37c-4.7,0-8.5-3.8-8.5-8.5v-35c0-4.7,3.8-8.5,8.5-8.5h37c4.7,0,8.5,3.8,8.5,8.5v35
		C-133,111.2-136.8,115-141.5,115z"/>
	<g>
		<path class="st40" d="M-151.6,101.7L-151.6,101.7c-1.5-0.1-2.9-0.6-3.8-1.6l-16.8-17.7c-2.4-2.5,0.1-5.8,4.1-5.7l0,0
			c1.5,0.1,2.9,0.6,3.8,1.6l16.8,17.7C-145.1,98.5-147.5,101.8-151.6,101.7z"/>
		<path class="st40" d="M-168.5,101l-2,0c-2,0-3.6-1.7-3.5-3.7l0.3-17.2c0-2,1.7-3.6,3.7-3.5l2,0c2,0,3.6,1.7,3.5,3.7l-0.3,17.2
			C-164.9,99.5-166.5,101.1-168.5,101z"/>
		<path class="st40" d="M-150.1,101.4l-2,0c-2,0-3.6-1.7-3.5-3.7l0.3-17.2c0-2,1.7-3.6,3.7-3.5l2,0c2,0,3.6,1.7,3.5,3.7l-0.3,17.2
			C-146.4,99.8-148.1,101.4-150.1,101.4z"/>
	</g>
</g>
<g>
	
		<linearGradient id="SVGID_1_" gradientUnits="userSpaceOnUse" x1="-125.53" y1="28.87" x2="-69.53" y2="28.87" gradientTransform="matrix(1 0 0 -1 0 117.89)">
		<stop  offset="0" style="stop-color:#E4B58A"/>
		<stop  offset="0.5615" style="stop-color:#D25471"/>
		<stop  offset="1" style="stop-color:#A961A4"/>
	</linearGradient>
	<path class="st55" d="M-79,115h-37c-4.7,0-8.5-3.8-8.5-8.5v-35c0-4.7,3.8-8.5,8.5-8.5h37c4.7,0,8.5,3.8,8.5,8.5v35
		C-70.5,111.2-74.3,115-79,115z"/>
	<g>
		
			<linearGradient id="SVGID_00000085213352533793614600000011974288129354502797_" gradientUnits="userSpaceOnUse" x1="-111.49" y1="28.87" x2="-83.57" y2="28.87" gradientTransform="matrix(1 0 0 -1 0 117.89)">
			<stop  offset="0" style="stop-color:#E4B58A"/>
			<stop  offset="0.5615" style="stop-color:#D25471"/>
			<stop  offset="1" style="stop-color:#A961A4"/>
		</linearGradient>
		
			<path style="fill:none;stroke:url(#SVGID_00000085213352533793614600000011974288129354502797_);stroke-width:2;stroke-miterlimit:10;" d="
			M-90.6,102h-13.9c-3.3,0-6-2.7-6-6V82.1c0-3.3,2.7-6,6-6h13.9c3.3,0,6,2.7,6,6V96C-84.6,99.3-87.2,102-90.6,102z"/>
		
			<linearGradient id="SVGID_00000103977109035272496530000015007801742406577593_" gradientUnits="userSpaceOnUse" x1="-104.65" y1="28.87" x2="-90.41" y2="28.87" gradientTransform="matrix(1 0 0 -1 0 117.89)">
			<stop  offset="0" style="stop-color:#E4B58A"/>
			<stop  offset="0.5615" style="stop-color:#D25471"/>
			<stop  offset="1" style="stop-color:#A961A4"/>
		</linearGradient>
		
			<path style="fill:none;stroke:url(#SVGID_00000103977109035272496530000015007801742406577593_);stroke-width:2;stroke-miterlimit:10;" d="
			M-103.7,90.7v-3.4c0-2.4,2-4.4,4.4-4.4h3.4c2.4,0,4.4,2,4.4,4.4v3.4c0,2.4-2,4.4-4.4,4.4h-3.4C-101.7,95.1-103.7,93.1-103.7,90.7z
			"/>
		
			<linearGradient id="SVGID_00000153704050625307864960000008554219206009247886_" gradientUnits="userSpaceOnUse" x1="-91.78" y1="36.24" x2="-88.2905" y2="36.24" gradientTransform="matrix(1 0 0 -1 0 117.89)">
			<stop  offset="0" style="stop-color:#E4B58A"/>
			<stop  offset="0.5615" style="stop-color:#D25471"/>
			<stop  offset="1" style="stop-color:#A961A4"/>
		</linearGradient>
		
			<circle style="fill:none;stroke:url(#SVGID_00000153704050625307864960000008554219206009247886_);stroke-width:2;stroke-miterlimit:10;" cx="-90" cy="81.6" r="0.7"/>
	</g>
</g>
<g>
	<path class="st59" d="M-15.9,115h-37c-4.7,0-8.5-3.8-8.5-8.5v-35c0-4.7,3.8-8.5,8.5-8.5h37c4.7,0,8.5,3.8,8.5,8.5v35
		C-7.4,111.2-11.2,115-15.9,115z"/>
	<polyline class="st43" points="-37.8,76.6 -24.1,90.3 -37.8,103.9 	"/>
</g>
<g>
	<path class="st60" d="M47.2,115h-37c-4.7,0-8.5-3.8-8.5-8.5v-35c0-4.7,3.8-8.5,8.5-8.5h37c4.7,0,8.5,3.8,8.5,8.5v35
		C55.7,111.2,51.9,115,47.2,115z"/>
	<g>
		<path class="st44" d="M24.7,87.8h-2.6v-4.6l2.6-0.2v-0.8c0-4.2,2-7.8,7.5-7.8c1.8,0,3.2,0.3,4,0.7l-1.1,4.6
			c-0.6-0.3-1.4-0.4-2-0.4c-1.4,0-2.2,0.7-2.2,2.7v0.9h3.5v4.9h-3.5v15h-6.2V87.8z"/>
	</g>
</g>
<image style="overflow:visible;enable-background:new    ;" width="313" height="69" xlink:href="1EBAAFD0.jpeg"  transform="matrix(0.9855 0 0 0.9855 -97.1015 -97.7826)">
</image>
<image style="overflow:visible;enable-background:new    ;" width="68" height="55" xlink:href="1EBAAFD0.jpeg"  transform="matrix(0.9818 0 0 0.9818 -200.2079 -71.6413)">
</image>
<g>
	<g>
		<g>
			<g>
				<path class="st45" d="M112.2,53.8h-37c-4.7,0-8.5-3.8-8.5-8.5v-35c0-4.7,3.8-8.5,8.5-8.5h37c4.7,0,8.5,3.8,8.5,8.5v35
					C120.7,50,116.9,53.8,112.2,53.8z"/>
			</g>
		</g>
	</g>
	<g>
		<path class="st61" d="M103.3,26.8v12.8c0,0.6-0.5,1-1.1,1H85.9c-0.6,0-1.1-0.5-1.1-1V18c0-0.6,0.5-1,1.1-1h9.4"/>
		<g>
			<path class="st45" d="M95,30.6L91.2,31c-0.4,0-0.7-0.3-0.6-0.7l0.6-3.6l10.1-10.1l2-2l3.8,3.8L95,30.6z"/>
			<line class="st45" x1="104.7" y1="21" x2="100.8" y2="17.1"/>
		</g>
	</g>
</g>
<g>
	<g>
		<path class="st62" d="M112.2,115h-37c-4.7,0-8.5-3.8-8.5-8.5v-35c0-4.7,3.8-8.5,8.5-8.5h37c4.7,0,8.5,3.8,8.5,8.5v35
			C120.7,111.2,116.9,115,112.2,115z"/>
	</g>
	<g>
		<path class="st63" d="M103.3,87.9v12.8c0,0.6-0.5,1.1-1.1,1.1H85.9c-0.6,0-1.1-0.5-1.1-1.1V79.1c0-0.6,0.5-1.1,1.1-1.1h9.4"/>
		<g>
			<path class="st62" d="M95,91.7l-3.8,0.4c-0.4,0-0.7-0.3-0.6-0.7l0.6-3.6l10.1-10.1l2-2l3.8,3.8L95,91.7z"/>
			<line class="st62" x1="104.7" y1="82" x2="100.8" y2="78.2"/>
		</g>
	</g>
</g>
</svg>
